<?xml version='1.0' encoding='UTF-8'?>
<svg xmlns:dc="http://purl.org/dc/elements/1.1/" xmlns:cc="http://creativecommons.org/ns#" xmlns:rdf="http://www.w3.org/1999/02/22-rdf-syntax-ns#" xmlns:svg="http://www.w3.org/2000/svg" xmlns="http://www.w3.org/2000/svg" xmlns:sodipodi="http://sodipodi.sourceforge.net/DTD/sodipodi-0.dtd" xmlns:inkscape="http://www.inkscape.org/namespaces/inkscape" version="1.1" id="Logotype" x="0px" y="0px" width="4000px" height="3326px" viewBox="0 0 4000 3326" sodipodi:docname="source.svg" inkscape:version="0.92.3 (2405546, 2018-03-11)">
  <!--Creator: logaster.com--><metadata id="metadata16">
    <rdf:RDF>
      <cc:Work rdf:about="">
        <dc:format>image/svg+xml</dc:format>
        <dc:type rdf:resource="http://purl.org/dc/dcmitype/StillImage"/>
      </cc:Work>
    </rdf:RDF>
  </metadata>
  <sodipodi:namedview pagecolor="#ffffff" bordercolor="#666666" borderopacity="1" objecttolerance="10" gridtolerance="10" guidetolerance="10" inkscape:pageopacity="0" inkscape:pageshadow="2" inkscape:window-width="640" inkscape:window-height="480" id="namedview14" showgrid="false" inkscape:zoom="0.070956103" inkscape:cx="2000" inkscape:cy="1663" inkscape:window-x="0" inkscape:window-y="0" inkscape:window-maximized="0" inkscape:current-layer="Logotype"/>
  <defs id="defs2"/>
  <path d="M 3151.9319,1421.6168 V 1065.1235 L 2843.12,886.83272 2668.2455,583.99226 l -3.2012,-5.78249 H 2308.5672 L 2005.5279,403.25068 1999.9478,400 1691.2961,578.20797 H 1334.8684 L 1156.6604,886.893 847.97541,1065.1271 v 356.4681 l -174.98428,303.0996 -3.22369,5.5521 178.20797,308.6932 v 356.4357 l 308.64099,178.1972 175.0292,303.1877 3.2237,5.5522 h 356.4987 l 303.0249,174.9573 5.5522,3.2291 308.6131,-178.1864 h 356.4861 l 178.2134,-308.7174 308.6742,-178.2188 v -356.4888 l 174.9573,-303.0771 3.2615,-5.563 z m -2303.95649,572.6361 -134.7759,-233.43 134.7777,77.8085 z m 0,-181.4731 -123.67788,-71.4186 h 123.67788 z m 0,-93.7172 H 724.47027 l 123.50245,-71.3117 z m 0,-97.1696 -134.80379,77.8256 134.80379,-233.4767 z M 1134.2557,925.70502 1056.5021,1060.3928 H 900.95709 Z m -90.6475,157.01238 -35.6999,61.8448 -107.11586,-61.8448 z m -27.5556,92.437 302.88,174.8575 -214.6438,123.9163 -130.36911,-225.8085 z m -19.35746,-11.1754 -35.672,61.7954 -71.34761,-123.5853 z m -126.38513,-50.744 77.84627,134.8263 -77.84627,134.8478 z m 0,314.3298 90.74552,-157.1609 123.93607,214.6601 -214.68249,123.9361 z m 0,207.295 225.86329,-130.4213 123.9199,214.6276 H 870.30911 Z m 0,106.5068 H 1220.1364 L 1096.1616,1956.0824 870.30911,1825.671 Z m 103.61148,471.0246 130.36101,-225.7967 214.6492,123.9199 -302.8737,174.8565 z m 69.60931,165.298 H 900.99038 l 106.90712,-61.7207 z m -173.22169,-526.1639 214.67259,123.9253 -123.93157,214.6492 -90.74102,-157.1653 z m 0,226.1044 77.83547,134.8263 -77.83547,134.8092 z m 90.70233,157.1159 35.6837,61.8106 -107.0502,61.8007 z m -60.2352,165.2593 h 155.63766 l 77.8526,134.8532 z m 429.35966,429.3452 -134.7534,-233.4002 134.7543,77.803 z m 0,-181.366 -157.1051,-90.7374 -90.7815,-157.2418 h 247.8857 z m 0,-270.294 h -260.7787 l -42.0915,-72.9042 302.8693,-174.8583 z m 0,-286.5052 -214.6726,-123.9586 123.9532,-214.6934 90.7185,157.1267 z m 0,-226.0829 -71.4439,-123.739 h 71.4439 z m 0,-146.0394 h -71.3953 l 71.3944,-123.6563 z m 0,-168.2194 -90.7185,157.1267 -123.9469,-214.6726 214.6645,-123.9595 z m 0,-220.2454 -302.8755,-174.8602 42.1616,-73.0202 h 260.713 z m 0,-270.2059 h -247.8236 l 90.6798,-157.05206 157.1429,-90.72393 z m 0,-273.65457 -134.7336,77.78689 134.7327,-233.34267 z m 1220.9618,603.08617 h -210.6688 v -210.659 l 133.5738,77.1274 z m -38.5178,-111.2492 123.6563,71.3998 -61.8223,35.6945 z m -38.588,925.6592 -133.563,77.122 v -210.6698 h 210.6679 z m 100.4085,-129.3794 61.834,35.6999 -123.6671,71.4052 z m -1125.5728,-4.1684 h 210.6571 v 210.668 l -133.5522,-77.1166 z m 38.5277,111.2789 -123.6671,-71.4106 61.8277,-35.6945 z m 38.5664,-925.679 133.563,-77.122 v 210.6572 h -210.6571 z m -100.4166,129.3731 -61.8223,-35.6945 123.6581,-71.3998 z m 954.7147,366.9948 54.3159,94.0682 -94.1104,54.3267 v -79.4666 z m -39.7909,24.2114 v -93.1298 l 26.8862,46.5622 z m 0,-137.8457 v -79.5657 l 94.1338,54.343 -54.3429,94.1338 z m -15.2557,-494.4057 -107.2148,-61.8943 h 142.9534 z m -705.4965,563.3006 -54.3303,-94.1248 94.1338,-54.343 v 79.5351 z m 39.8071,-24.1844 v 93.1406 l -26.8862,-46.573 z m 0,137.8899 v 79.4279 l -94.1104,-54.3267 54.2997,-94.052 z m 15.2386,494.2904 107.0169,61.7792 h -142.6772 z m 7.0618,-795.1056 v -108.7651 h 108.7471 l -39.835,68.9778 z m 46.5892,-1.1256 -46.5892,80.6804 v -53.7833 z m 87.978,-107.6377 h 53.8328 l -80.7514,46.6171 z m -12.9928,-22.2185 h -121.5735 v -210.6032 l 182.3872,105.293 z m -128.6317,-245.2091 -35.744,-61.8943 h 142.9588 z m 7.0564,769.3126 v -53.6844 l 46.4795,80.5104 z m 68.8024,65.4994 39.8619,69.0444 h -108.6625 v -108.7687 z m -68.8006,91.2602 h 121.4925 l 60.8209,105.3569 -182.3161,105.249 z m 107.5226,-68.9067 80.872,46.6882 h -53.9201 z m -22.3229,-38.6653 -85.2033,-147.6041 v -170.4065 l 85.332,-147.7859 147.7138,-85.2761 h 170.2509 l 147.703,85.2707 85.3481,147.8075 v 170.3705 l -85.2158,147.6266 -147.8461,85.3481 h -170.2266 z m 482.2037,-482.1047 -39.8296,-68.967 h 108.7758 v 108.7687 z m 68.9453,65.5732 v 53.8211 l -46.6278,-80.7461 z m -121.6022,-156.7587 -60.8065,-105.2985 182.4087,-105.3038 v 210.6023 z m 13.9375,68.8356 -80.7514,-46.6171 h 53.8328 z m 61.1475,482.1155 46.5154,-80.576 v 53.723 z m 46.5154,-1.0797 v 108.7759 h -108.6912 l 39.8575,-69.0327 z m -107.5333,62.0805 -26.9519,46.6954 h -53.9264 z m -13.987,68.9121 h 121.5203 v 210.6023 L 2135.7998,2176.03 Z m 128.5597,245.2315 35.6612,61.7729 h -142.6709 z m -145.8892,-1255.5262 -157.0664,-90.67809 214.7428,-123.99459 123.9415,214.67268 z m 127.7311,99.4772 -182.4483,105.3228 -105.3695,-182.4754 h 154.2053 z m -136.2919,229.9508 h -79.49 l -68.9562,-39.8071 94.0961,-54.3214 z m -124.1286,0 h -93.2729 l 46.6387,-26.925 z m -137.9178,0 h -79.4936 l 54.3483,-94.1339 94.1105,54.3268 z m -33.3444,-124.6388 -182.4249,-105.3147 133.608,-77.149 h 154.1873 z m -10.1479,-204.7892 123.6212,-71.37735 v 71.37735 z m 112.5043,-90.68349 -157.0673,90.68349 H 1639.0234 L 1762.9595,845.72012 Z M 1774.0809,826.46617 1904.45,600.66403 h 84.3539 v 349.75984 z m -154.3817,222.86003 -174.9249,-302.89352 73.1237,-42.21295 225.7805,130.36909 z m 0.01,44.5298 35.744,61.8888 -107.2094,61.8943 z m 39.7801,318.1851 v 121.6355 l -105.2948,60.7832 -105.2967,-182.4205 z m -52.7288,318.2508 -60.7687,105.2382 -182.3656,-105.2832 182.3377,-105.2597 z m -52.5435,135.7593 105.2669,60.7795 v 121.632 h -210.5861 z m 101.2236,438.7275 -35.7269,61.8889 -71.4573,-123.7678 z m -35.7188,106.4294 123.964,214.7096 -225.8984,130.4374 -72.9815,-42.1526 z m 19.2477,-11.2023 h 181.4316 l 157.286,90.8013 -214.7149,123.9811 z m 53.9426,-99.3568 182.3601,-105.2759 105.2544,182.3161 h -154.1909 z m 136.1767,-229.9678 h 79.5872 l 68.9562,39.8125 -94.1779,54.3708 z m 124.2438,0 h 93.2594 l -46.6279,26.9187 z m 137.9124,0 h 79.5818 l -54.3601,94.1726 -94.1779,-54.3655 z m 33.3993,124.6829 182.3727,105.2822 -133.42,77.0393 h -154.2116 z m 10.3017,204.639 -123.8317,71.4987 v -71.4987 z m -112.7184,90.7968 157.2806,-90.7959 h 181.4532 l -123.9982,214.7878 z m 203.6061,143.2611 -130.3691,225.8084 h -84.3539 v -349.767 z m 154.3646,-222.8313 174.897,302.9791 -72.9671,42.1409 -225.884,-130.4275 z m -35.7269,-106.4573 107.204,-61.8888 -71.4708,123.7939 z m -4.0379,-256.3097 v -121.6418 l 105.2669,-60.7742 105.3291,182.416 z m 52.7009,-318.1744 60.8011,-105.3146 182.3539,105.2669 -182.3773,105.2931 z m 52.5903,-135.8231 -105.293,-60.785 v -121.6418 h 210.5969 z m -101.2551,-438.7168 35.7494,-61.9005 71.4762,123.8101 z m -88.22,-321.16678 225.7643,-130.36099 73.1129,42.20755 -174.9051,302.87462 z m 248.1745,-143.29893 123.8533,-71.51496 -61.9437,107.25894 z m 112.5412,-90.61956 -134.7597,77.79768 -134.7436,-77.79768 z M 2459.7908,691.39785 2245.1245,815.32316 2121.183,600.66313 h 181.4424 z M 2263.7297,578.20797 h -155.5072 l -77.7473,-134.66164 z m -252.6227,-123.67788 71.4052,123.67788 h -71.4052 z m 0,146.13304 h 84.3701 l 130.361,225.79134 -214.7311,123.9694 z m 0,388.34333 123.6212,71.38364 H 2011.107 Z m 94.1105,287.35634 -105.2598,60.7624 -105.267,-60.7687 105.2598,-182.299 z M 1988.8048,578.20887 h -71.389 l 71.3845,-123.65179 z M 1969.4654,443.52474 1891.701,578.20797 H 1736.1722 Z M 1697.2765,600.66313 H 1878.736 L 1754.7945,815.33576 1540.1111,691.39785 Z m -44.8707,0 -134.7274,77.78599 -134.7435,-77.78599 z m -156.9288,90.60876 -61.9159,35.74399 -61.9437,-107.26434 z m -143.0137,-60.12093 61.8106,107.00612 -61.8106,35.6837 z m 0,168.5765 73.0193,-42.15267 174.8916,302.81801 h -247.9109 z m 0,282.98994 h 247.9496 l -90.7518,157.1879 -157.1978,90.7509 z m 0,286.6501 61.834,35.6999 -61.834,107.0997 z m 0,187.3572 77.0446,-133.4479 105.2931,182.3727 -182.3377,105.267 z m 0,192.8482 182.3602,105.2822 -105.3093,182.3728 -77.05,-133.4533 z m 0,198.7476 61.8502,107.1213 -61.8502,35.7053 z m 0,181.5414 157.2203,90.7707 90.6744,157.0557 h -247.8947 z m 0,270.1349 h 247.9991 l -174.9519,303.0645 -73.0472,-42.1851 z m 0,286.6419 61.8943,35.7332 -61.8943,107.2094 z m 81.1905,46.8753 61.8394,35.7053 -123.6779,71.4106 z m -50.7351,126.3473 134.793,-77.8138 134.7777,77.8138 z m 157.0826,-90.6726 214.7977,-124.0081 123.9532,214.6879 h -181.7429 z m 195.874,113.1233 h 155.8365 l 77.9623,135.0287 z m 252.925,123.6347 -71.3836,-123.6347 h 71.3836 z m 0,-146.0782 h -84.3377 l -130.3817,-225.8183 214.7149,-123.9532 z m 0,-388.3658 -123.8209,-71.4987 h 123.8209 z m -94.1887,-287.3014 105.3425,-60.8209 105.3425,60.8119 -105.3488,182.5005 z m 116.4954,698.1107 h 71.3971 l -71.3944,123.6617 z m 19.164,135.0071 77.9452,-135.0071 h 155.814 z m 272.6225,-157.4506 h -181.7276 l 123.9469,-214.6726 214.7869,123.9964 z m 44.5469,0 134.7651,-77.8084 134.7777,77.8084 z m 156.9845,-90.642 61.8277,-35.6945 61.8169,107.0889 z m 143.0299,60.4061 -61.9105,-107.2463 61.9105,-35.744 z m 0,-168.7627 -73.0634,42.1968 -174.9465,-303.0618 h 248.0099 z m 0,-283.1825 h -247.8902 l 90.6852,-157.0718 157.2086,-90.7573 z m 0,-286.5268 -61.8502,-35.7107 61.8502,-107.1258 z m 0,-187.3788 -77.0671,133.4803 -105.3237,-182.398 182.3872,-105.2984 z m 0,-192.8536 -182.3656,-105.2823 105.3039,-182.397 77.0617,133.4749 z m 0,-198.7575 -61.8394,-107.1051 61.8394,-35.6999 z m 0,-181.5091 -157.187,-90.7401 -90.7626,-157.2041 h 247.9496 z m 0,-270.2751 h -247.9217 l 174.8862,-302.81981 73.0364,42.16347 z m 0,-286.52682 -61.8286,-35.6909 61.8277,-107.06101 z m 355.7133,390.13372 107.0943,-61.8277 -71.3944,123.6536 z m 22.8168,84.1398 -130.361,225.8004 -214.6492,-123.9217 302.8746,-174.8638 z m -34.0246,-103.5467 -35.7269,-61.8718 h 142.8932 z m 107.0007,-84.1937 h -155.6161 l -77.8255,-134.76515 z m -429.2112,-429.26343 134.7651,233.41375 -134.7651,-77.80309 z m 0,181.47305 157.1654,90.72932 90.6744,157.06106 h -247.8398 z m 0,270.11318 h 260.7382 l 42.158,73.0256 -302.8962,174.8764 z m 0,286.6042 214.6987,123.9694 -123.9469,214.6843 -90.7518,-157.1869 z m 0,226.0226 71.4268,123.7166 h -71.4268 z m 0,146.017 h 71.4763 l -71.4763,123.8011 z m 0,168.3506 90.7518,-157.1869 123.9532,214.6987 -214.705,123.9775 z m 314.0914,375.6663 -302.8719,-174.8637 214.6663,-123.9253 130.3556,225.7859 z m 8.1497,30.5706 106.935,61.7405 h -142.5773 z m -322.2411,-186.0445 302.8918,174.8745 -42.0978,72.9096 h -260.794 z m 0,699.4999 v -155.6278 l 134.7777,-77.8192 z m 157.1267,-272.1556 -157.1267,90.7455 v -247.9873 h 247.9109 z m 38.731,-22.367 77.858,-134.8748 h 155.6773 z m 137.5822,-238.3352 35.6945,-61.834 71.3998,123.6617 z m 126.4184,50.7243 -77.858,-134.8479 77.858,-134.8677 z m 0,-314.3739 -90.7518,157.1869 -123.9244,-214.6366 214.6726,-123.9307 z m 0,-207.2248 -225.857,130.4105 -123.9658,-214.7194 h 349.8264 z m 0,-106.6111 h -349.7832 l 123.9145,-214.6277 225.8687,130.4213 z m 0,-110.0481 -214.6852,-123.9406 123.9307,-214.6547 90.7572,157.1924 z m 0,-226.055 -77.8742,-134.8587 77.8742,-134.8748 z m 22.3229,264.7869 123.5132,71.3171 H 3151.931 Z m 0,93.6184 h 123.6887 l -123.6896,71.4213 z m 0,252.8701 v -155.5999 l 134.7435,-77.7914 z m 0,-372.3365 v -155.6214 l 134.7705,233.4299 z" id="rnd1" inkscape:connector-curvature="0" style="fill:#66d3f1;stroke-width:89.97176361"/>
</svg>