<?xml version="1.0" encoding="UTF-8" standalone="no"?>
<!DOCTYPE svg PUBLIC "-//W3C//DTD SVG 1.1//EN" "http://www.w3.org/Graphics/SVG/1.1/DTD/svg11.dtd">
<svg width="100%" height="100%" viewBox="0 0 1920 1080" version="1.1" xmlns="http://www.w3.org/2000/svg" xmlns:xlink="http://www.w3.org/1999/xlink" xml:space="preserve" xmlns:serif="http://www.serif.com/" style="fill-rule:evenodd;clip-rule:evenodd;stroke-linecap:round;stroke-linejoin:round;stroke-miterlimit:1.5;">
    <g id="Layer1" transform="matrix(1,0,0,1,-0.115759,0)">
        <g transform="matrix(1,0,0,1,0.115759,0)">
            <path d="M955.5,15.541L955.5,2.25C955.5,1.008 956.508,0 957.75,0L962.25,0C963.492,0 964.5,1.008 964.5,2.25L964.5,15.541C972.747,17.56 978.875,25.008 978.875,33.875C978.875,35.162 978.746,36.418 978.5,37.634L978.5,54.969C991.559,61.693 1000.5,75.311 1000.5,91C1000.5,113.353 982.353,131.5 960,131.5C937.647,131.5 919.5,113.353 919.5,91C919.5,75.311 928.441,61.693 941.5,54.969L941.5,37.634C941.254,36.418 941.125,35.162 941.125,33.875C941.125,25.008 947.253,17.56 955.5,15.541Z" style="fill:rgb(97,218,251);stroke:rgb(97,218,251);stroke-width:1px;"/>
        </g>
        <g transform="matrix(1,0,0,1,-0.536965,-0.258917)">
            <path d="M1028.54,90.388C1028.54,89.356 1027.7,88.518 1026.67,88.518L1014.87,88.518C1013.84,88.518 1013,89.356 1013,90.388L1013,94.129C1013,95.162 1013.84,96 1014.87,96L1026.67,96C1027.7,96 1028.54,95.162 1028.54,94.129L1028.54,90.388Z" style="fill:rgb(97,218,251);stroke:rgb(97,218,251);stroke-width:1px;"/>
        </g>
        <g transform="matrix(6.12323e-17,1,-1,6.12323e-17,1052.26,-869.037)">
            <path d="M1028.54,90.388C1028.54,89.356 1027.7,88.518 1026.67,88.518L1014.87,88.518C1013.84,88.518 1013,89.356 1013,90.388L1013,94.129C1013,95.162 1013.84,96 1014.87,96L1026.67,96C1027.7,96 1028.54,95.162 1028.54,94.129L1028.54,90.388Z" style="fill:rgb(97,218,251);stroke:rgb(97,218,251);stroke-width:1px;"/>
        </g>
        <g transform="matrix(1,0,0,1,-120.768,-0.258917)">
            <path d="M1028.54,90.388C1028.54,89.356 1027.7,88.518 1026.67,88.518L1014.87,88.518C1013.84,88.518 1013,89.356 1013,90.388L1013,94.129C1013,95.162 1013.84,96 1014.87,96L1026.67,96C1027.7,96 1028.54,95.162 1028.54,94.129L1028.54,90.388Z" style="fill:rgb(97,218,251);stroke:rgb(97,218,251);stroke-width:1px;"/>
        </g>
        <g transform="matrix(0.707107,0.707107,-0.707107,0.707107,346.081,-652.666)">
            <path d="M1028.54,90.388C1028.54,89.356 1027.7,88.518 1026.67,88.518L1014.87,88.518C1013.84,88.518 1013,89.356 1013,90.388L1013,94.129C1013,95.162 1013.84,96 1014.87,96L1026.67,96C1027.7,96 1028.54,95.162 1028.54,94.129L1028.54,90.388Z" style="fill:rgb(97,218,251);stroke:rgb(97,218,251);stroke-width:1px;"/>
        </g>
        <g transform="matrix(-0.707107,0.707107,-0.707107,-0.707107,1704.67,-522.419)">
            <path d="M1028.54,90.388C1028.54,89.356 1027.7,88.518 1026.67,88.518L1014.87,88.518C1013.84,88.518 1013,89.356 1013,90.388L1013,94.129C1013,95.162 1013.84,96 1014.87,96L1026.67,96C1027.7,96 1028.54,95.162 1028.54,94.129L1028.54,90.388Z" style="fill:rgb(97,218,251);stroke:rgb(97,218,251);stroke-width:1px;"/>
        </g>
        <g transform="matrix(1,0,0,1,10.1158,-13)">
            <g transform="matrix(72,0,0,72,904,250.4)">
                <path d="M0.341,-0.661C0.346,-0.661 0.351,-0.658 0.356,-0.652C0.36,-0.647 0.362,-0.642 0.362,-0.636C0.362,-0.628 0.358,-0.617 0.349,-0.603C0.345,-0.596 0.329,-0.574 0.301,-0.535C0.172,-0.357 0.088,-0.196 0.051,-0.052C0.047,-0.029 0.038,-0.018 0.025,-0.018C0.018,-0.018 0.011,-0.021 0.006,-0.028C0.001,-0.034 -0.002,-0.041 -0.002,-0.049C-0.002,-0.065 0.006,-0.095 0.021,-0.139C0.057,-0.241 0.121,-0.362 0.214,-0.503C0.252,-0.561 0.282,-0.605 0.306,-0.634C0.321,-0.652 0.333,-0.661 0.341,-0.661Z" style="fill:rgb(97,218,251);fill-rule:nonzero;"/>
            </g>
            <g transform="matrix(72,0,0,72,920.242,250.4)">
                <path d="M0.168,-0.323C0.201,-0.391 0.232,-0.451 0.261,-0.501C0.289,-0.55 0.308,-0.581 0.318,-0.593C0.329,-0.607 0.339,-0.614 0.349,-0.614C0.354,-0.614 0.359,-0.612 0.363,-0.608C0.367,-0.604 0.369,-0.599 0.369,-0.594C0.369,-0.587 0.364,-0.574 0.353,-0.557C0.305,-0.48 0.262,-0.403 0.223,-0.325C0.177,-0.233 0.154,-0.165 0.154,-0.119C0.154,-0.101 0.158,-0.086 0.165,-0.075C0.166,-0.073 0.172,-0.068 0.183,-0.06C0.185,-0.058 0.186,-0.055 0.186,-0.05C0.186,-0.043 0.183,-0.037 0.178,-0.032C0.173,-0.027 0.167,-0.024 0.161,-0.024C0.154,-0.024 0.145,-0.028 0.136,-0.038C0.123,-0.051 0.115,-0.066 0.113,-0.083C0.112,-0.09 0.111,-0.103 0.109,-0.123C0.075,-0.061 0.043,-0.03 0.012,-0.03C-0.006,-0.03 -0.021,-0.04 -0.031,-0.061C-0.038,-0.074 -0.042,-0.089 -0.042,-0.106C-0.042,-0.157 -0.023,-0.208 0.014,-0.259C0.05,-0.31 0.09,-0.335 0.132,-0.335C0.144,-0.335 0.156,-0.331 0.168,-0.323ZM0.152,-0.283C0.143,-0.289 0.135,-0.292 0.129,-0.292C0.102,-0.292 0.076,-0.275 0.051,-0.242C0.019,-0.198 0.003,-0.156 0.003,-0.115C0.003,-0.11 0.004,-0.106 0.006,-0.102C0.01,-0.093 0.016,-0.089 0.023,-0.089C0.035,-0.089 0.049,-0.1 0.065,-0.123C0.087,-0.152 0.107,-0.187 0.125,-0.227C0.132,-0.24 0.138,-0.254 0.145,-0.268L0.152,-0.283Z" style="fill:rgb(97,218,251);fill-rule:nonzero;"/>
            </g>
            <g transform="matrix(72,0,0,72,939.051,250.4)">
                <path d="M0.01,-0.132L0.01,-0.123C0.01,-0.116 0.012,-0.11 0.015,-0.104C0.023,-0.092 0.037,-0.086 0.055,-0.086C0.096,-0.086 0.143,-0.118 0.196,-0.18C0.206,-0.191 0.214,-0.196 0.22,-0.196C0.224,-0.196 0.227,-0.194 0.23,-0.191C0.232,-0.188 0.233,-0.186 0.233,-0.184C0.233,-0.171 0.217,-0.149 0.186,-0.119C0.162,-0.095 0.136,-0.076 0.108,-0.061C0.08,-0.046 0.055,-0.039 0.031,-0.039C0.006,-0.039 -0.013,-0.047 -0.027,-0.064C-0.036,-0.076 -0.041,-0.092 -0.041,-0.112C-0.041,-0.167 -0.015,-0.221 0.037,-0.273C0.079,-0.316 0.115,-0.338 0.146,-0.338C0.155,-0.338 0.163,-0.335 0.169,-0.33C0.178,-0.323 0.182,-0.314 0.182,-0.303C0.182,-0.286 0.174,-0.265 0.158,-0.24C0.125,-0.188 0.076,-0.152 0.01,-0.132ZM0.021,-0.17C0.043,-0.178 0.061,-0.187 0.074,-0.196C0.097,-0.214 0.115,-0.234 0.128,-0.256C0.133,-0.264 0.136,-0.271 0.136,-0.277C0.136,-0.283 0.133,-0.287 0.126,-0.287C0.118,-0.287 0.106,-0.28 0.09,-0.268C0.062,-0.245 0.039,-0.213 0.021,-0.17Z" style="fill:rgb(97,218,251);fill-rule:nonzero;"/>
            </g>
            <g transform="matrix(72,0,0,72,958.809,250.4)">
                <path d="M0.115,-0.119C0.104,-0.1 0.094,-0.084 0.083,-0.071C0.063,-0.045 0.043,-0.033 0.022,-0.033C0.005,-0.033 -0.009,-0.041 -0.019,-0.058C-0.025,-0.068 -0.028,-0.081 -0.028,-0.096C-0.028,-0.132 -0.016,-0.172 0.006,-0.215C0.032,-0.264 0.062,-0.301 0.098,-0.327C0.122,-0.344 0.144,-0.353 0.166,-0.353C0.18,-0.353 0.191,-0.348 0.2,-0.34C0.208,-0.332 0.212,-0.324 0.212,-0.314C0.212,-0.307 0.209,-0.297 0.204,-0.285C0.208,-0.278 0.211,-0.272 0.211,-0.267C0.211,-0.26 0.206,-0.249 0.197,-0.233C0.188,-0.217 0.178,-0.196 0.169,-0.169C0.159,-0.141 0.154,-0.119 0.154,-0.102C0.154,-0.088 0.158,-0.077 0.166,-0.068C0.168,-0.066 0.175,-0.062 0.186,-0.057C0.194,-0.053 0.198,-0.046 0.198,-0.037C0.198,-0.03 0.196,-0.025 0.191,-0.021C0.187,-0.017 0.181,-0.015 0.174,-0.015C0.157,-0.015 0.142,-0.023 0.129,-0.039C0.118,-0.051 0.113,-0.067 0.113,-0.086C0.113,-0.093 0.114,-0.104 0.115,-0.119ZM0.176,-0.279C0.172,-0.286 0.168,-0.292 0.164,-0.295C0.159,-0.299 0.154,-0.3 0.149,-0.3C0.124,-0.3 0.097,-0.279 0.068,-0.235C0.036,-0.188 0.021,-0.147 0.021,-0.114C0.021,-0.106 0.022,-0.099 0.025,-0.095C0.028,-0.091 0.033,-0.089 0.039,-0.089C0.055,-0.089 0.073,-0.105 0.094,-0.139C0.105,-0.157 0.12,-0.184 0.137,-0.219C0.149,-0.242 0.157,-0.258 0.162,-0.265C0.165,-0.269 0.169,-0.274 0.176,-0.279Z" style="fill:rgb(97,218,251);fill-rule:nonzero;"/>
            </g>
            <g transform="matrix(72,0,0,72,977.441,250.4)">
                <path d="M0.196,-0.362C0.216,-0.362 0.231,-0.359 0.241,-0.352C0.251,-0.344 0.256,-0.333 0.256,-0.319C0.256,-0.3 0.249,-0.281 0.235,-0.263C0.221,-0.246 0.201,-0.233 0.173,-0.222C0.158,-0.217 0.146,-0.214 0.136,-0.214C0.122,-0.214 0.115,-0.22 0.115,-0.232C0.115,-0.24 0.119,-0.246 0.127,-0.25C0.129,-0.251 0.14,-0.254 0.16,-0.259C0.172,-0.261 0.183,-0.267 0.193,-0.276C0.202,-0.283 0.207,-0.292 0.207,-0.3C0.207,-0.307 0.205,-0.312 0.201,-0.315C0.197,-0.319 0.191,-0.32 0.183,-0.32C0.164,-0.32 0.143,-0.313 0.121,-0.297C0.094,-0.28 0.081,-0.26 0.081,-0.236C0.081,-0.219 0.09,-0.198 0.107,-0.172C0.126,-0.145 0.136,-0.121 0.136,-0.102C0.136,-0.073 0.123,-0.051 0.098,-0.035C0.082,-0.025 0.064,-0.02 0.044,-0.02C0.013,-0.02 -0.011,-0.031 -0.027,-0.053C-0.038,-0.069 -0.044,-0.088 -0.044,-0.11C-0.044,-0.135 -0.037,-0.157 -0.024,-0.174C-0.016,-0.185 -0.007,-0.191 0.002,-0.191C0.01,-0.191 0.014,-0.188 0.014,-0.181C0.014,-0.179 0.013,-0.175 0.01,-0.169C0.002,-0.155 -0.001,-0.139 -0.001,-0.12C-0.001,-0.104 0.004,-0.091 0.016,-0.08C0.026,-0.07 0.037,-0.065 0.05,-0.065C0.063,-0.065 0.073,-0.069 0.08,-0.078C0.086,-0.085 0.089,-0.094 0.089,-0.105C0.089,-0.119 0.081,-0.136 0.065,-0.158C0.044,-0.188 0.033,-0.215 0.033,-0.24C0.033,-0.272 0.051,-0.301 0.086,-0.326C0.121,-0.35 0.157,-0.362 0.196,-0.362Z" style="fill:rgb(97,218,251);fill-rule:nonzero;"/>
            </g>
        </g>
        <g transform="matrix(1,0,0,1,0.115759,1.13687e-13)">
            <path d="M1260,302.5C1260,290.082 1249.92,280 1237.5,280L682.5,280C670.082,280 660,290.082 660,302.5L660,347.5C660,359.918 670.082,370 682.5,370L1237.5,370C1249.92,370 1260,359.918 1260,347.5L1260,302.5Z" style="fill:none;stroke:rgb(97,218,251);stroke-width:1px;"/>
        </g>
        <g transform="matrix(1,0,0,1,10.1158,-2.37914)">
            <g transform="matrix(36,0,0,36,690,335.2)">
                <path d="M0.083,-0.057C0.102,-0.081 0.119,-0.105 0.134,-0.128C0.142,-0.141 0.165,-0.178 0.201,-0.237L0.242,-0.305C0.273,-0.355 0.293,-0.387 0.303,-0.401C0.32,-0.425 0.336,-0.437 0.353,-0.437C0.364,-0.437 0.37,-0.432 0.37,-0.423C0.37,-0.417 0.368,-0.409 0.363,-0.4C0.36,-0.393 0.351,-0.371 0.336,-0.332C0.321,-0.293 0.309,-0.249 0.301,-0.2C0.295,-0.166 0.292,-0.136 0.292,-0.112C0.292,-0.105 0.293,-0.097 0.294,-0.088C0.295,-0.08 0.296,-0.07 0.297,-0.06C0.31,-0.076 0.325,-0.099 0.34,-0.13C0.355,-0.16 0.378,-0.209 0.41,-0.276C0.439,-0.34 0.474,-0.406 0.514,-0.475C0.546,-0.531 0.585,-0.589 0.63,-0.646C0.652,-0.674 0.668,-0.688 0.681,-0.688C0.687,-0.688 0.692,-0.685 0.696,-0.679C0.7,-0.675 0.701,-0.671 0.701,-0.666C0.701,-0.66 0.691,-0.643 0.671,-0.618C0.631,-0.567 0.593,-0.511 0.557,-0.45C0.516,-0.379 0.464,-0.278 0.402,-0.147C0.374,-0.089 0.353,-0.047 0.338,-0.022C0.323,0.003 0.306,0.016 0.286,0.016C0.269,0.016 0.256,0.008 0.248,-0.007C0.239,-0.021 0.235,-0.043 0.235,-0.073C0.235,-0.12 0.243,-0.178 0.258,-0.248C0.243,-0.229 0.225,-0.202 0.205,-0.167C0.189,-0.14 0.174,-0.115 0.16,-0.091C0.139,-0.056 0.125,-0.033 0.119,-0.021C0.108,-0.002 0.097,0.012 0.086,0.023C0.078,0.031 0.069,0.035 0.058,0.035C0.044,0.035 0.035,0.029 0.029,0.018C0.025,0.01 0.022,0 0.022,-0.011C0.022,-0.089 0.063,-0.228 0.145,-0.428C0.184,-0.526 0.207,-0.586 0.214,-0.608C0.22,-0.629 0.226,-0.643 0.231,-0.649C0.239,-0.657 0.248,-0.662 0.259,-0.662C0.273,-0.662 0.28,-0.655 0.28,-0.641C0.28,-0.625 0.274,-0.599 0.262,-0.565C0.248,-0.527 0.225,-0.473 0.194,-0.402C0.173,-0.354 0.158,-0.318 0.149,-0.293C0.11,-0.174 0.088,-0.095 0.083,-0.057Z" style="fill:rgb(97,218,251);fill-rule:nonzero;"/>
            </g>
            <g transform="matrix(36,0,0,36,710.004,335.2)">
                <path d="M0.061,-0.199C0.092,-0.233 0.129,-0.266 0.171,-0.299C0.186,-0.311 0.202,-0.321 0.219,-0.332C0.227,-0.336 0.233,-0.339 0.235,-0.339C0.24,-0.339 0.245,-0.335 0.25,-0.328C0.252,-0.324 0.254,-0.321 0.254,-0.317C0.254,-0.312 0.248,-0.304 0.235,-0.293C0.202,-0.267 0.186,-0.247 0.186,-0.234C0.186,-0.226 0.19,-0.223 0.198,-0.223C0.212,-0.223 0.236,-0.234 0.271,-0.257C0.276,-0.261 0.281,-0.263 0.285,-0.263C0.288,-0.263 0.29,-0.262 0.293,-0.259C0.296,-0.256 0.297,-0.253 0.297,-0.25C0.297,-0.24 0.284,-0.225 0.256,-0.205C0.228,-0.184 0.201,-0.173 0.175,-0.173C0.164,-0.173 0.155,-0.176 0.146,-0.181C0.139,-0.186 0.135,-0.194 0.135,-0.206C0.135,-0.214 0.138,-0.223 0.145,-0.233C0.119,-0.215 0.089,-0.184 0.054,-0.14C0.034,-0.112 0.014,-0.079 -0.006,-0.039C-0.013,-0.024 -0.023,-0.016 -0.034,-0.016C-0.046,-0.016 -0.052,-0.022 -0.052,-0.033C-0.052,-0.044 -0.042,-0.074 -0.023,-0.122C0.005,-0.194 0.034,-0.249 0.064,-0.289C0.083,-0.313 0.099,-0.325 0.112,-0.325C0.116,-0.325 0.12,-0.324 0.124,-0.321C0.128,-0.318 0.13,-0.314 0.13,-0.309C0.13,-0.304 0.127,-0.297 0.12,-0.289C0.119,-0.287 0.11,-0.276 0.094,-0.256C0.08,-0.237 0.068,-0.218 0.061,-0.199Z" style="fill:rgb(97,218,251);fill-rule:nonzero;"/>
            </g>
            <g transform="matrix(36,0,0,36,721.008,335.2)">
                <path d="M0.1,-0.331C0.105,-0.331 0.11,-0.328 0.113,-0.324C0.116,-0.321 0.117,-0.317 0.117,-0.313C0.117,-0.308 0.112,-0.298 0.103,-0.284C0.069,-0.232 0.045,-0.189 0.031,-0.155C0.015,-0.12 0.002,-0.084 -0.01,-0.047C-0.015,-0.031 -0.023,-0.023 -0.034,-0.023C-0.041,-0.023 -0.046,-0.026 -0.05,-0.031C-0.053,-0.035 -0.055,-0.04 -0.055,-0.044C-0.055,-0.054 -0.045,-0.087 -0.024,-0.142C-0.008,-0.186 0.019,-0.234 0.055,-0.287C0.067,-0.304 0.076,-0.315 0.082,-0.321C0.087,-0.327 0.093,-0.331 0.1,-0.331ZM0.192,-0.512C0.207,-0.512 0.214,-0.504 0.214,-0.489C0.214,-0.476 0.207,-0.46 0.193,-0.444C0.179,-0.428 0.166,-0.42 0.153,-0.42C0.147,-0.42 0.142,-0.422 0.138,-0.427C0.134,-0.431 0.132,-0.436 0.132,-0.442C0.132,-0.458 0.141,-0.475 0.158,-0.492C0.171,-0.505 0.182,-0.512 0.192,-0.512Z" style="fill:rgb(97,218,251);fill-rule:nonzero;"/>
            </g>
            <g transform="matrix(36,0,0,36,725.754,335.2)">
                <path d="M0.15,-0.353C0.129,-0.32 0.11,-0.283 0.092,-0.242C0.066,-0.184 0.053,-0.141 0.053,-0.112C0.053,-0.104 0.055,-0.098 0.058,-0.094C0.062,-0.09 0.067,-0.087 0.074,-0.087C0.09,-0.087 0.11,-0.103 0.133,-0.133C0.147,-0.152 0.16,-0.171 0.172,-0.19C0.178,-0.201 0.185,-0.206 0.192,-0.206C0.196,-0.206 0.2,-0.205 0.203,-0.202C0.205,-0.199 0.207,-0.196 0.207,-0.193C0.207,-0.181 0.191,-0.154 0.159,-0.112C0.121,-0.062 0.087,-0.037 0.056,-0.037C0.039,-0.037 0.025,-0.045 0.014,-0.06C0.007,-0.07 0.004,-0.084 0.004,-0.102C0.004,-0.141 0.015,-0.187 0.038,-0.239C0.044,-0.252 0.059,-0.284 0.084,-0.333C0.075,-0.331 0.069,-0.33 0.064,-0.33C0.057,-0.33 0.051,-0.332 0.046,-0.335C0.039,-0.34 0.035,-0.345 0.035,-0.352C0.035,-0.36 0.04,-0.367 0.049,-0.372C0.052,-0.373 0.064,-0.375 0.085,-0.378C0.093,-0.379 0.105,-0.382 0.12,-0.387C0.131,-0.408 0.15,-0.436 0.175,-0.471C0.19,-0.49 0.2,-0.503 0.205,-0.509C0.213,-0.517 0.22,-0.521 0.226,-0.521C0.23,-0.521 0.234,-0.519 0.238,-0.514C0.242,-0.51 0.244,-0.506 0.244,-0.501C0.244,-0.493 0.235,-0.476 0.217,-0.451C0.205,-0.435 0.196,-0.422 0.19,-0.412C0.226,-0.421 0.252,-0.426 0.268,-0.426C0.285,-0.426 0.294,-0.419 0.294,-0.404C0.294,-0.396 0.291,-0.391 0.285,-0.387C0.282,-0.385 0.273,-0.384 0.26,-0.382C0.254,-0.383 0.23,-0.376 0.186,-0.364C0.174,-0.36 0.162,-0.356 0.15,-0.353Z" style="fill:rgb(97,218,251);fill-rule:nonzero;"/>
            </g>
            <g transform="matrix(36,0,0,36,734.543,335.2)">
                <path d="M0.01,-0.132L0.01,-0.123C0.01,-0.116 0.012,-0.11 0.015,-0.104C0.023,-0.092 0.037,-0.086 0.055,-0.086C0.096,-0.086 0.143,-0.118 0.196,-0.18C0.206,-0.191 0.214,-0.196 0.22,-0.196C0.224,-0.196 0.227,-0.194 0.23,-0.191C0.232,-0.188 0.233,-0.186 0.233,-0.184C0.233,-0.171 0.217,-0.149 0.186,-0.119C0.162,-0.095 0.136,-0.076 0.108,-0.061C0.08,-0.046 0.055,-0.039 0.031,-0.039C0.006,-0.039 -0.013,-0.047 -0.027,-0.064C-0.036,-0.076 -0.041,-0.092 -0.041,-0.112C-0.041,-0.167 -0.015,-0.221 0.037,-0.273C0.079,-0.316 0.115,-0.338 0.146,-0.338C0.155,-0.338 0.163,-0.335 0.169,-0.33C0.178,-0.323 0.182,-0.314 0.182,-0.303C0.182,-0.286 0.174,-0.265 0.158,-0.24C0.125,-0.188 0.076,-0.152 0.01,-0.132ZM0.021,-0.17C0.043,-0.178 0.061,-0.187 0.074,-0.196C0.097,-0.214 0.115,-0.234 0.128,-0.256C0.133,-0.264 0.136,-0.271 0.136,-0.277C0.136,-0.283 0.133,-0.287 0.126,-0.287C0.118,-0.287 0.106,-0.28 0.09,-0.268C0.062,-0.245 0.039,-0.213 0.021,-0.17Z" style="fill:rgb(97,218,251);fill-rule:nonzero;"/>
            </g>
            <g transform="matrix(36,0,0,36,753.422,335.2)">
                <path d="M0.147,-0.175C0.118,-0.141 0.095,-0.115 0.078,-0.099C0.043,-0.066 0.015,-0.05 -0.008,-0.05C-0.019,-0.05 -0.028,-0.054 -0.034,-0.062C-0.039,-0.069 -0.042,-0.077 -0.042,-0.086C-0.042,-0.122 -0.021,-0.168 0.021,-0.227C0.063,-0.286 0.094,-0.315 0.113,-0.315C0.118,-0.315 0.123,-0.313 0.126,-0.309C0.13,-0.305 0.132,-0.301 0.132,-0.296C0.132,-0.289 0.13,-0.282 0.126,-0.277C0.122,-0.272 0.112,-0.26 0.094,-0.241C0.076,-0.222 0.059,-0.201 0.043,-0.179C0.025,-0.153 0.016,-0.135 0.016,-0.123C0.016,-0.116 0.019,-0.113 0.026,-0.113C0.039,-0.113 0.063,-0.131 0.099,-0.166C0.122,-0.188 0.139,-0.207 0.152,-0.223C0.154,-0.226 0.166,-0.241 0.186,-0.269C0.204,-0.293 0.215,-0.308 0.22,-0.313C0.229,-0.324 0.239,-0.33 0.247,-0.33C0.252,-0.33 0.257,-0.327 0.261,-0.323C0.265,-0.319 0.267,-0.314 0.267,-0.308C0.267,-0.299 0.261,-0.283 0.248,-0.261C0.232,-0.234 0.218,-0.208 0.205,-0.185C0.184,-0.149 0.168,-0.116 0.157,-0.087C0.178,-0.099 0.197,-0.114 0.214,-0.132C0.244,-0.161 0.262,-0.183 0.268,-0.197C0.274,-0.21 0.281,-0.217 0.287,-0.217C0.296,-0.217 0.301,-0.212 0.301,-0.203C0.301,-0.186 0.286,-0.16 0.257,-0.126C0.222,-0.085 0.178,-0.05 0.127,-0.021C0.1,0.044 0.074,0.099 0.049,0.142C0.004,0.222 -0.043,0.262 -0.092,0.262C-0.112,0.262 -0.128,0.254 -0.14,0.239C-0.149,0.227 -0.154,0.212 -0.154,0.194C-0.154,0.144 -0.118,0.092 -0.047,0.039C-0.026,0.023 0.005,0.003 0.046,-0.02C0.063,-0.029 0.076,-0.037 0.085,-0.043C0.091,-0.058 0.1,-0.078 0.112,-0.103C0.125,-0.129 0.137,-0.153 0.147,-0.175ZM0.057,0.017C0.023,0.035 -0.013,0.06 -0.049,0.092C-0.085,0.126 -0.104,0.157 -0.104,0.186C-0.104,0.192 -0.102,0.197 -0.098,0.202C-0.093,0.208 -0.087,0.21 -0.079,0.21C-0.055,0.21 -0.028,0.185 0.002,0.134C0.007,0.125 0.02,0.097 0.042,0.049C0.047,0.04 0.052,0.029 0.057,0.017Z" style="fill:rgb(97,218,251);fill-rule:nonzero;"/>
            </g>
            <g transform="matrix(36,0,0,36,765.568,335.2)">
                <path d="M0.16,-0.353C0.187,-0.353 0.2,-0.337 0.2,-0.304C0.2,-0.261 0.18,-0.206 0.14,-0.14C0.097,-0.068 0.054,-0.032 0.014,-0.032C-0.005,-0.032 -0.019,-0.041 -0.028,-0.058C-0.032,-0.067 -0.035,-0.077 -0.035,-0.09C-0.035,-0.132 -0.02,-0.177 0.008,-0.226C0.035,-0.271 0.066,-0.306 0.103,-0.331C0.124,-0.346 0.143,-0.353 0.16,-0.353ZM0.109,-0.168C0.101,-0.175 0.097,-0.18 0.097,-0.184C0.097,-0.186 0.102,-0.193 0.113,-0.205C0.142,-0.238 0.157,-0.264 0.157,-0.285C0.157,-0.287 0.156,-0.29 0.154,-0.292C0.152,-0.297 0.148,-0.3 0.142,-0.3C0.132,-0.3 0.116,-0.29 0.096,-0.27C0.07,-0.243 0.05,-0.217 0.037,-0.189C0.021,-0.157 0.013,-0.131 0.013,-0.11C0.013,-0.105 0.014,-0.1 0.017,-0.096C0.021,-0.09 0.027,-0.087 0.033,-0.087C0.049,-0.087 0.066,-0.099 0.083,-0.122C0.091,-0.132 0.098,-0.142 0.103,-0.152C0.107,-0.163 0.11,-0.168 0.109,-0.168Z" style="fill:rgb(97,218,251);fill-rule:nonzero;"/>
            </g>
            <g transform="matrix(36,0,0,36,773.918,335.2)">
                <path d="M0.108,-0.113C0.094,-0.093 0.082,-0.078 0.071,-0.066C0.052,-0.045 0.033,-0.035 0.015,-0.035C-0.001,-0.035 -0.014,-0.042 -0.022,-0.056C-0.029,-0.066 -0.032,-0.078 -0.032,-0.092C-0.032,-0.134 -0.014,-0.182 0.022,-0.237C0.039,-0.262 0.055,-0.282 0.071,-0.295C0.084,-0.306 0.094,-0.311 0.103,-0.311C0.107,-0.311 0.111,-0.309 0.115,-0.305C0.118,-0.302 0.12,-0.298 0.12,-0.294C0.12,-0.288 0.114,-0.278 0.102,-0.264C0.075,-0.232 0.055,-0.202 0.041,-0.175C0.024,-0.144 0.016,-0.119 0.016,-0.101C0.016,-0.097 0.017,-0.093 0.019,-0.091C0.021,-0.088 0.024,-0.087 0.028,-0.087C0.045,-0.087 0.068,-0.111 0.098,-0.158C0.113,-0.183 0.126,-0.21 0.137,-0.24C0.143,-0.257 0.151,-0.271 0.16,-0.284C0.169,-0.295 0.178,-0.301 0.187,-0.301C0.192,-0.301 0.196,-0.299 0.2,-0.294C0.204,-0.29 0.207,-0.285 0.207,-0.279C0.207,-0.268 0.195,-0.241 0.173,-0.2C0.158,-0.172 0.15,-0.148 0.15,-0.129C0.15,-0.109 0.155,-0.092 0.166,-0.078C0.169,-0.074 0.178,-0.068 0.193,-0.059C0.2,-0.055 0.204,-0.048 0.204,-0.039C0.204,-0.033 0.201,-0.028 0.196,-0.023C0.191,-0.019 0.185,-0.017 0.178,-0.017C0.161,-0.017 0.147,-0.024 0.133,-0.037C0.121,-0.048 0.114,-0.065 0.11,-0.087C0.11,-0.09 0.109,-0.099 0.108,-0.113Z" style="fill:rgb(97,218,251);fill-rule:nonzero;"/>
            </g>
            <g transform="matrix(36,0,0,36,783.27,335.2)">
                <path d="M0.061,-0.199C0.092,-0.233 0.129,-0.266 0.171,-0.299C0.186,-0.311 0.202,-0.321 0.219,-0.332C0.227,-0.336 0.233,-0.339 0.235,-0.339C0.24,-0.339 0.245,-0.335 0.25,-0.328C0.252,-0.324 0.254,-0.321 0.254,-0.317C0.254,-0.312 0.248,-0.304 0.235,-0.293C0.202,-0.267 0.186,-0.247 0.186,-0.234C0.186,-0.226 0.19,-0.223 0.198,-0.223C0.212,-0.223 0.236,-0.234 0.271,-0.257C0.276,-0.261 0.281,-0.263 0.285,-0.263C0.288,-0.263 0.29,-0.262 0.293,-0.259C0.296,-0.256 0.297,-0.253 0.297,-0.25C0.297,-0.24 0.284,-0.225 0.256,-0.205C0.228,-0.184 0.201,-0.173 0.175,-0.173C0.164,-0.173 0.155,-0.176 0.146,-0.181C0.139,-0.186 0.135,-0.194 0.135,-0.206C0.135,-0.214 0.138,-0.223 0.145,-0.233C0.119,-0.215 0.089,-0.184 0.054,-0.14C0.034,-0.112 0.014,-0.079 -0.006,-0.039C-0.013,-0.024 -0.023,-0.016 -0.034,-0.016C-0.046,-0.016 -0.052,-0.022 -0.052,-0.033C-0.052,-0.044 -0.042,-0.074 -0.023,-0.122C0.005,-0.194 0.034,-0.249 0.064,-0.289C0.083,-0.313 0.099,-0.325 0.112,-0.325C0.116,-0.325 0.12,-0.324 0.124,-0.321C0.128,-0.318 0.13,-0.314 0.13,-0.309C0.13,-0.304 0.127,-0.297 0.12,-0.289C0.119,-0.287 0.11,-0.276 0.094,-0.256C0.08,-0.237 0.068,-0.218 0.061,-0.199Z" style="fill:rgb(97,218,251);fill-rule:nonzero;"/>
            </g>
            <g transform="matrix(36,0,0,36,803.273,335.2)">
                <path d="M0.1,-0.331C0.105,-0.331 0.11,-0.328 0.113,-0.324C0.116,-0.321 0.117,-0.317 0.117,-0.313C0.117,-0.308 0.112,-0.298 0.103,-0.284C0.069,-0.232 0.045,-0.189 0.031,-0.155C0.015,-0.12 0.002,-0.084 -0.01,-0.047C-0.015,-0.031 -0.023,-0.023 -0.034,-0.023C-0.041,-0.023 -0.046,-0.026 -0.05,-0.031C-0.053,-0.035 -0.055,-0.04 -0.055,-0.044C-0.055,-0.054 -0.045,-0.087 -0.024,-0.142C-0.008,-0.186 0.019,-0.234 0.055,-0.287C0.067,-0.304 0.076,-0.315 0.082,-0.321C0.087,-0.327 0.093,-0.331 0.1,-0.331ZM0.192,-0.512C0.207,-0.512 0.214,-0.504 0.214,-0.489C0.214,-0.476 0.207,-0.46 0.193,-0.444C0.179,-0.428 0.166,-0.42 0.153,-0.42C0.147,-0.42 0.142,-0.422 0.138,-0.427C0.134,-0.431 0.132,-0.436 0.132,-0.442C0.132,-0.458 0.141,-0.475 0.158,-0.492C0.171,-0.505 0.182,-0.512 0.192,-0.512Z" style="fill:rgb(97,218,251);fill-rule:nonzero;"/>
            </g>
            <g transform="matrix(36,0,0,36,808.02,335.2)">
                <path d="M0.168,-0.323C0.201,-0.391 0.232,-0.451 0.261,-0.501C0.289,-0.55 0.308,-0.581 0.318,-0.593C0.329,-0.607 0.339,-0.614 0.349,-0.614C0.354,-0.614 0.359,-0.612 0.363,-0.608C0.367,-0.604 0.369,-0.599 0.369,-0.594C0.369,-0.587 0.364,-0.574 0.353,-0.557C0.305,-0.48 0.262,-0.403 0.223,-0.325C0.177,-0.233 0.154,-0.165 0.154,-0.119C0.154,-0.101 0.158,-0.086 0.165,-0.075C0.166,-0.073 0.172,-0.068 0.183,-0.06C0.185,-0.058 0.186,-0.055 0.186,-0.05C0.186,-0.043 0.183,-0.037 0.178,-0.032C0.173,-0.027 0.167,-0.024 0.161,-0.024C0.154,-0.024 0.145,-0.028 0.136,-0.038C0.123,-0.051 0.115,-0.066 0.113,-0.083C0.112,-0.09 0.111,-0.103 0.109,-0.123C0.075,-0.061 0.043,-0.03 0.012,-0.03C-0.006,-0.03 -0.021,-0.04 -0.031,-0.061C-0.038,-0.074 -0.042,-0.089 -0.042,-0.106C-0.042,-0.157 -0.023,-0.208 0.014,-0.259C0.05,-0.31 0.09,-0.335 0.132,-0.335C0.144,-0.335 0.156,-0.331 0.168,-0.323ZM0.152,-0.283C0.143,-0.289 0.135,-0.292 0.129,-0.292C0.102,-0.292 0.076,-0.275 0.051,-0.242C0.019,-0.198 0.003,-0.156 0.003,-0.115C0.003,-0.11 0.004,-0.106 0.006,-0.102C0.01,-0.093 0.016,-0.089 0.023,-0.089C0.035,-0.089 0.049,-0.1 0.065,-0.123C0.087,-0.152 0.107,-0.187 0.125,-0.227C0.132,-0.24 0.138,-0.254 0.145,-0.268L0.152,-0.283Z" style="fill:rgb(97,218,251);fill-rule:nonzero;"/>
            </g>
            <g transform="matrix(36,0,0,36,817.424,335.2)">
                <path d="M0.01,-0.132L0.01,-0.123C0.01,-0.116 0.012,-0.11 0.015,-0.104C0.023,-0.092 0.037,-0.086 0.055,-0.086C0.096,-0.086 0.143,-0.118 0.196,-0.18C0.206,-0.191 0.214,-0.196 0.22,-0.196C0.224,-0.196 0.227,-0.194 0.23,-0.191C0.232,-0.188 0.233,-0.186 0.233,-0.184C0.233,-0.171 0.217,-0.149 0.186,-0.119C0.162,-0.095 0.136,-0.076 0.108,-0.061C0.08,-0.046 0.055,-0.039 0.031,-0.039C0.006,-0.039 -0.013,-0.047 -0.027,-0.064C-0.036,-0.076 -0.041,-0.092 -0.041,-0.112C-0.041,-0.167 -0.015,-0.221 0.037,-0.273C0.079,-0.316 0.115,-0.338 0.146,-0.338C0.155,-0.338 0.163,-0.335 0.169,-0.33C0.178,-0.323 0.182,-0.314 0.182,-0.303C0.182,-0.286 0.174,-0.265 0.158,-0.24C0.125,-0.188 0.076,-0.152 0.01,-0.132ZM0.021,-0.17C0.043,-0.178 0.061,-0.187 0.074,-0.196C0.097,-0.214 0.115,-0.234 0.128,-0.256C0.133,-0.264 0.136,-0.271 0.136,-0.277C0.136,-0.283 0.133,-0.287 0.126,-0.287C0.118,-0.287 0.106,-0.28 0.09,-0.268C0.062,-0.245 0.039,-0.213 0.021,-0.17Z" style="fill:rgb(97,218,251);fill-rule:nonzero;"/>
            </g>
            <g transform="matrix(36,0,0,36,827.303,335.2)">
                <path d="M0.115,-0.119C0.104,-0.1 0.094,-0.084 0.083,-0.071C0.063,-0.045 0.043,-0.033 0.022,-0.033C0.005,-0.033 -0.009,-0.041 -0.019,-0.058C-0.025,-0.068 -0.028,-0.081 -0.028,-0.096C-0.028,-0.132 -0.016,-0.172 0.006,-0.215C0.032,-0.264 0.062,-0.301 0.098,-0.327C0.122,-0.344 0.144,-0.353 0.166,-0.353C0.18,-0.353 0.191,-0.348 0.2,-0.34C0.208,-0.332 0.212,-0.324 0.212,-0.314C0.212,-0.307 0.209,-0.297 0.204,-0.285C0.208,-0.278 0.211,-0.272 0.211,-0.267C0.211,-0.26 0.206,-0.249 0.197,-0.233C0.188,-0.217 0.178,-0.196 0.169,-0.169C0.159,-0.141 0.154,-0.119 0.154,-0.102C0.154,-0.088 0.158,-0.077 0.166,-0.068C0.168,-0.066 0.175,-0.062 0.186,-0.057C0.194,-0.053 0.198,-0.046 0.198,-0.037C0.198,-0.03 0.196,-0.025 0.191,-0.021C0.187,-0.017 0.181,-0.015 0.174,-0.015C0.157,-0.015 0.142,-0.023 0.129,-0.039C0.118,-0.051 0.113,-0.067 0.113,-0.086C0.113,-0.093 0.114,-0.104 0.115,-0.119ZM0.176,-0.279C0.172,-0.286 0.168,-0.292 0.164,-0.295C0.159,-0.299 0.154,-0.3 0.149,-0.3C0.124,-0.3 0.097,-0.279 0.068,-0.235C0.036,-0.188 0.021,-0.147 0.021,-0.114C0.021,-0.106 0.022,-0.099 0.025,-0.095C0.028,-0.091 0.033,-0.089 0.039,-0.089C0.055,-0.089 0.073,-0.105 0.094,-0.139C0.105,-0.157 0.12,-0.184 0.137,-0.219C0.149,-0.242 0.157,-0.258 0.162,-0.265C0.165,-0.269 0.169,-0.274 0.176,-0.279Z" style="fill:rgb(97,218,251);fill-rule:nonzero;"/>
            </g>
            <g transform="matrix(36,0,0,36,836.619,335.2)">
                <path d="M0.196,-0.362C0.216,-0.362 0.231,-0.359 0.241,-0.352C0.251,-0.344 0.256,-0.333 0.256,-0.319C0.256,-0.3 0.249,-0.281 0.235,-0.263C0.221,-0.246 0.201,-0.233 0.173,-0.222C0.158,-0.217 0.146,-0.214 0.136,-0.214C0.122,-0.214 0.115,-0.22 0.115,-0.232C0.115,-0.24 0.119,-0.246 0.127,-0.25C0.129,-0.251 0.14,-0.254 0.16,-0.259C0.172,-0.261 0.183,-0.267 0.193,-0.276C0.202,-0.283 0.207,-0.292 0.207,-0.3C0.207,-0.307 0.205,-0.312 0.201,-0.315C0.197,-0.319 0.191,-0.32 0.183,-0.32C0.164,-0.32 0.143,-0.313 0.121,-0.297C0.094,-0.28 0.081,-0.26 0.081,-0.236C0.081,-0.219 0.09,-0.198 0.107,-0.172C0.126,-0.145 0.136,-0.121 0.136,-0.102C0.136,-0.073 0.123,-0.051 0.098,-0.035C0.082,-0.025 0.064,-0.02 0.044,-0.02C0.013,-0.02 -0.011,-0.031 -0.027,-0.053C-0.038,-0.069 -0.044,-0.088 -0.044,-0.11C-0.044,-0.135 -0.037,-0.157 -0.024,-0.174C-0.016,-0.185 -0.007,-0.191 0.002,-0.191C0.01,-0.191 0.014,-0.188 0.014,-0.181C0.014,-0.179 0.013,-0.175 0.01,-0.169C0.002,-0.155 -0.001,-0.139 -0.001,-0.12C-0.001,-0.104 0.004,-0.091 0.016,-0.08C0.026,-0.07 0.037,-0.065 0.05,-0.065C0.063,-0.065 0.073,-0.069 0.08,-0.078C0.086,-0.085 0.089,-0.094 0.089,-0.105C0.089,-0.119 0.081,-0.136 0.065,-0.158C0.044,-0.188 0.033,-0.215 0.033,-0.24C0.033,-0.272 0.051,-0.301 0.086,-0.326C0.121,-0.35 0.157,-0.362 0.196,-0.362Z" style="fill:rgb(97,218,251);fill-rule:nonzero;"/>
            </g>
            <g transform="matrix(36,0,0,36,845.777,335.2)">
                <path d="M0.018,-0.074C0.025,-0.074 0.031,-0.07 0.036,-0.064C0.039,-0.06 0.041,-0.054 0.041,-0.048C0.041,-0.033 0.036,-0.016 0.028,0C0.019,0.018 0.007,0.027 -0.007,0.027C-0.022,0.027 -0.029,0.019 -0.029,0.002C-0.029,-0.015 -0.024,-0.032 -0.014,-0.05C-0.004,-0.066 0.006,-0.074 0.018,-0.074Z" style="fill:rgb(97,218,251);fill-rule:nonzero;"/>
            </g>
            <g transform="matrix(36,0,0,36,853.213,335.2)">
                <path d="M0.018,-0.074C0.025,-0.074 0.031,-0.07 0.036,-0.064C0.039,-0.06 0.041,-0.054 0.041,-0.048C0.041,-0.033 0.036,-0.016 0.028,0C0.019,0.018 0.007,0.027 -0.007,0.027C-0.022,0.027 -0.029,0.019 -0.029,0.002C-0.029,-0.015 -0.024,-0.032 -0.014,-0.05C-0.004,-0.066 0.006,-0.074 0.018,-0.074Z" style="fill:rgb(97,218,251);fill-rule:nonzero;"/>
            </g>
            <g transform="matrix(36,0,0,36,860.648,335.2)">
                <path d="M0.018,-0.074C0.025,-0.074 0.031,-0.07 0.036,-0.064C0.039,-0.06 0.041,-0.054 0.041,-0.048C0.041,-0.033 0.036,-0.016 0.028,0C0.019,0.018 0.007,0.027 -0.007,0.027C-0.022,0.027 -0.029,0.019 -0.029,0.002C-0.029,-0.015 -0.024,-0.032 -0.014,-0.05C-0.004,-0.066 0.006,-0.074 0.018,-0.074Z" style="fill:rgb(97,218,251);fill-rule:nonzero;"/>
            </g>
        </g>
        <g transform="matrix(1,0,0,1,0.115759,0)">
            <path d="M883.5,500.25L892,500.25L892,507.75L883.5,507.75L883.5,515.5L876,515.5L876,507.75L868.5,507.75L868.5,500.25L876,500.25L876,492L883.5,492L883.5,500.25Z" style="fill:rgb(97,218,251);stroke:rgb(97,218,251);stroke-width:1px;"/>
        </g>
        <g transform="matrix(1,0,0,1,-27.8842,40.25)">
            <path d="M883.5,500.25L892,500.25L892,507.75L883.5,507.75L883.5,515.5L876,515.5L876,507.75L868.5,507.75L868.5,500.25L876,500.25L876,492L883.5,492L883.5,500.25Z" style="fill:rgb(97,218,251);stroke:rgb(97,218,251);stroke-width:1px;"/>
        </g>
        <g transform="matrix(1,0,0,1,20.1158,80.25)">
            <path d="M883.5,500.25L892,500.25L892,507.75L883.5,507.75L883.5,515.5L876,515.5L876,507.75L868.5,507.75L868.5,500.25L876,500.25L876,492L883.5,492L883.5,500.25Z" style="fill:rgb(97,218,251);stroke:rgb(97,218,251);stroke-width:1px;"/>
        </g>
        <g transform="matrix(1,0,0,1,160.116,60.25)">
            <path d="M883.5,500.25L892,500.25L892,507.75L883.5,507.75L883.5,515.5L876,515.5L876,507.75L868.5,507.75L868.5,500.25L876,500.25L876,492L883.5,492L883.5,500.25Z" style="fill:rgb(97,218,251);stroke:rgb(97,218,251);stroke-width:1px;"/>
        </g>
        <g transform="matrix(1,0,0,1,188.116,16.25)">
            <path d="M883.5,500.25L892,500.25L892,507.75L883.5,507.75L883.5,515.5L876,515.5L876,507.75L868.5,507.75L868.5,500.25L876,500.25L876,492L883.5,492L883.5,500.25Z" style="fill:rgb(97,218,251);stroke:rgb(97,218,251);stroke-width:1px;"/>
        </g>
        <g transform="matrix(1,0,0,1,156.116,-23.75)">
            <path d="M883.5,500.25L892,500.25L892,507.75L883.5,507.75L883.5,515.5L876,515.5L876,507.75L868.5,507.75L868.5,500.25L876,500.25L876,492L883.5,492L883.5,500.25Z" style="fill:rgb(97,218,251);stroke:rgb(97,218,251);stroke-width:1px;"/>
        </g>
        <g transform="matrix(1,0,0,1,0.115759,0)">
            <rect x="912" y="512" width="8" height="8" style="fill:rgb(97,218,251);stroke:rgb(97,218,251);stroke-width:1px;"/>
        </g>
        <g transform="matrix(1,0,0,1,44.1158,-44)">
            <rect x="912" y="512" width="8" height="8" style="fill:rgb(97,218,251);stroke:rgb(97,218,251);stroke-width:1px;"/>
        </g>
        <g transform="matrix(1,0,0,1,88.1158,0)">
            <rect x="912" y="512" width="8" height="8" style="fill:rgb(97,218,251);stroke:rgb(97,218,251);stroke-width:1px;"/>
        </g>
        <g transform="matrix(0.866025,0.5,-0.5,0.866025,463.493,-366.869)">
            <rect x="912" y="512" width="8" height="8" style="fill:rgb(97,218,251);stroke:rgb(97,218,251);stroke-width:1px;"/>
        </g>
        <g transform="matrix(0.866025,0.5,-0.5,0.866025,386.836,-411.333)">
            <rect x="912" y="512" width="8" height="8" style="fill:rgb(97,218,251);stroke:rgb(97,218,251);stroke-width:1px;"/>
        </g>
        <g transform="matrix(0.866025,-0.5,0.5,0.866025,-129.199,549.167)">
            <rect x="912" y="512" width="8" height="8" style="fill:rgb(97,218,251);stroke:rgb(97,218,251);stroke-width:1px;"/>
        </g>
        <g transform="matrix(0.866025,-0.5,0.5,0.866025,-53.1635,505.131)">
            <rect x="912" y="512" width="8" height="8" style="fill:rgb(97,218,251);stroke:rgb(97,218,251);stroke-width:1px;"/>
        </g>
        <g transform="matrix(0.5,-0.866025,0.866025,0.5,77.7825,1012.74)">
            <rect x="912" y="512" width="8" height="8" style="fill:rgb(97,218,251);stroke:rgb(97,218,251);stroke-width:1px;"/>
        </g>
        <g transform="matrix(0.866025,-0.5,0.5,0.866025,-113.628,488.095)">
            <rect x="912" y="512" width="8" height="8" style="fill:rgb(97,218,251);stroke:rgb(97,218,251);stroke-width:1px;"/>
        </g>
        <g transform="matrix(0.952547,0,0,0.952547,51.8626,34.6723)">
            <circle cx="953.5" cy="504.5" r="36.5" style="fill:none;stroke:rgb(97,218,251);stroke-width:5.25px;"/>
        </g>
        <g transform="matrix(1,0,0,0.77907,-0.384241,129.302)">
            <path d="M980,550.75C980,544.817 976.247,540 971.625,540L949.375,540C944.753,540 941,544.817 941,550.75L941,572.25C941,578.183 944.753,583 949.375,583L971.625,583C976.247,583 980,578.183 980,572.25L980,550.75Z" style="fill:none;stroke:rgb(97,218,251);stroke-width:5.58px;"/>
        </g>
        <g transform="matrix(1,0,0,1,-1.13424,-4.51795)">
            <circle cx="961.25" cy="519.75" r="11.25" style="fill:none;stroke:rgb(97,218,251);stroke-width:5px;"/>
        </g>
        <g transform="matrix(1,0,0,1,0.115759,0)">
            <path d="M960,526.482L960,549.5" style="fill:none;stroke:rgb(97,218,251);stroke-width:5px;"/>
        </g>
        <g transform="matrix(1,0,0,1,-6.88424,-2)">
            <path d="M976,653L976,599C976,599 975.473,593.26 967,593" style="fill:none;stroke:rgb(97,218,251);stroke-width:5px;"/>
        </g>
        <g transform="matrix(-1,0,0,1,1926.86,-2)">
            <path d="M976,638L976,599C976,599 975.473,593.26 967,593" style="fill:none;stroke:rgb(97,218,251);stroke-width:5px;"/>
        </g>
        <g transform="matrix(1,0,0,1,-6.88424,-1.5)">
            <path d="M988,707L988,698.628C988,696.894 988.349,695.177 989.027,693.581C990.215,690.783 992.181,686.153 993.53,682.974C994.49,680.713 994.785,678.226 994.381,675.803C993.73,671.899 992.735,665.936 992.264,663.115C992.089,662.066 991.746,661.051 991.246,660.112C991.246,660.112 991.246,660.111 991.246,660.111C989.234,656.324 985.372,653.881 981.088,653.686C976.672,653.485 971.232,653.238 968.239,653.102C966.76,653.035 965.281,653.249 963.882,653.733C963.881,653.733 963.881,653.734 963.88,653.734C959.903,655.111 957.151,658.753 956.914,662.955C956.676,667.158 959,671.087 962.797,672.903C962.93,672.966 963,673 963,673C963,673 963,673 963,673C966.369,672.102 969.963,672.934 972.594,675.22C975.225,677.507 976.549,680.95 976.129,684.411C976.048,685.08 976,685.477 976,685.477" style="fill:none;stroke:rgb(97,218,251);stroke-width:5px;"/>
        </g>
        <g transform="matrix(1,0,0,1,-6.88424,-1.5)">
            <path d="M966,652L950,624C950,624 940.93,621.796 938,626C935.07,630.204 937.166,638.28 940,642C942.794,645.667 956.897,664 956.897,664" style="fill:none;stroke:rgb(97,218,251);stroke-width:5px;"/>
        </g>
        <g transform="matrix(1,0,0,1,-6.88424,-1.5)">
            <path d="M936.996,635L923,636C923,636 919.227,640.059 920,644C920.773,647.941 929.64,657.618 932,660C934.36,662.382 958.529,689.252 954,661.529" style="fill:none;stroke:rgb(97,218,251);stroke-width:5px;"/>
        </g>
        <g transform="matrix(1,0,0,1,-6.88424,-1.5)">
            <path d="M921,647L911,648C911,648 900.348,657.02 917,669C933.652,680.98 945.786,693.515 945,672" style="fill:none;stroke:rgb(97,218,251);stroke-width:5px;"/>
        </g>
        <g transform="matrix(1,0,0,1,-6.88424,-1.5)">
            <path d="M907,654.5C907,654.5 908.491,678.739 913.5,686.5C918.509,694.261 921.882,702.377 920.5,706" style="fill:none;stroke:rgb(97,218,251);stroke-width:5px;"/>
        </g>
        <g transform="matrix(1,0,0,1,-4.88424,-12.3964)">
            <g transform="matrix(64,0,0,64,750,784.8)">
                <path d="M0.341,-0.661C0.346,-0.661 0.351,-0.658 0.356,-0.652C0.36,-0.647 0.362,-0.642 0.362,-0.636C0.362,-0.628 0.358,-0.617 0.349,-0.603C0.345,-0.596 0.329,-0.574 0.301,-0.535C0.172,-0.357 0.088,-0.196 0.051,-0.052C0.047,-0.029 0.038,-0.018 0.025,-0.018C0.018,-0.018 0.011,-0.021 0.006,-0.028C0.001,-0.034 -0.002,-0.041 -0.002,-0.049C-0.002,-0.065 0.006,-0.095 0.021,-0.139C0.057,-0.241 0.121,-0.362 0.214,-0.503C0.252,-0.561 0.282,-0.605 0.306,-0.634C0.321,-0.652 0.333,-0.661 0.341,-0.661Z" style="fill:rgb(97,218,251);fill-rule:nonzero;"/>
            </g>
            <g transform="matrix(64,0,0,64,764.438,784.8)">
                <path d="M0.168,-0.323C0.201,-0.391 0.232,-0.451 0.261,-0.501C0.289,-0.55 0.308,-0.581 0.318,-0.593C0.329,-0.607 0.339,-0.614 0.349,-0.614C0.354,-0.614 0.359,-0.612 0.363,-0.608C0.367,-0.604 0.369,-0.599 0.369,-0.594C0.369,-0.587 0.364,-0.574 0.353,-0.557C0.305,-0.48 0.262,-0.403 0.223,-0.325C0.177,-0.233 0.154,-0.165 0.154,-0.119C0.154,-0.101 0.158,-0.086 0.165,-0.075C0.166,-0.073 0.172,-0.068 0.183,-0.06C0.185,-0.058 0.186,-0.055 0.186,-0.05C0.186,-0.043 0.183,-0.037 0.178,-0.032C0.173,-0.027 0.167,-0.024 0.161,-0.024C0.154,-0.024 0.145,-0.028 0.136,-0.038C0.123,-0.051 0.115,-0.066 0.113,-0.083C0.112,-0.09 0.111,-0.103 0.109,-0.123C0.075,-0.061 0.043,-0.03 0.012,-0.03C-0.006,-0.03 -0.021,-0.04 -0.031,-0.061C-0.038,-0.074 -0.042,-0.089 -0.042,-0.106C-0.042,-0.157 -0.023,-0.208 0.014,-0.259C0.05,-0.31 0.09,-0.335 0.132,-0.335C0.144,-0.335 0.156,-0.331 0.168,-0.323ZM0.152,-0.283C0.143,-0.289 0.135,-0.292 0.129,-0.292C0.102,-0.292 0.076,-0.275 0.051,-0.242C0.019,-0.198 0.003,-0.156 0.003,-0.115C0.003,-0.11 0.004,-0.106 0.006,-0.102C0.01,-0.093 0.016,-0.089 0.023,-0.089C0.035,-0.089 0.049,-0.1 0.065,-0.123C0.087,-0.152 0.107,-0.187 0.125,-0.227C0.132,-0.24 0.138,-0.254 0.145,-0.268L0.152,-0.283Z" style="fill:rgb(97,218,251);fill-rule:nonzero;"/>
            </g>
            <g transform="matrix(64,0,0,64,781.156,784.8)">
                <path d="M0.01,-0.132L0.01,-0.123C0.01,-0.116 0.012,-0.11 0.015,-0.104C0.023,-0.092 0.037,-0.086 0.055,-0.086C0.096,-0.086 0.143,-0.118 0.196,-0.18C0.206,-0.191 0.214,-0.196 0.22,-0.196C0.224,-0.196 0.227,-0.194 0.23,-0.191C0.232,-0.188 0.233,-0.186 0.233,-0.184C0.233,-0.171 0.217,-0.149 0.186,-0.119C0.162,-0.095 0.136,-0.076 0.108,-0.061C0.08,-0.046 0.055,-0.039 0.031,-0.039C0.006,-0.039 -0.013,-0.047 -0.027,-0.064C-0.036,-0.076 -0.041,-0.092 -0.041,-0.112C-0.041,-0.167 -0.015,-0.221 0.037,-0.273C0.079,-0.316 0.115,-0.338 0.146,-0.338C0.155,-0.338 0.163,-0.335 0.169,-0.33C0.178,-0.323 0.182,-0.314 0.182,-0.303C0.182,-0.286 0.174,-0.265 0.158,-0.24C0.125,-0.188 0.076,-0.152 0.01,-0.132ZM0.021,-0.17C0.043,-0.178 0.061,-0.187 0.074,-0.196C0.097,-0.214 0.115,-0.234 0.128,-0.256C0.133,-0.264 0.136,-0.271 0.136,-0.277C0.136,-0.283 0.133,-0.287 0.126,-0.287C0.118,-0.287 0.106,-0.28 0.09,-0.268C0.062,-0.245 0.039,-0.213 0.021,-0.17Z" style="fill:rgb(97,218,251);fill-rule:nonzero;"/>
            </g>
            <g transform="matrix(64,0,0,64,798.719,784.8)">
                <path d="M0.115,-0.119C0.104,-0.1 0.094,-0.084 0.083,-0.071C0.063,-0.045 0.043,-0.033 0.022,-0.033C0.005,-0.033 -0.009,-0.041 -0.019,-0.058C-0.025,-0.068 -0.028,-0.081 -0.028,-0.096C-0.028,-0.132 -0.016,-0.172 0.006,-0.215C0.032,-0.264 0.062,-0.301 0.098,-0.327C0.122,-0.344 0.144,-0.353 0.166,-0.353C0.18,-0.353 0.191,-0.348 0.2,-0.34C0.208,-0.332 0.212,-0.324 0.212,-0.314C0.212,-0.307 0.209,-0.297 0.204,-0.285C0.208,-0.278 0.211,-0.272 0.211,-0.267C0.211,-0.26 0.206,-0.249 0.197,-0.233C0.188,-0.217 0.178,-0.196 0.169,-0.169C0.159,-0.141 0.154,-0.119 0.154,-0.102C0.154,-0.088 0.158,-0.077 0.166,-0.068C0.168,-0.066 0.175,-0.062 0.186,-0.057C0.194,-0.053 0.198,-0.046 0.198,-0.037C0.198,-0.03 0.196,-0.025 0.191,-0.021C0.187,-0.017 0.181,-0.015 0.174,-0.015C0.157,-0.015 0.142,-0.023 0.129,-0.039C0.118,-0.051 0.113,-0.067 0.113,-0.086C0.113,-0.093 0.114,-0.104 0.115,-0.119ZM0.176,-0.279C0.172,-0.286 0.168,-0.292 0.164,-0.295C0.159,-0.299 0.154,-0.3 0.149,-0.3C0.124,-0.3 0.097,-0.279 0.068,-0.235C0.036,-0.188 0.021,-0.147 0.021,-0.114C0.021,-0.106 0.022,-0.099 0.025,-0.095C0.028,-0.091 0.033,-0.089 0.039,-0.089C0.055,-0.089 0.073,-0.105 0.094,-0.139C0.105,-0.157 0.12,-0.184 0.137,-0.219C0.149,-0.242 0.157,-0.258 0.162,-0.265C0.165,-0.269 0.169,-0.274 0.176,-0.279Z" style="fill:rgb(97,218,251);fill-rule:nonzero;"/>
            </g>
            <g transform="matrix(64,0,0,64,815.281,784.8)">
                <path d="M0.196,-0.362C0.216,-0.362 0.231,-0.359 0.241,-0.352C0.251,-0.344 0.256,-0.333 0.256,-0.319C0.256,-0.3 0.249,-0.281 0.235,-0.263C0.221,-0.246 0.201,-0.233 0.173,-0.222C0.158,-0.217 0.146,-0.214 0.136,-0.214C0.122,-0.214 0.115,-0.22 0.115,-0.232C0.115,-0.24 0.119,-0.246 0.127,-0.25C0.129,-0.251 0.14,-0.254 0.16,-0.259C0.172,-0.261 0.183,-0.267 0.193,-0.276C0.202,-0.283 0.207,-0.292 0.207,-0.3C0.207,-0.307 0.205,-0.312 0.201,-0.315C0.197,-0.319 0.191,-0.32 0.183,-0.32C0.164,-0.32 0.143,-0.313 0.121,-0.297C0.094,-0.28 0.081,-0.26 0.081,-0.236C0.081,-0.219 0.09,-0.198 0.107,-0.172C0.126,-0.145 0.136,-0.121 0.136,-0.102C0.136,-0.073 0.123,-0.051 0.098,-0.035C0.082,-0.025 0.064,-0.02 0.044,-0.02C0.013,-0.02 -0.011,-0.031 -0.027,-0.053C-0.038,-0.069 -0.044,-0.088 -0.044,-0.11C-0.044,-0.135 -0.037,-0.157 -0.024,-0.174C-0.016,-0.185 -0.007,-0.191 0.002,-0.191C0.01,-0.191 0.014,-0.188 0.014,-0.181C0.014,-0.179 0.013,-0.175 0.01,-0.169C0.002,-0.155 -0.001,-0.139 -0.001,-0.12C-0.001,-0.104 0.004,-0.091 0.016,-0.08C0.026,-0.07 0.037,-0.065 0.05,-0.065C0.063,-0.065 0.073,-0.069 0.08,-0.078C0.086,-0.085 0.089,-0.094 0.089,-0.105C0.089,-0.119 0.081,-0.136 0.065,-0.158C0.044,-0.188 0.033,-0.215 0.033,-0.24C0.033,-0.272 0.051,-0.301 0.086,-0.326C0.121,-0.35 0.157,-0.362 0.196,-0.362Z" style="fill:rgb(97,218,251);fill-rule:nonzero;"/>
            </g>
            <g transform="matrix(64,0,0,64,847.563,784.8)">
                <path d="M0.147,-0.175C0.118,-0.141 0.095,-0.115 0.078,-0.099C0.043,-0.066 0.015,-0.05 -0.008,-0.05C-0.019,-0.05 -0.028,-0.054 -0.034,-0.062C-0.039,-0.069 -0.042,-0.077 -0.042,-0.086C-0.042,-0.122 -0.021,-0.168 0.021,-0.227C0.063,-0.286 0.094,-0.315 0.113,-0.315C0.118,-0.315 0.123,-0.313 0.126,-0.309C0.13,-0.305 0.132,-0.301 0.132,-0.296C0.132,-0.289 0.13,-0.282 0.126,-0.277C0.122,-0.272 0.112,-0.26 0.094,-0.241C0.076,-0.222 0.059,-0.201 0.043,-0.179C0.025,-0.153 0.016,-0.135 0.016,-0.123C0.016,-0.116 0.019,-0.113 0.026,-0.113C0.039,-0.113 0.063,-0.131 0.099,-0.166C0.122,-0.188 0.139,-0.207 0.152,-0.223C0.154,-0.226 0.166,-0.241 0.186,-0.269C0.204,-0.293 0.215,-0.308 0.22,-0.313C0.229,-0.324 0.239,-0.33 0.247,-0.33C0.252,-0.33 0.257,-0.327 0.261,-0.323C0.265,-0.319 0.267,-0.314 0.267,-0.308C0.267,-0.299 0.261,-0.283 0.248,-0.261C0.232,-0.234 0.218,-0.208 0.205,-0.185C0.184,-0.149 0.168,-0.116 0.157,-0.087C0.178,-0.099 0.197,-0.114 0.214,-0.132C0.244,-0.161 0.262,-0.183 0.268,-0.197C0.274,-0.21 0.281,-0.217 0.287,-0.217C0.296,-0.217 0.301,-0.212 0.301,-0.203C0.301,-0.186 0.286,-0.16 0.257,-0.126C0.222,-0.085 0.178,-0.05 0.127,-0.021C0.1,0.044 0.074,0.099 0.049,0.142C0.004,0.222 -0.043,0.262 -0.092,0.262C-0.112,0.262 -0.128,0.254 -0.14,0.239C-0.149,0.227 -0.154,0.212 -0.154,0.194C-0.154,0.144 -0.118,0.092 -0.047,0.039C-0.026,0.023 0.005,0.003 0.046,-0.02C0.063,-0.029 0.076,-0.037 0.085,-0.043C0.091,-0.058 0.1,-0.078 0.112,-0.103C0.125,-0.129 0.137,-0.153 0.147,-0.175ZM0.057,0.017C0.023,0.035 -0.013,0.06 -0.049,0.092C-0.085,0.126 -0.104,0.157 -0.104,0.186C-0.104,0.192 -0.102,0.197 -0.098,0.202C-0.093,0.208 -0.087,0.21 -0.079,0.21C-0.055,0.21 -0.028,0.185 0.002,0.134C0.007,0.125 0.02,0.097 0.042,0.049C0.047,0.04 0.052,0.029 0.057,0.017Z" style="fill:rgb(97,218,251);fill-rule:nonzero;"/>
            </g>
            <g transform="matrix(64,0,0,64,869.156,784.8)">
                <path d="M0.16,-0.353C0.187,-0.353 0.2,-0.337 0.2,-0.304C0.2,-0.261 0.18,-0.206 0.14,-0.14C0.097,-0.068 0.054,-0.032 0.014,-0.032C-0.005,-0.032 -0.019,-0.041 -0.028,-0.058C-0.032,-0.067 -0.035,-0.077 -0.035,-0.09C-0.035,-0.132 -0.02,-0.177 0.008,-0.226C0.035,-0.271 0.066,-0.306 0.103,-0.331C0.124,-0.346 0.143,-0.353 0.16,-0.353ZM0.109,-0.168C0.101,-0.175 0.097,-0.18 0.097,-0.184C0.097,-0.186 0.102,-0.193 0.113,-0.205C0.142,-0.238 0.157,-0.264 0.157,-0.285C0.157,-0.287 0.156,-0.29 0.154,-0.292C0.152,-0.297 0.148,-0.3 0.142,-0.3C0.132,-0.3 0.116,-0.29 0.096,-0.27C0.07,-0.243 0.05,-0.217 0.037,-0.189C0.021,-0.157 0.013,-0.131 0.013,-0.11C0.013,-0.105 0.014,-0.1 0.017,-0.096C0.021,-0.09 0.027,-0.087 0.033,-0.087C0.049,-0.087 0.066,-0.099 0.083,-0.122C0.091,-0.132 0.098,-0.142 0.103,-0.152C0.107,-0.163 0.11,-0.168 0.109,-0.168Z" style="fill:rgb(97,218,251);fill-rule:nonzero;"/>
            </g>
            <g transform="matrix(64,0,0,64,884,784.8)">
                <path d="M0.108,-0.113C0.094,-0.093 0.082,-0.078 0.071,-0.066C0.052,-0.045 0.033,-0.035 0.015,-0.035C-0.001,-0.035 -0.014,-0.042 -0.022,-0.056C-0.029,-0.066 -0.032,-0.078 -0.032,-0.092C-0.032,-0.134 -0.014,-0.182 0.022,-0.237C0.039,-0.262 0.055,-0.282 0.071,-0.295C0.084,-0.306 0.094,-0.311 0.103,-0.311C0.107,-0.311 0.111,-0.309 0.115,-0.305C0.118,-0.302 0.12,-0.298 0.12,-0.294C0.12,-0.288 0.114,-0.278 0.102,-0.264C0.075,-0.232 0.055,-0.202 0.041,-0.175C0.024,-0.144 0.016,-0.119 0.016,-0.101C0.016,-0.097 0.017,-0.093 0.019,-0.091C0.021,-0.088 0.024,-0.087 0.028,-0.087C0.045,-0.087 0.068,-0.111 0.098,-0.158C0.113,-0.183 0.126,-0.21 0.137,-0.24C0.143,-0.257 0.151,-0.271 0.16,-0.284C0.169,-0.295 0.178,-0.301 0.187,-0.301C0.192,-0.301 0.196,-0.299 0.2,-0.294C0.204,-0.29 0.207,-0.285 0.207,-0.279C0.207,-0.268 0.195,-0.241 0.173,-0.2C0.158,-0.172 0.15,-0.148 0.15,-0.129C0.15,-0.109 0.155,-0.092 0.166,-0.078C0.169,-0.074 0.178,-0.068 0.193,-0.059C0.2,-0.055 0.204,-0.048 0.204,-0.039C0.204,-0.033 0.201,-0.028 0.196,-0.023C0.191,-0.019 0.185,-0.017 0.178,-0.017C0.161,-0.017 0.147,-0.024 0.133,-0.037C0.121,-0.048 0.114,-0.065 0.11,-0.087C0.11,-0.09 0.109,-0.099 0.108,-0.113Z" style="fill:rgb(97,218,251);fill-rule:nonzero;"/>
            </g>
            <g transform="matrix(64,0,0,64,916.625,784.8)">
                <path d="M0.115,-0.119C0.104,-0.1 0.094,-0.084 0.083,-0.071C0.063,-0.045 0.043,-0.033 0.022,-0.033C0.005,-0.033 -0.009,-0.041 -0.019,-0.058C-0.025,-0.068 -0.028,-0.081 -0.028,-0.096C-0.028,-0.132 -0.016,-0.172 0.006,-0.215C0.032,-0.264 0.062,-0.301 0.098,-0.327C0.122,-0.344 0.144,-0.353 0.166,-0.353C0.18,-0.353 0.191,-0.348 0.2,-0.34C0.208,-0.332 0.212,-0.324 0.212,-0.314C0.212,-0.307 0.209,-0.297 0.204,-0.285C0.208,-0.278 0.211,-0.272 0.211,-0.267C0.211,-0.26 0.206,-0.249 0.197,-0.233C0.188,-0.217 0.178,-0.196 0.169,-0.169C0.159,-0.141 0.154,-0.119 0.154,-0.102C0.154,-0.088 0.158,-0.077 0.166,-0.068C0.168,-0.066 0.175,-0.062 0.186,-0.057C0.194,-0.053 0.198,-0.046 0.198,-0.037C0.198,-0.03 0.196,-0.025 0.191,-0.021C0.187,-0.017 0.181,-0.015 0.174,-0.015C0.157,-0.015 0.142,-0.023 0.129,-0.039C0.118,-0.051 0.113,-0.067 0.113,-0.086C0.113,-0.093 0.114,-0.104 0.115,-0.119ZM0.176,-0.279C0.172,-0.286 0.168,-0.292 0.164,-0.295C0.159,-0.299 0.154,-0.3 0.149,-0.3C0.124,-0.3 0.097,-0.279 0.068,-0.235C0.036,-0.188 0.021,-0.147 0.021,-0.114C0.021,-0.106 0.022,-0.099 0.025,-0.095C0.028,-0.091 0.033,-0.089 0.039,-0.089C0.055,-0.089 0.073,-0.105 0.094,-0.139C0.105,-0.157 0.12,-0.184 0.137,-0.219C0.149,-0.242 0.157,-0.258 0.162,-0.265C0.165,-0.269 0.169,-0.274 0.176,-0.279Z" style="fill:rgb(97,218,251);fill-rule:nonzero;"/>
            </g>
            <g transform="matrix(64,0,0,64,933.188,784.8)">
                <path d="M0.168,-0.323C0.201,-0.391 0.232,-0.451 0.261,-0.501C0.289,-0.55 0.308,-0.581 0.318,-0.593C0.329,-0.607 0.339,-0.614 0.349,-0.614C0.354,-0.614 0.359,-0.612 0.363,-0.608C0.367,-0.604 0.369,-0.599 0.369,-0.594C0.369,-0.587 0.364,-0.574 0.353,-0.557C0.305,-0.48 0.262,-0.403 0.223,-0.325C0.177,-0.233 0.154,-0.165 0.154,-0.119C0.154,-0.101 0.158,-0.086 0.165,-0.075C0.166,-0.073 0.172,-0.068 0.183,-0.06C0.185,-0.058 0.186,-0.055 0.186,-0.05C0.186,-0.043 0.183,-0.037 0.178,-0.032C0.173,-0.027 0.167,-0.024 0.161,-0.024C0.154,-0.024 0.145,-0.028 0.136,-0.038C0.123,-0.051 0.115,-0.066 0.113,-0.083C0.112,-0.09 0.111,-0.103 0.109,-0.123C0.075,-0.061 0.043,-0.03 0.012,-0.03C-0.006,-0.03 -0.021,-0.04 -0.031,-0.061C-0.038,-0.074 -0.042,-0.089 -0.042,-0.106C-0.042,-0.157 -0.023,-0.208 0.014,-0.259C0.05,-0.31 0.09,-0.335 0.132,-0.335C0.144,-0.335 0.156,-0.331 0.168,-0.323ZM0.152,-0.283C0.143,-0.289 0.135,-0.292 0.129,-0.292C0.102,-0.292 0.076,-0.275 0.051,-0.242C0.019,-0.198 0.003,-0.156 0.003,-0.115C0.003,-0.11 0.004,-0.106 0.006,-0.102C0.01,-0.093 0.016,-0.089 0.023,-0.089C0.035,-0.089 0.049,-0.1 0.065,-0.123C0.087,-0.152 0.107,-0.187 0.125,-0.227C0.132,-0.24 0.138,-0.254 0.145,-0.268L0.152,-0.283Z" style="fill:rgb(97,218,251);fill-rule:nonzero;"/>
            </g>
            <g transform="matrix(64,0,0,64,949.906,784.8)">
                <path d="M0.168,-0.323C0.201,-0.391 0.232,-0.451 0.261,-0.501C0.289,-0.55 0.308,-0.581 0.318,-0.593C0.329,-0.607 0.339,-0.614 0.349,-0.614C0.354,-0.614 0.359,-0.612 0.363,-0.608C0.367,-0.604 0.369,-0.599 0.369,-0.594C0.369,-0.587 0.364,-0.574 0.353,-0.557C0.305,-0.48 0.262,-0.403 0.223,-0.325C0.177,-0.233 0.154,-0.165 0.154,-0.119C0.154,-0.101 0.158,-0.086 0.165,-0.075C0.166,-0.073 0.172,-0.068 0.183,-0.06C0.185,-0.058 0.186,-0.055 0.186,-0.05C0.186,-0.043 0.183,-0.037 0.178,-0.032C0.173,-0.027 0.167,-0.024 0.161,-0.024C0.154,-0.024 0.145,-0.028 0.136,-0.038C0.123,-0.051 0.115,-0.066 0.113,-0.083C0.112,-0.09 0.111,-0.103 0.109,-0.123C0.075,-0.061 0.043,-0.03 0.012,-0.03C-0.006,-0.03 -0.021,-0.04 -0.031,-0.061C-0.038,-0.074 -0.042,-0.089 -0.042,-0.106C-0.042,-0.157 -0.023,-0.208 0.014,-0.259C0.05,-0.31 0.09,-0.335 0.132,-0.335C0.144,-0.335 0.156,-0.331 0.168,-0.323ZM0.152,-0.283C0.143,-0.289 0.135,-0.292 0.129,-0.292C0.102,-0.292 0.076,-0.275 0.051,-0.242C0.019,-0.198 0.003,-0.156 0.003,-0.115C0.003,-0.11 0.004,-0.106 0.006,-0.102C0.01,-0.093 0.016,-0.089 0.023,-0.089C0.035,-0.089 0.049,-0.1 0.065,-0.123C0.087,-0.152 0.107,-0.187 0.125,-0.227C0.132,-0.24 0.138,-0.254 0.145,-0.268L0.152,-0.283Z" style="fill:rgb(97,218,251);fill-rule:nonzero;"/>
            </g>
            <g transform="matrix(64,0,0,64,982.625,784.8)">
                <path d="M0.115,-0.119C0.104,-0.1 0.094,-0.084 0.083,-0.071C0.063,-0.045 0.043,-0.033 0.022,-0.033C0.005,-0.033 -0.009,-0.041 -0.019,-0.058C-0.025,-0.068 -0.028,-0.081 -0.028,-0.096C-0.028,-0.132 -0.016,-0.172 0.006,-0.215C0.032,-0.264 0.062,-0.301 0.098,-0.327C0.122,-0.344 0.144,-0.353 0.166,-0.353C0.18,-0.353 0.191,-0.348 0.2,-0.34C0.208,-0.332 0.212,-0.324 0.212,-0.314C0.212,-0.307 0.209,-0.297 0.204,-0.285C0.208,-0.278 0.211,-0.272 0.211,-0.267C0.211,-0.26 0.206,-0.249 0.197,-0.233C0.188,-0.217 0.178,-0.196 0.169,-0.169C0.159,-0.141 0.154,-0.119 0.154,-0.102C0.154,-0.088 0.158,-0.077 0.166,-0.068C0.168,-0.066 0.175,-0.062 0.186,-0.057C0.194,-0.053 0.198,-0.046 0.198,-0.037C0.198,-0.03 0.196,-0.025 0.191,-0.021C0.187,-0.017 0.181,-0.015 0.174,-0.015C0.157,-0.015 0.142,-0.023 0.129,-0.039C0.118,-0.051 0.113,-0.067 0.113,-0.086C0.113,-0.093 0.114,-0.104 0.115,-0.119ZM0.176,-0.279C0.172,-0.286 0.168,-0.292 0.164,-0.295C0.159,-0.299 0.154,-0.3 0.149,-0.3C0.124,-0.3 0.097,-0.279 0.068,-0.235C0.036,-0.188 0.021,-0.147 0.021,-0.114C0.021,-0.106 0.022,-0.099 0.025,-0.095C0.028,-0.091 0.033,-0.089 0.039,-0.089C0.055,-0.089 0.073,-0.105 0.094,-0.139C0.105,-0.157 0.12,-0.184 0.137,-0.219C0.149,-0.242 0.157,-0.258 0.162,-0.265C0.165,-0.269 0.169,-0.274 0.176,-0.279Z" style="fill:rgb(97,218,251);fill-rule:nonzero;"/>
            </g>
            <g transform="matrix(64,0,0,64,999.188,784.8)">
                <path d="M0.112,-0.297C0.126,-0.306 0.136,-0.312 0.142,-0.315C0.155,-0.321 0.168,-0.325 0.181,-0.325C0.195,-0.325 0.206,-0.321 0.213,-0.312C0.221,-0.304 0.224,-0.292 0.224,-0.275C0.224,-0.252 0.216,-0.225 0.2,-0.193C0.175,-0.142 0.146,-0.103 0.11,-0.074C0.081,-0.049 0.053,-0.037 0.027,-0.037C0.013,-0.037 -0.002,-0.043 -0.016,-0.054C-0.06,0.036 -0.1,0.128 -0.135,0.222C-0.143,0.245 -0.152,0.256 -0.162,0.256C-0.167,0.256 -0.171,0.253 -0.176,0.246C-0.18,0.242 -0.182,0.236 -0.182,0.231C-0.182,0.213 -0.16,0.156 -0.117,0.06C-0.051,-0.09 0.012,-0.213 0.072,-0.312C0.084,-0.333 0.092,-0.347 0.097,-0.355C0.108,-0.376 0.119,-0.387 0.13,-0.387C0.141,-0.387 0.146,-0.38 0.146,-0.367C0.146,-0.359 0.143,-0.349 0.135,-0.336C0.125,-0.32 0.118,-0.307 0.112,-0.297ZM0.002,-0.095C0.01,-0.087 0.019,-0.083 0.029,-0.083C0.06,-0.083 0.093,-0.11 0.13,-0.164C0.144,-0.184 0.154,-0.204 0.163,-0.225C0.169,-0.242 0.172,-0.254 0.172,-0.263C0.172,-0.269 0.171,-0.273 0.168,-0.276C0.165,-0.279 0.161,-0.28 0.155,-0.28C0.14,-0.28 0.121,-0.27 0.099,-0.249C0.078,-0.228 0.058,-0.199 0.038,-0.162C0.02,-0.128 0.008,-0.105 0.002,-0.095Z" style="fill:rgb(97,218,251);fill-rule:nonzero;"/>
            </g>
            <g transform="matrix(64,0,0,64,1016.06,784.8)">
                <path d="M0.112,-0.297C0.126,-0.306 0.136,-0.312 0.142,-0.315C0.155,-0.321 0.168,-0.325 0.181,-0.325C0.195,-0.325 0.206,-0.321 0.213,-0.312C0.221,-0.304 0.224,-0.292 0.224,-0.275C0.224,-0.252 0.216,-0.225 0.2,-0.193C0.175,-0.142 0.146,-0.103 0.11,-0.074C0.081,-0.049 0.053,-0.037 0.027,-0.037C0.013,-0.037 -0.002,-0.043 -0.016,-0.054C-0.06,0.036 -0.1,0.128 -0.135,0.222C-0.143,0.245 -0.152,0.256 -0.162,0.256C-0.167,0.256 -0.171,0.253 -0.176,0.246C-0.18,0.242 -0.182,0.236 -0.182,0.231C-0.182,0.213 -0.16,0.156 -0.117,0.06C-0.051,-0.09 0.012,-0.213 0.072,-0.312C0.084,-0.333 0.092,-0.347 0.097,-0.355C0.108,-0.376 0.119,-0.387 0.13,-0.387C0.141,-0.387 0.146,-0.38 0.146,-0.367C0.146,-0.359 0.143,-0.349 0.135,-0.336C0.125,-0.32 0.118,-0.307 0.112,-0.297ZM0.002,-0.095C0.01,-0.087 0.019,-0.083 0.029,-0.083C0.06,-0.083 0.093,-0.11 0.13,-0.164C0.144,-0.184 0.154,-0.204 0.163,-0.225C0.169,-0.242 0.172,-0.254 0.172,-0.263C0.172,-0.269 0.171,-0.273 0.168,-0.276C0.165,-0.279 0.161,-0.28 0.155,-0.28C0.14,-0.28 0.121,-0.27 0.099,-0.249C0.078,-0.228 0.058,-0.199 0.038,-0.162C0.02,-0.128 0.008,-0.105 0.002,-0.095Z" style="fill:rgb(97,218,251);fill-rule:nonzero;"/>
            </g>
            <g transform="matrix(64,0,0,64,1032.94,784.8)">
                <path d="M0.01,-0.132L0.01,-0.123C0.01,-0.116 0.012,-0.11 0.015,-0.104C0.023,-0.092 0.037,-0.086 0.055,-0.086C0.096,-0.086 0.143,-0.118 0.196,-0.18C0.206,-0.191 0.214,-0.196 0.22,-0.196C0.224,-0.196 0.227,-0.194 0.23,-0.191C0.232,-0.188 0.233,-0.186 0.233,-0.184C0.233,-0.171 0.217,-0.149 0.186,-0.119C0.162,-0.095 0.136,-0.076 0.108,-0.061C0.08,-0.046 0.055,-0.039 0.031,-0.039C0.006,-0.039 -0.013,-0.047 -0.027,-0.064C-0.036,-0.076 -0.041,-0.092 -0.041,-0.112C-0.041,-0.167 -0.015,-0.221 0.037,-0.273C0.079,-0.316 0.115,-0.338 0.146,-0.338C0.155,-0.338 0.163,-0.335 0.169,-0.33C0.178,-0.323 0.182,-0.314 0.182,-0.303C0.182,-0.286 0.174,-0.265 0.158,-0.24C0.125,-0.188 0.076,-0.152 0.01,-0.132ZM0.021,-0.17C0.043,-0.178 0.061,-0.187 0.074,-0.196C0.097,-0.214 0.115,-0.234 0.128,-0.256C0.133,-0.264 0.136,-0.271 0.136,-0.277C0.136,-0.283 0.133,-0.287 0.126,-0.287C0.118,-0.287 0.106,-0.28 0.09,-0.268C0.062,-0.245 0.039,-0.213 0.021,-0.17Z" style="fill:rgb(97,218,251);fill-rule:nonzero;"/>
            </g>
            <g transform="matrix(64,0,0,64,1050.5,784.8)">
                <path d="M0.115,-0.119C0.104,-0.1 0.094,-0.084 0.083,-0.071C0.063,-0.045 0.043,-0.033 0.022,-0.033C0.005,-0.033 -0.009,-0.041 -0.019,-0.058C-0.025,-0.068 -0.028,-0.081 -0.028,-0.096C-0.028,-0.132 -0.016,-0.172 0.006,-0.215C0.032,-0.264 0.062,-0.301 0.098,-0.327C0.122,-0.344 0.144,-0.353 0.166,-0.353C0.18,-0.353 0.191,-0.348 0.2,-0.34C0.208,-0.332 0.212,-0.324 0.212,-0.314C0.212,-0.307 0.209,-0.297 0.204,-0.285C0.208,-0.278 0.211,-0.272 0.211,-0.267C0.211,-0.26 0.206,-0.249 0.197,-0.233C0.188,-0.217 0.178,-0.196 0.169,-0.169C0.159,-0.141 0.154,-0.119 0.154,-0.102C0.154,-0.088 0.158,-0.077 0.166,-0.068C0.168,-0.066 0.175,-0.062 0.186,-0.057C0.194,-0.053 0.198,-0.046 0.198,-0.037C0.198,-0.03 0.196,-0.025 0.191,-0.021C0.187,-0.017 0.181,-0.015 0.174,-0.015C0.157,-0.015 0.142,-0.023 0.129,-0.039C0.118,-0.051 0.113,-0.067 0.113,-0.086C0.113,-0.093 0.114,-0.104 0.115,-0.119ZM0.176,-0.279C0.172,-0.286 0.168,-0.292 0.164,-0.295C0.159,-0.299 0.154,-0.3 0.149,-0.3C0.124,-0.3 0.097,-0.279 0.068,-0.235C0.036,-0.188 0.021,-0.147 0.021,-0.114C0.021,-0.106 0.022,-0.099 0.025,-0.095C0.028,-0.091 0.033,-0.089 0.039,-0.089C0.055,-0.089 0.073,-0.105 0.094,-0.139C0.105,-0.157 0.12,-0.184 0.137,-0.219C0.149,-0.242 0.157,-0.258 0.162,-0.265C0.165,-0.269 0.169,-0.274 0.176,-0.279Z" style="fill:rgb(97,218,251);fill-rule:nonzero;"/>
            </g>
            <g transform="matrix(64,0,0,64,1067.06,784.8)">
                <path d="M0.061,-0.199C0.092,-0.233 0.129,-0.266 0.171,-0.299C0.186,-0.311 0.202,-0.321 0.219,-0.332C0.227,-0.336 0.233,-0.339 0.235,-0.339C0.24,-0.339 0.245,-0.335 0.25,-0.328C0.252,-0.324 0.254,-0.321 0.254,-0.317C0.254,-0.312 0.248,-0.304 0.235,-0.293C0.202,-0.267 0.186,-0.247 0.186,-0.234C0.186,-0.226 0.19,-0.223 0.198,-0.223C0.212,-0.223 0.236,-0.234 0.271,-0.257C0.276,-0.261 0.281,-0.263 0.285,-0.263C0.288,-0.263 0.29,-0.262 0.293,-0.259C0.296,-0.256 0.297,-0.253 0.297,-0.25C0.297,-0.24 0.284,-0.225 0.256,-0.205C0.228,-0.184 0.201,-0.173 0.175,-0.173C0.164,-0.173 0.155,-0.176 0.146,-0.181C0.139,-0.186 0.135,-0.194 0.135,-0.206C0.135,-0.214 0.138,-0.223 0.145,-0.233C0.119,-0.215 0.089,-0.184 0.054,-0.14C0.034,-0.112 0.014,-0.079 -0.006,-0.039C-0.013,-0.024 -0.023,-0.016 -0.034,-0.016C-0.046,-0.016 -0.052,-0.022 -0.052,-0.033C-0.052,-0.044 -0.042,-0.074 -0.023,-0.122C0.005,-0.194 0.034,-0.249 0.064,-0.289C0.083,-0.313 0.099,-0.325 0.112,-0.325C0.116,-0.325 0.12,-0.324 0.124,-0.321C0.128,-0.318 0.13,-0.314 0.13,-0.309C0.13,-0.304 0.127,-0.297 0.12,-0.289C0.119,-0.287 0.11,-0.276 0.094,-0.256C0.08,-0.237 0.068,-0.218 0.061,-0.199Z" style="fill:rgb(97,218,251);fill-rule:nonzero;"/>
            </g>
            <g transform="matrix(64,0,0,64,1102.63,784.8)">
                <path d="M0.09,-0.238C0.114,-0.263 0.139,-0.284 0.163,-0.301C0.194,-0.322 0.216,-0.333 0.229,-0.333C0.235,-0.333 0.24,-0.331 0.245,-0.326C0.251,-0.321 0.254,-0.315 0.254,-0.308C0.254,-0.299 0.247,-0.286 0.233,-0.267C0.206,-0.231 0.185,-0.199 0.171,-0.169C0.159,-0.144 0.153,-0.127 0.153,-0.118C0.153,-0.109 0.157,-0.104 0.166,-0.104C0.183,-0.104 0.213,-0.136 0.254,-0.198C0.263,-0.211 0.271,-0.217 0.277,-0.217C0.284,-0.217 0.288,-0.213 0.288,-0.206C0.288,-0.193 0.275,-0.169 0.25,-0.133C0.229,-0.102 0.207,-0.078 0.183,-0.061C0.167,-0.05 0.152,-0.044 0.138,-0.044C0.124,-0.044 0.114,-0.05 0.108,-0.062C0.104,-0.069 0.102,-0.078 0.102,-0.087C0.102,-0.116 0.112,-0.149 0.133,-0.186C0.138,-0.195 0.152,-0.22 0.177,-0.261C0.11,-0.228 0.054,-0.155 0.008,-0.044C0.004,-0.031 -0.002,-0.025 -0.011,-0.025C-0.017,-0.025 -0.022,-0.027 -0.026,-0.031C-0.03,-0.036 -0.032,-0.041 -0.032,-0.048C-0.032,-0.059 -0.022,-0.089 -0.001,-0.139C0.038,-0.232 0.074,-0.311 0.107,-0.375C0.141,-0.441 0.178,-0.508 0.219,-0.578C0.229,-0.595 0.237,-0.606 0.242,-0.612C0.248,-0.618 0.254,-0.621 0.26,-0.621C0.266,-0.621 0.271,-0.618 0.275,-0.612C0.278,-0.607 0.28,-0.602 0.28,-0.596C0.28,-0.587 0.275,-0.575 0.264,-0.56C0.229,-0.505 0.194,-0.445 0.159,-0.38C0.122,-0.311 0.099,-0.263 0.09,-0.238Z" style="fill:rgb(97,218,251);fill-rule:nonzero;"/>
            </g>
            <g transform="matrix(64,0,0,64,1122.63,784.8)">
                <path d="M0.01,-0.132L0.01,-0.123C0.01,-0.116 0.012,-0.11 0.015,-0.104C0.023,-0.092 0.037,-0.086 0.055,-0.086C0.096,-0.086 0.143,-0.118 0.196,-0.18C0.206,-0.191 0.214,-0.196 0.22,-0.196C0.224,-0.196 0.227,-0.194 0.23,-0.191C0.232,-0.188 0.233,-0.186 0.233,-0.184C0.233,-0.171 0.217,-0.149 0.186,-0.119C0.162,-0.095 0.136,-0.076 0.108,-0.061C0.08,-0.046 0.055,-0.039 0.031,-0.039C0.006,-0.039 -0.013,-0.047 -0.027,-0.064C-0.036,-0.076 -0.041,-0.092 -0.041,-0.112C-0.041,-0.167 -0.015,-0.221 0.037,-0.273C0.079,-0.316 0.115,-0.338 0.146,-0.338C0.155,-0.338 0.163,-0.335 0.169,-0.33C0.178,-0.323 0.182,-0.314 0.182,-0.303C0.182,-0.286 0.174,-0.265 0.158,-0.24C0.125,-0.188 0.076,-0.152 0.01,-0.132ZM0.021,-0.17C0.043,-0.178 0.061,-0.187 0.074,-0.196C0.097,-0.214 0.115,-0.234 0.128,-0.256C0.133,-0.264 0.136,-0.271 0.136,-0.277C0.136,-0.283 0.133,-0.287 0.126,-0.287C0.118,-0.287 0.106,-0.28 0.09,-0.268C0.062,-0.245 0.039,-0.213 0.021,-0.17Z" style="fill:rgb(97,218,251);fill-rule:nonzero;"/>
            </g>
            <g transform="matrix(64,0,0,64,1140.19,784.8)">
                <path d="M0.061,-0.199C0.092,-0.233 0.129,-0.266 0.171,-0.299C0.186,-0.311 0.202,-0.321 0.219,-0.332C0.227,-0.336 0.233,-0.339 0.235,-0.339C0.24,-0.339 0.245,-0.335 0.25,-0.328C0.252,-0.324 0.254,-0.321 0.254,-0.317C0.254,-0.312 0.248,-0.304 0.235,-0.293C0.202,-0.267 0.186,-0.247 0.186,-0.234C0.186,-0.226 0.19,-0.223 0.198,-0.223C0.212,-0.223 0.236,-0.234 0.271,-0.257C0.276,-0.261 0.281,-0.263 0.285,-0.263C0.288,-0.263 0.29,-0.262 0.293,-0.259C0.296,-0.256 0.297,-0.253 0.297,-0.25C0.297,-0.24 0.284,-0.225 0.256,-0.205C0.228,-0.184 0.201,-0.173 0.175,-0.173C0.164,-0.173 0.155,-0.176 0.146,-0.181C0.139,-0.186 0.135,-0.194 0.135,-0.206C0.135,-0.214 0.138,-0.223 0.145,-0.233C0.119,-0.215 0.089,-0.184 0.054,-0.14C0.034,-0.112 0.014,-0.079 -0.006,-0.039C-0.013,-0.024 -0.023,-0.016 -0.034,-0.016C-0.046,-0.016 -0.052,-0.022 -0.052,-0.033C-0.052,-0.044 -0.042,-0.074 -0.023,-0.122C0.005,-0.194 0.034,-0.249 0.064,-0.289C0.083,-0.313 0.099,-0.325 0.112,-0.325C0.116,-0.325 0.12,-0.324 0.124,-0.321C0.128,-0.318 0.13,-0.314 0.13,-0.309C0.13,-0.304 0.127,-0.297 0.12,-0.289C0.119,-0.287 0.11,-0.276 0.094,-0.256C0.08,-0.237 0.068,-0.218 0.061,-0.199Z" style="fill:rgb(97,218,251);fill-rule:nonzero;"/>
            </g>
            <g transform="matrix(64,0,0,64,1159.75,784.8)">
                <path d="M0.01,-0.132L0.01,-0.123C0.01,-0.116 0.012,-0.11 0.015,-0.104C0.023,-0.092 0.037,-0.086 0.055,-0.086C0.096,-0.086 0.143,-0.118 0.196,-0.18C0.206,-0.191 0.214,-0.196 0.22,-0.196C0.224,-0.196 0.227,-0.194 0.23,-0.191C0.232,-0.188 0.233,-0.186 0.233,-0.184C0.233,-0.171 0.217,-0.149 0.186,-0.119C0.162,-0.095 0.136,-0.076 0.108,-0.061C0.08,-0.046 0.055,-0.039 0.031,-0.039C0.006,-0.039 -0.013,-0.047 -0.027,-0.064C-0.036,-0.076 -0.041,-0.092 -0.041,-0.112C-0.041,-0.167 -0.015,-0.221 0.037,-0.273C0.079,-0.316 0.115,-0.338 0.146,-0.338C0.155,-0.338 0.163,-0.335 0.169,-0.33C0.178,-0.323 0.182,-0.314 0.182,-0.303C0.182,-0.286 0.174,-0.265 0.158,-0.24C0.125,-0.188 0.076,-0.152 0.01,-0.132ZM0.021,-0.17C0.043,-0.178 0.061,-0.187 0.074,-0.196C0.097,-0.214 0.115,-0.234 0.128,-0.256C0.133,-0.264 0.136,-0.271 0.136,-0.277C0.136,-0.283 0.133,-0.287 0.126,-0.287C0.118,-0.287 0.106,-0.28 0.09,-0.268C0.062,-0.245 0.039,-0.213 0.021,-0.17Z" style="fill:rgb(97,218,251);fill-rule:nonzero;"/>
            </g>
        </g>
    </g>
</svg>
