<?xml version="1.0" encoding="UTF-8" standalone="no"?>
<!DOCTYPE svg PUBLIC "-//W3C//DTD SVG 1.1//EN" "http://www.w3.org/Graphics/SVG/1.1/DTD/svg11.dtd">
<svg width="100%" height="100%" viewBox="0 0 1920 1080" version="1.1" xmlns="http://www.w3.org/2000/svg" xmlns:xlink="http://www.w3.org/1999/xlink" xml:space="preserve" xmlns:serif="http://www.serif.com/" style="fill-rule:evenodd;clip-rule:evenodd;stroke-linecap:round;stroke-linejoin:round;stroke-miterlimit:1.5;">
    <g id="Layer1" transform="matrix(1,0,0,1,-0.115759,0)">
        <g transform="matrix(1,0,0,1,0.115759,0)">
            <path d="M955.5,15.541L955.5,2.25C955.5,1.008 956.508,0 957.75,0L962.25,0C963.492,0 964.5,1.008 964.5,2.25L964.5,15.541C972.747,17.56 978.875,25.008 978.875,33.875C978.875,35.162 978.746,36.418 978.5,37.634L978.5,54.969C991.559,61.693 1000.5,75.311 1000.5,91C1000.5,113.353 982.353,131.5 960,131.5C937.647,131.5 919.5,113.353 919.5,91C919.5,75.311 928.441,61.693 941.5,54.969L941.5,37.634C941.254,36.418 941.125,35.162 941.125,33.875C941.125,25.008 947.253,17.56 955.5,15.541Z" style="fill:rgb(97,218,251);stroke:rgb(97,218,251);stroke-width:1px;"/>
        </g>
        <g transform="matrix(1,0,0,1,-0.536965,-0.258917)">
            <path d="M1028.54,90.388C1028.54,89.356 1027.7,88.518 1026.67,88.518L1014.87,88.518C1013.84,88.518 1013,89.356 1013,90.388L1013,94.129C1013,95.162 1013.84,96 1014.87,96L1026.67,96C1027.7,96 1028.54,95.162 1028.54,94.129L1028.54,90.388Z" style="fill:rgb(97,218,251);stroke:rgb(97,218,251);stroke-width:1px;"/>
        </g>
        <g transform="matrix(6.12323e-17,1,-1,6.12323e-17,1052.26,-869.037)">
            <path d="M1028.54,90.388C1028.54,89.356 1027.7,88.518 1026.67,88.518L1014.87,88.518C1013.84,88.518 1013,89.356 1013,90.388L1013,94.129C1013,95.162 1013.84,96 1014.87,96L1026.67,96C1027.7,96 1028.54,95.162 1028.54,94.129L1028.54,90.388Z" style="fill:rgb(97,218,251);stroke:rgb(97,218,251);stroke-width:1px;"/>
        </g>
        <g transform="matrix(1,0,0,1,-120.768,-0.258917)">
            <path d="M1028.54,90.388C1028.54,89.356 1027.7,88.518 1026.67,88.518L1014.87,88.518C1013.84,88.518 1013,89.356 1013,90.388L1013,94.129C1013,95.162 1013.84,96 1014.87,96L1026.67,96C1027.7,96 1028.54,95.162 1028.54,94.129L1028.54,90.388Z" style="fill:rgb(97,218,251);stroke:rgb(97,218,251);stroke-width:1px;"/>
        </g>
        <g transform="matrix(0.707107,0.707107,-0.707107,0.707107,346.081,-652.666)">
            <path d="M1028.54,90.388C1028.54,89.356 1027.7,88.518 1026.67,88.518L1014.87,88.518C1013.84,88.518 1013,89.356 1013,90.388L1013,94.129C1013,95.162 1013.84,96 1014.87,96L1026.67,96C1027.7,96 1028.54,95.162 1028.54,94.129L1028.54,90.388Z" style="fill:rgb(97,218,251);stroke:rgb(97,218,251);stroke-width:1px;"/>
        </g>
        <g transform="matrix(-0.707107,0.707107,-0.707107,-0.707107,1704.67,-522.419)">
            <path d="M1028.54,90.388C1028.54,89.356 1027.7,88.518 1026.67,88.518L1014.87,88.518C1013.84,88.518 1013,89.356 1013,90.388L1013,94.129C1013,95.162 1013.84,96 1014.87,96L1026.67,96C1027.7,96 1028.54,95.162 1028.54,94.129L1028.54,90.388Z" style="fill:rgb(97,218,251);stroke:rgb(97,218,251);stroke-width:1px;"/>
        </g>
        <g transform="matrix(1,0,0,1,10.1158,-13)">
            <text x="904px" y="250.4px" style="font-family:'FreestyleScript-Regular', 'Freestyle Script', cursive;font-size:72px;fill:rgb(97,218,251);">Ideas</text>
        </g>
        <g transform="matrix(1,0,0,1,0.115759,1.13687e-13)">
            <path d="M1260,302.5C1260,290.082 1249.92,280 1237.5,280L682.5,280C670.082,280 660,290.082 660,302.5L660,347.5C660,359.918 670.082,370 682.5,370L1237.5,370C1249.92,370 1260,359.918 1260,347.5L1260,302.5Z" style="fill:none;stroke:rgb(97,218,251);stroke-width:1px;"/>
        </g>
        <g transform="matrix(1,0,0,1,10.1158,-2.37914)">
            <text x="690px" y="335.2px" style="font-family:'FreestyleScript-Regular', 'Freestyle Script', cursive;font-size:36px;fill:rgb(97,218,251);">Write your ideas...</text>
        </g>
        <g transform="matrix(1,0,0,1,0.115759,0)">
            <path d="M883.5,500.25L892,500.25L892,507.75L883.5,507.75L883.5,515.5L876,515.5L876,507.75L868.5,507.75L868.5,500.25L876,500.25L876,492L883.5,492L883.5,500.25Z" style="fill:rgb(97,218,251);stroke:rgb(97,218,251);stroke-width:1px;"/>
        </g>
        <g transform="matrix(1,0,0,1,-27.8842,40.25)">
            <path d="M883.5,500.25L892,500.25L892,507.75L883.5,507.75L883.5,515.5L876,515.5L876,507.75L868.5,507.75L868.5,500.25L876,500.25L876,492L883.5,492L883.5,500.25Z" style="fill:rgb(97,218,251);stroke:rgb(97,218,251);stroke-width:1px;"/>
        </g>
        <g transform="matrix(1,0,0,1,20.1158,80.25)">
            <path d="M883.5,500.25L892,500.25L892,507.75L883.5,507.75L883.5,515.5L876,515.5L876,507.75L868.5,507.75L868.5,500.25L876,500.25L876,492L883.5,492L883.5,500.25Z" style="fill:rgb(97,218,251);stroke:rgb(97,218,251);stroke-width:1px;"/>
        </g>
        <g transform="matrix(1,0,0,1,160.116,60.25)">
            <path d="M883.5,500.25L892,500.25L892,507.75L883.5,507.75L883.5,515.5L876,515.5L876,507.75L868.5,507.75L868.5,500.25L876,500.25L876,492L883.5,492L883.5,500.25Z" style="fill:rgb(97,218,251);stroke:rgb(97,218,251);stroke-width:1px;"/>
        </g>
        <g transform="matrix(1,0,0,1,188.116,16.25)">
            <path d="M883.5,500.25L892,500.25L892,507.75L883.5,507.75L883.5,515.5L876,515.5L876,507.75L868.5,507.75L868.5,500.25L876,500.25L876,492L883.5,492L883.5,500.25Z" style="fill:rgb(97,218,251);stroke:rgb(97,218,251);stroke-width:1px;"/>
        </g>
        <g transform="matrix(1,0,0,1,156.116,-23.75)">
            <path d="M883.5,500.25L892,500.25L892,507.75L883.5,507.75L883.5,515.5L876,515.5L876,507.75L868.5,507.75L868.5,500.25L876,500.25L876,492L883.5,492L883.5,500.25Z" style="fill:rgb(97,218,251);stroke:rgb(97,218,251);stroke-width:1px;"/>
        </g>
        <g transform="matrix(1,0,0,1,0.115759,0)">
            <rect x="912" y="512" width="8" height="8" style="fill:rgb(97,218,251);stroke:rgb(97,218,251);stroke-width:1px;"/>
        </g>
        <g transform="matrix(1,0,0,1,44.1158,-44)">
            <rect x="912" y="512" width="8" height="8" style="fill:rgb(97,218,251);stroke:rgb(97,218,251);stroke-width:1px;"/>
        </g>
        <g transform="matrix(1,0,0,1,88.1158,0)">
            <rect x="912" y="512" width="8" height="8" style="fill:rgb(97,218,251);stroke:rgb(97,218,251);stroke-width:1px;"/>
        </g>
        <g transform="matrix(0.866025,0.5,-0.5,0.866025,463.493,-366.869)">
            <rect x="912" y="512" width="8" height="8" style="fill:rgb(97,218,251);stroke:rgb(97,218,251);stroke-width:1px;"/>
        </g>
        <g transform="matrix(0.866025,0.5,-0.5,0.866025,386.836,-411.333)">
            <rect x="912" y="512" width="8" height="8" style="fill:rgb(97,218,251);stroke:rgb(97,218,251);stroke-width:1px;"/>
        </g>
        <g transform="matrix(0.866025,-0.5,0.5,0.866025,-129.199,549.167)">
            <rect x="912" y="512" width="8" height="8" style="fill:rgb(97,218,251);stroke:rgb(97,218,251);stroke-width:1px;"/>
        </g>
        <g transform="matrix(0.866025,-0.5,0.5,0.866025,-53.1635,505.131)">
            <rect x="912" y="512" width="8" height="8" style="fill:rgb(97,218,251);stroke:rgb(97,218,251);stroke-width:1px;"/>
        </g>
        <g transform="matrix(0.5,-0.866025,0.866025,0.5,77.7825,1012.74)">
            <rect x="912" y="512" width="8" height="8" style="fill:rgb(97,218,251);stroke:rgb(97,218,251);stroke-width:1px;"/>
        </g>
        <g transform="matrix(0.866025,-0.5,0.5,0.866025,-113.628,488.095)">
            <rect x="912" y="512" width="8" height="8" style="fill:rgb(97,218,251);stroke:rgb(97,218,251);stroke-width:1px;"/>
        </g>
        <g transform="matrix(0.952547,0,0,0.952547,51.8626,34.6723)">
            <circle cx="953.5" cy="504.5" r="36.5" style="fill:none;stroke:rgb(97,218,251);stroke-width:5.25px;"/>
        </g>
        <g transform="matrix(1,0,0,0.77907,-0.384241,129.302)">
            <path d="M980,550.75C980,544.817 976.247,540 971.625,540L949.375,540C944.753,540 941,544.817 941,550.75L941,572.25C941,578.183 944.753,583 949.375,583L971.625,583C976.247,583 980,578.183 980,572.25L980,550.75Z" style="fill:none;stroke:rgb(97,218,251);stroke-width:5.58px;"/>
        </g>
        <g transform="matrix(1,0,0,1,-1.13424,-4.51795)">
            <circle cx="961.25" cy="519.75" r="11.25" style="fill:none;stroke:rgb(97,218,251);stroke-width:5px;"/>
        </g>
        <g transform="matrix(1,0,0,1,0.115759,0)">
            <path d="M960,526.482L960,549.5" style="fill:none;stroke:rgb(97,218,251);stroke-width:5px;"/>
        </g>
        <g transform="matrix(1,0,0,1,-6.88424,-2)">
            <path d="M976,653L976,599C976,599 975.473,593.26 967,593" style="fill:none;stroke:rgb(97,218,251);stroke-width:5px;"/>
        </g>
        <g transform="matrix(-1,0,0,1,1926.86,-2)">
            <path d="M976,638L976,599C976,599 975.473,593.26 967,593" style="fill:none;stroke:rgb(97,218,251);stroke-width:5px;"/>
        </g>
        <g transform="matrix(1,0,0,1,-6.88424,-1.5)">
            <path d="M988,707L988,698.628C988,696.894 988.349,695.177 989.027,693.581C990.215,690.783 992.181,686.153 993.53,682.974C994.49,680.713 994.785,678.226 994.381,675.803C993.73,671.899 992.735,665.936 992.264,663.115C992.089,662.066 991.746,661.051 991.246,660.112C991.246,660.112 991.246,660.111 991.246,660.111C989.234,656.324 985.372,653.881 981.088,653.686C976.672,653.485 971.232,653.238 968.239,653.102C966.76,653.035 965.281,653.249 963.882,653.733C963.881,653.733 963.881,653.734 963.88,653.734C959.903,655.111 957.151,658.753 956.914,662.955C956.676,667.158 959,671.087 962.797,672.903C962.93,672.966 963,673 963,673C963,673 963,673 963,673C966.369,672.102 969.963,672.934 972.594,675.22C975.225,677.507 976.549,680.95 976.129,684.411C976.048,685.08 976,685.477 976,685.477" style="fill:none;stroke:rgb(97,218,251);stroke-width:5px;"/>
        </g>
        <g transform="matrix(1,0,0,1,-6.88424,-1.5)">
            <path d="M966,652L950,624C950,624 940.93,621.796 938,626C935.07,630.204 937.166,638.28 940,642C942.794,645.667 956.897,664 956.897,664" style="fill:none;stroke:rgb(97,218,251);stroke-width:5px;"/>
        </g>
        <g transform="matrix(1,0,0,1,-6.88424,-1.5)">
            <path d="M936.996,635L923,636C923,636 919.227,640.059 920,644C920.773,647.941 929.64,657.618 932,660C934.36,662.382 958.529,689.252 954,661.529" style="fill:none;stroke:rgb(97,218,251);stroke-width:5px;"/>
        </g>
        <g transform="matrix(1,0,0,1,-6.88424,-1.5)">
            <path d="M921,647L911,648C911,648 900.348,657.02 917,669C933.652,680.98 945.786,693.515 945,672" style="fill:none;stroke:rgb(97,218,251);stroke-width:5px;"/>
        </g>
        <g transform="matrix(1,0,0,1,-6.88424,-1.5)">
            <path d="M907,654.5C907,654.5 908.491,678.739 913.5,686.5C918.509,694.261 921.882,702.377 920.5,706" style="fill:none;stroke:rgb(97,218,251);stroke-width:5px;"/>
        </g>
        <g transform="matrix(1,0,0,1,-4.88424,-12.3964)">
            <text x="750px" y="784.8px" style="font-family:'FreestyleScript-Regular', 'Freestyle Script', cursive;font-size:64px;fill:rgb(97,218,251);">Ideas you add appear here</text>
        </g>
    </g>
</svg>
