<?xml version="1.0" encoding="UTF-8" standalone="no"?>
<!DOCTYPE svg PUBLIC "-//W3C//DTD SVG 1.1//EN" "http://www.w3.org/Graphics/SVG/1.1/DTD/svg11.dtd">
<svg width="100%" height="100%" viewBox="0 0 1920 1080" version="1.1" xmlns="http://www.w3.org/2000/svg" xmlns:xlink="http://www.w3.org/1999/xlink" xml:space="preserve" xmlns:serif="http://www.serif.com/" style="fill-rule:evenodd;clip-rule:evenodd;stroke-linecap:round;stroke-linejoin:round;stroke-miterlimit:1.5;">
    <g id="Layer1">
        <path d="M960,456C960,456 1023.2,404.798 960,362" style="fill:none;stroke:rgb(97,218,251);stroke-width:5px;"/>
        <g transform="matrix(-1,2.22045e-16,-2.22045e-16,-1,1920,719)">
            <path d="M960,456C960,456 1023.2,404.798 960,362" style="fill:none;stroke:rgb(97,218,251);stroke-width:5px;"/>
        </g>
        <g transform="matrix(6.04901e-16,-1,1,6.04901e-16,601,1319.09)">
            <path d="M960,456C960,456 1023.2,404.798 960,362" style="fill:none;stroke:rgb(97,218,251);stroke-width:5px;"/>
        </g>
        <g transform="matrix(0.707107,-0.707107,0.707107,0.707107,27.9282,785.333)">
            <path d="M960,456C960,456 1023.2,404.798 960,362" style="fill:none;stroke:rgb(97,218,251);stroke-width:5px;"/>
        </g>
        <g transform="matrix(-0.707107,0.707107,-0.707107,-0.707107,1891.55,-66.0927)">
            <path d="M960,456C960,456 1023.2,404.798 960,362" style="fill:none;stroke:rgb(97,218,251);stroke-width:5px;"/>
        </g>
        <g transform="matrix(-0.707107,-0.707107,0.707107,-0.707107,1385.57,1291.07)">
            <path d="M960,456C960,456 1023.2,404.798 960,362" style="fill:none;stroke:rgb(97,218,251);stroke-width:5px;"/>
        </g>
        <g transform="matrix(0.707107,0.707107,-0.707107,0.707107,533.907,-573.072)">
            <path d="M960,456C960,456 1023.2,404.798 960,362" style="fill:none;stroke:rgb(97,218,251);stroke-width:5px;"/>
        </g>
        <g transform="matrix(-3.83476e-17,1,-1,-3.83476e-17,1319,-600.911)">
            <path d="M960,456C960,456 1023.2,404.798 960,362" style="fill:none;stroke:rgb(97,218,251);stroke-width:5px;"/>
        </g>
        <g transform="matrix(-1,0,0,1,1920,0)">
            <path d="M960,456C960,456 1023.2,404.798 960,362" style="fill:none;stroke:rgb(97,218,251);stroke-width:5px;"/>
        </g>
        <g transform="matrix(1,-2.22045e-16,-2.22045e-16,-1,1.13687e-13,719)">
            <path d="M960,456C960,456 1023.2,404.798 960,362" style="fill:none;stroke:rgb(97,218,251);stroke-width:5px;"/>
        </g>
        <g transform="matrix(-6.04901e-16,1,1,6.04901e-16,601,-600.911)">
            <path d="M960,456C960,456 1023.2,404.798 960,362" style="fill:none;stroke:rgb(97,218,251);stroke-width:5px;"/>
        </g>
        <g transform="matrix(-0.707107,0.707107,0.707107,0.707107,1385.57,-572.312)">
            <path d="M960,456C960,456 1023.2,404.798 960,362" style="fill:none;stroke:rgb(97,218,251);stroke-width:5px;"/>
        </g>
        <g transform="matrix(0.707107,-0.707107,-0.707107,-0.707107,533.907,1291.55)">
            <path d="M960,456C960,456 1023.2,404.798 960,362" style="fill:none;stroke:rgb(97,218,251);stroke-width:5px;"/>
        </g>
        <g transform="matrix(0.707107,0.707107,0.707107,-0.707107,27.9282,-66.5732)">
            <path d="M960,456C960,456 1023.2,404.798 960,362" style="fill:none;stroke:rgb(97,218,251);stroke-width:5px;"/>
        </g>
        <g transform="matrix(-0.707107,-0.707107,-0.707107,0.707107,1891.55,784.573)">
            <path d="M960,456C960,456 1023.2,404.798 960,362" style="fill:none;stroke:rgb(97,218,251);stroke-width:5px;"/>
        </g>
        <g transform="matrix(3.83476e-17,-1,-1,-3.83476e-17,1319,1319.09)">
            <path d="M960,456C960,456 1023.2,404.798 960,362" style="fill:none;stroke:rgb(97,218,251);stroke-width:5px;"/>
        </g>
        <g transform="matrix(1,0,0,1,20,-12.5071)">
            <text x="720px" y="617.314px" style="font-family:'FreestyleScript-Regular', 'Freestyle Script', cursive;font-size:144px;fill:rgb(97,218,251);">Allo Naomi,</text>
        </g>
        <g transform="matrix(1,0,0,1,118.379,91.4999)">
            <text x="720px" y="583.714px" style="font-family:'FreestyleScript-Regular', 'Freestyle Script', cursive;font-size:96px;fill:rgb(97,218,251);">t&apos;as faim?</text>
        </g>
        <g transform="matrix(0.965926,0.258819,-0.258819,0.965926,234.624,-222.147)">
            <path d="M1050,749.617C1050,744.309 1045.69,740 1040.38,740L881.617,740C876.309,740 872,744.309 872,749.617L872,810.383C872,815.691 876.309,820 881.617,820L1040.38,820C1045.69,820 1050,815.691 1050,810.383L1050,749.617Z" style="fill:none;stroke:rgb(97,218,251);stroke-width:1px;"/>
        </g>
        <g transform="matrix(1,0,0,1,0,-2.49952)">
            <text x="930px" y="798.599px" style="font-family:'FreestyleScript-Regular', 'Freestyle Script', cursive;font-size:48px;fill:rgb(97,218,251);">OUI</text>
        </g>
    </g>
</svg>
