<?xml version="1.0" encoding="UTF-8" standalone="no"?>
<!DOCTYPE svg PUBLIC "-//W3C//DTD SVG 1.1//EN" "http://www.w3.org/Graphics/SVG/1.1/DTD/svg11.dtd">
<svg width="100%" height="100%" viewBox="0 0 1920 1080" version="1.1" xmlns="http://www.w3.org/2000/svg" xmlns:xlink="http://www.w3.org/1999/xlink" xml:space="preserve" xmlns:serif="http://www.serif.com/" style="fill-rule:evenodd;clip-rule:evenodd;stroke-linecap:round;stroke-linejoin:round;stroke-miterlimit:1.5;">
    <g id="Layer1">
        <path d="M960,456C960,456 1023.2,404.798 960,362" style="fill:none;stroke:rgb(97,218,251);stroke-width:5px;"/>
        <g transform="matrix(-1,2.22045e-16,-2.22045e-16,-1,1920,719)">
            <path d="M960,456C960,456 1023.2,404.798 960,362" style="fill:none;stroke:rgb(97,218,251);stroke-width:5px;"/>
        </g>
        <g transform="matrix(6.04901e-16,-1,1,6.04901e-16,601,1319.09)">
            <path d="M960,456C960,456 1023.2,404.798 960,362" style="fill:none;stroke:rgb(97,218,251);stroke-width:5px;"/>
        </g>
        <g transform="matrix(0.707107,-0.707107,0.707107,0.707107,27.9282,785.333)">
            <path d="M960,456C960,456 1023.2,404.798 960,362" style="fill:none;stroke:rgb(97,218,251);stroke-width:5px;"/>
        </g>
        <g transform="matrix(-0.707107,0.707107,-0.707107,-0.707107,1891.55,-66.0927)">
            <path d="M960,456C960,456 1023.2,404.798 960,362" style="fill:none;stroke:rgb(97,218,251);stroke-width:5px;"/>
        </g>
        <g transform="matrix(-0.707107,-0.707107,0.707107,-0.707107,1385.57,1291.07)">
            <path d="M960,456C960,456 1023.2,404.798 960,362" style="fill:none;stroke:rgb(97,218,251);stroke-width:5px;"/>
        </g>
        <g transform="matrix(0.707107,0.707107,-0.707107,0.707107,533.907,-573.072)">
            <path d="M960,456C960,456 1023.2,404.798 960,362" style="fill:none;stroke:rgb(97,218,251);stroke-width:5px;"/>
        </g>
        <g transform="matrix(-3.83476e-17,1,-1,-3.83476e-17,1319,-600.911)">
            <path d="M960,456C960,456 1023.2,404.798 960,362" style="fill:none;stroke:rgb(97,218,251);stroke-width:5px;"/>
        </g>
        <g transform="matrix(-1,0,0,1,1920,0)">
            <path d="M960,456C960,456 1023.2,404.798 960,362" style="fill:none;stroke:rgb(97,218,251);stroke-width:5px;"/>
        </g>
        <g transform="matrix(1,-2.22045e-16,-2.22045e-16,-1,1.13687e-13,719)">
            <path d="M960,456C960,456 1023.2,404.798 960,362" style="fill:none;stroke:rgb(97,218,251);stroke-width:5px;"/>
        </g>
        <g transform="matrix(-6.04901e-16,1,1,6.04901e-16,601,-600.911)">
            <path d="M960,456C960,456 1023.2,404.798 960,362" style="fill:none;stroke:rgb(97,218,251);stroke-width:5px;"/>
        </g>
        <g transform="matrix(-0.707107,0.707107,0.707107,0.707107,1385.57,-572.312)">
            <path d="M960,456C960,456 1023.2,404.798 960,362" style="fill:none;stroke:rgb(97,218,251);stroke-width:5px;"/>
        </g>
        <g transform="matrix(0.707107,-0.707107,-0.707107,-0.707107,533.907,1291.55)">
            <path d="M960,456C960,456 1023.2,404.798 960,362" style="fill:none;stroke:rgb(97,218,251);stroke-width:5px;"/>
        </g>
        <g transform="matrix(0.707107,0.707107,0.707107,-0.707107,27.9282,-66.5732)">
            <path d="M960,456C960,456 1023.2,404.798 960,362" style="fill:none;stroke:rgb(97,218,251);stroke-width:5px;"/>
        </g>
        <g transform="matrix(-0.707107,-0.707107,-0.707107,0.707107,1891.55,784.573)">
            <path d="M960,456C960,456 1023.2,404.798 960,362" style="fill:none;stroke:rgb(97,218,251);stroke-width:5px;"/>
        </g>
        <g transform="matrix(3.83476e-17,-1,-1,-3.83476e-17,1319,1319.09)">
            <path d="M960,456C960,456 1023.2,404.798 960,362" style="fill:none;stroke:rgb(97,218,251);stroke-width:5px;"/>
        </g>
        <g transform="matrix(1,0,0,1,20,-12.5071)">
            <g transform="matrix(144,0,0,144,720,617.314)">
                <path d="M0.317,-0.308C0.243,-0.293 0.181,-0.276 0.131,-0.256C0.101,-0.212 0.069,-0.159 0.033,-0.098L0.007,-0.052C0.002,-0.044 -0.005,-0.032 -0.014,-0.017C-0.025,0.001 -0.035,0.01 -0.047,0.01C-0.053,0.01 -0.058,0.007 -0.063,0.002C-0.067,-0.002 -0.069,-0.007 -0.069,-0.012C-0.069,-0.021 -0.057,-0.047 -0.032,-0.089C-0.019,-0.112 0.001,-0.145 0.028,-0.188C0.039,-0.204 0.047,-0.217 0.053,-0.228C0.034,-0.222 0.016,-0.216 0,-0.208C-0.008,-0.205 -0.015,-0.203 -0.02,-0.203C-0.027,-0.203 -0.032,-0.206 -0.035,-0.212C-0.038,-0.215 -0.039,-0.22 -0.039,-0.225C-0.039,-0.236 -0.035,-0.243 -0.027,-0.248C-0.015,-0.256 0.008,-0.265 0.041,-0.275C0.065,-0.283 0.085,-0.29 0.099,-0.296C0.106,-0.305 0.124,-0.33 0.153,-0.371C0.165,-0.389 0.2,-0.431 0.258,-0.498C0.3,-0.547 0.343,-0.592 0.387,-0.634C0.413,-0.659 0.433,-0.671 0.446,-0.671C0.455,-0.671 0.462,-0.668 0.468,-0.661C0.473,-0.655 0.476,-0.648 0.476,-0.641C0.476,-0.632 0.472,-0.616 0.462,-0.593C0.447,-0.553 0.432,-0.51 0.417,-0.464C0.405,-0.424 0.397,-0.393 0.393,-0.372C0.398,-0.372 0.402,-0.372 0.404,-0.372C0.414,-0.372 0.422,-0.373 0.428,-0.373C0.447,-0.373 0.456,-0.365 0.456,-0.351C0.456,-0.345 0.454,-0.339 0.45,-0.333C0.446,-0.327 0.441,-0.323 0.436,-0.322C0.434,-0.321 0.429,-0.321 0.42,-0.321C0.401,-0.321 0.388,-0.32 0.378,-0.317C0.371,-0.294 0.358,-0.235 0.341,-0.14C0.333,-0.077 0.328,-0.038 0.329,-0.024C0.329,0 0.322,0.011 0.308,0.011C0.297,0.011 0.288,0.006 0.282,-0.006C0.277,-0.014 0.275,-0.024 0.275,-0.038C0.275,-0.083 0.283,-0.143 0.299,-0.219C0.307,-0.258 0.313,-0.287 0.317,-0.308ZM0.331,-0.36C0.333,-0.37 0.341,-0.395 0.353,-0.436C0.356,-0.447 0.363,-0.468 0.375,-0.5C0.388,-0.533 0.397,-0.559 0.404,-0.579C0.383,-0.565 0.362,-0.547 0.34,-0.523C0.263,-0.441 0.209,-0.373 0.177,-0.321C0.189,-0.324 0.215,-0.331 0.255,-0.343C0.266,-0.346 0.292,-0.352 0.331,-0.36Z" style="fill:rgb(97,218,251);fill-rule:nonzero;"/>
            </g>
            <g transform="matrix(144,0,0,144,784.055,617.314)">
                <path d="M0.052,-0.2C0.042,-0.175 0.035,-0.154 0.03,-0.139C0.025,-0.123 0.022,-0.112 0.022,-0.106C0.022,-0.098 0.026,-0.094 0.034,-0.094C0.046,-0.094 0.061,-0.105 0.08,-0.127C0.088,-0.138 0.101,-0.157 0.119,-0.185C0.125,-0.196 0.133,-0.202 0.14,-0.202C0.149,-0.202 0.153,-0.198 0.153,-0.189C0.153,-0.175 0.137,-0.147 0.104,-0.104C0.071,-0.06 0.04,-0.038 0.011,-0.038C-0.001,-0.038 -0.011,-0.043 -0.019,-0.053C-0.025,-0.061 -0.027,-0.07 -0.027,-0.081C-0.027,-0.099 -0.022,-0.124 -0.011,-0.156C0,-0.188 0.017,-0.228 0.039,-0.274C0.095,-0.391 0.152,-0.488 0.21,-0.564C0.257,-0.626 0.295,-0.656 0.326,-0.656C0.335,-0.656 0.343,-0.653 0.35,-0.645C0.356,-0.638 0.359,-0.629 0.359,-0.619C0.359,-0.574 0.319,-0.498 0.237,-0.392C0.201,-0.344 0.157,-0.297 0.106,-0.25C0.093,-0.238 0.075,-0.221 0.052,-0.2ZM0.086,-0.278C0.154,-0.336 0.215,-0.409 0.268,-0.498C0.296,-0.543 0.31,-0.574 0.31,-0.589C0.31,-0.596 0.306,-0.6 0.3,-0.6C0.282,-0.6 0.25,-0.564 0.203,-0.493C0.164,-0.434 0.125,-0.362 0.086,-0.278Z" style="fill:rgb(97,218,251);fill-rule:nonzero;"/>
            </g>
            <g transform="matrix(144,0,0,144,814.992,617.314)">
                <path d="M0.052,-0.2C0.042,-0.175 0.035,-0.154 0.03,-0.139C0.025,-0.123 0.022,-0.112 0.022,-0.106C0.022,-0.098 0.026,-0.094 0.034,-0.094C0.046,-0.094 0.061,-0.105 0.08,-0.127C0.088,-0.138 0.101,-0.157 0.119,-0.185C0.125,-0.196 0.133,-0.202 0.14,-0.202C0.149,-0.202 0.153,-0.198 0.153,-0.189C0.153,-0.175 0.137,-0.147 0.104,-0.104C0.071,-0.06 0.04,-0.038 0.011,-0.038C-0.001,-0.038 -0.011,-0.043 -0.019,-0.053C-0.025,-0.061 -0.027,-0.07 -0.027,-0.081C-0.027,-0.099 -0.022,-0.124 -0.011,-0.156C0,-0.188 0.017,-0.228 0.039,-0.274C0.095,-0.391 0.152,-0.488 0.21,-0.564C0.257,-0.626 0.295,-0.656 0.326,-0.656C0.335,-0.656 0.343,-0.653 0.35,-0.645C0.356,-0.638 0.359,-0.629 0.359,-0.619C0.359,-0.574 0.319,-0.498 0.237,-0.392C0.201,-0.344 0.157,-0.297 0.106,-0.25C0.093,-0.238 0.075,-0.221 0.052,-0.2ZM0.086,-0.278C0.154,-0.336 0.215,-0.409 0.268,-0.498C0.296,-0.543 0.31,-0.574 0.31,-0.589C0.31,-0.596 0.306,-0.6 0.3,-0.6C0.282,-0.6 0.25,-0.564 0.203,-0.493C0.164,-0.434 0.125,-0.362 0.086,-0.278Z" style="fill:rgb(97,218,251);fill-rule:nonzero;"/>
            </g>
            <g transform="matrix(144,0,0,144,845.93,617.314)">
                <path d="M0.16,-0.353C0.187,-0.353 0.2,-0.337 0.2,-0.304C0.2,-0.261 0.18,-0.206 0.14,-0.14C0.097,-0.068 0.054,-0.032 0.014,-0.032C-0.005,-0.032 -0.019,-0.041 -0.028,-0.058C-0.032,-0.067 -0.035,-0.077 -0.035,-0.09C-0.035,-0.132 -0.02,-0.177 0.008,-0.226C0.035,-0.271 0.066,-0.306 0.103,-0.331C0.124,-0.346 0.143,-0.353 0.16,-0.353ZM0.109,-0.168C0.101,-0.175 0.097,-0.18 0.097,-0.184C0.097,-0.186 0.102,-0.193 0.113,-0.205C0.142,-0.238 0.157,-0.264 0.157,-0.285C0.157,-0.287 0.156,-0.29 0.154,-0.292C0.152,-0.297 0.148,-0.3 0.142,-0.3C0.132,-0.3 0.116,-0.29 0.096,-0.27C0.07,-0.243 0.05,-0.217 0.037,-0.189C0.021,-0.157 0.013,-0.131 0.013,-0.11C0.013,-0.105 0.014,-0.1 0.017,-0.096C0.021,-0.09 0.027,-0.087 0.033,-0.087C0.049,-0.087 0.066,-0.099 0.083,-0.122C0.091,-0.132 0.098,-0.142 0.103,-0.152C0.107,-0.163 0.11,-0.168 0.109,-0.168Z" style="fill:rgb(97,218,251);fill-rule:nonzero;"/>
            </g>
            <g transform="matrix(144,0,0,144,915.328,617.314)">
                <path d="M0.285,-0.11C0.312,-0.191 0.344,-0.267 0.38,-0.34C0.409,-0.397 0.448,-0.469 0.497,-0.555C0.533,-0.618 0.557,-0.656 0.568,-0.668C0.58,-0.681 0.591,-0.687 0.604,-0.687C0.614,-0.687 0.619,-0.682 0.619,-0.673C0.619,-0.668 0.617,-0.662 0.612,-0.654C0.608,-0.647 0.595,-0.625 0.572,-0.588C0.497,-0.466 0.442,-0.365 0.407,-0.287C0.376,-0.216 0.349,-0.147 0.327,-0.079C0.319,-0.055 0.31,-0.037 0.3,-0.025C0.285,-0.007 0.271,0.001 0.256,0.001C0.243,0.001 0.235,-0.008 0.231,-0.027C0.229,-0.035 0.229,-0.05 0.229,-0.072C0.229,-0.15 0.236,-0.236 0.251,-0.332C0.265,-0.415 0.279,-0.482 0.293,-0.532C0.262,-0.498 0.215,-0.425 0.153,-0.315C0.104,-0.228 0.067,-0.147 0.042,-0.071C0.032,-0.04 0.025,-0.021 0.021,-0.013C0.012,0.001 0.001,0.008 -0.012,0.008C-0.018,0.008 -0.022,0.006 -0.026,0.001C-0.03,-0.002 -0.031,-0.006 -0.031,-0.01C-0.031,-0.023 -0.021,-0.055 0,-0.108C0.028,-0.177 0.073,-0.266 0.137,-0.373C0.174,-0.437 0.219,-0.505 0.271,-0.578C0.296,-0.612 0.315,-0.634 0.327,-0.645C0.338,-0.654 0.348,-0.658 0.358,-0.658C0.362,-0.658 0.366,-0.657 0.369,-0.654C0.374,-0.651 0.376,-0.646 0.376,-0.641C0.376,-0.635 0.374,-0.627 0.371,-0.619C0.355,-0.579 0.339,-0.524 0.323,-0.453C0.296,-0.338 0.283,-0.241 0.283,-0.161C0.283,-0.15 0.284,-0.133 0.285,-0.11Z" style="fill:rgb(97,218,251);fill-rule:nonzero;"/>
            </g>
            <g transform="matrix(144,0,0,144,987.047,617.314)">
                <path d="M0.115,-0.119C0.104,-0.1 0.094,-0.084 0.083,-0.071C0.063,-0.045 0.043,-0.033 0.022,-0.033C0.005,-0.033 -0.009,-0.041 -0.019,-0.058C-0.025,-0.068 -0.028,-0.081 -0.028,-0.096C-0.028,-0.132 -0.016,-0.172 0.006,-0.215C0.032,-0.264 0.062,-0.301 0.098,-0.327C0.122,-0.344 0.144,-0.353 0.166,-0.353C0.18,-0.353 0.191,-0.348 0.2,-0.34C0.208,-0.332 0.212,-0.324 0.212,-0.314C0.212,-0.307 0.209,-0.297 0.204,-0.285C0.208,-0.278 0.211,-0.272 0.211,-0.267C0.211,-0.26 0.206,-0.249 0.197,-0.233C0.188,-0.217 0.178,-0.196 0.169,-0.169C0.159,-0.141 0.154,-0.119 0.154,-0.102C0.154,-0.088 0.158,-0.077 0.166,-0.068C0.168,-0.066 0.175,-0.062 0.186,-0.057C0.194,-0.053 0.198,-0.046 0.198,-0.037C0.198,-0.03 0.196,-0.025 0.191,-0.021C0.187,-0.017 0.181,-0.015 0.174,-0.015C0.157,-0.015 0.142,-0.023 0.129,-0.039C0.118,-0.051 0.113,-0.067 0.113,-0.086C0.113,-0.093 0.114,-0.104 0.115,-0.119ZM0.176,-0.279C0.172,-0.286 0.168,-0.292 0.164,-0.295C0.159,-0.299 0.154,-0.3 0.149,-0.3C0.124,-0.3 0.097,-0.279 0.068,-0.235C0.036,-0.188 0.021,-0.147 0.021,-0.114C0.021,-0.106 0.022,-0.099 0.025,-0.095C0.028,-0.091 0.033,-0.089 0.039,-0.089C0.055,-0.089 0.073,-0.105 0.094,-0.139C0.105,-0.157 0.12,-0.184 0.137,-0.219C0.149,-0.242 0.157,-0.258 0.162,-0.265C0.165,-0.269 0.169,-0.274 0.176,-0.279Z" style="fill:rgb(97,218,251);fill-rule:nonzero;"/>
            </g>
            <g transform="matrix(144,0,0,144,1024.31,617.314)">
                <path d="M0.16,-0.353C0.187,-0.353 0.2,-0.337 0.2,-0.304C0.2,-0.261 0.18,-0.206 0.14,-0.14C0.097,-0.068 0.054,-0.032 0.014,-0.032C-0.005,-0.032 -0.019,-0.041 -0.028,-0.058C-0.032,-0.067 -0.035,-0.077 -0.035,-0.09C-0.035,-0.132 -0.02,-0.177 0.008,-0.226C0.035,-0.271 0.066,-0.306 0.103,-0.331C0.124,-0.346 0.143,-0.353 0.16,-0.353ZM0.109,-0.168C0.101,-0.175 0.097,-0.18 0.097,-0.184C0.097,-0.186 0.102,-0.193 0.113,-0.205C0.142,-0.238 0.157,-0.264 0.157,-0.285C0.157,-0.287 0.156,-0.29 0.154,-0.292C0.152,-0.297 0.148,-0.3 0.142,-0.3C0.132,-0.3 0.116,-0.29 0.096,-0.27C0.07,-0.243 0.05,-0.217 0.037,-0.189C0.021,-0.157 0.013,-0.131 0.013,-0.11C0.013,-0.105 0.014,-0.1 0.017,-0.096C0.021,-0.09 0.027,-0.087 0.033,-0.087C0.049,-0.087 0.066,-0.099 0.083,-0.122C0.091,-0.132 0.098,-0.142 0.103,-0.152C0.107,-0.163 0.11,-0.168 0.109,-0.168Z" style="fill:rgb(97,218,251);fill-rule:nonzero;"/>
            </g>
            <g transform="matrix(144,0,0,144,1057.71,617.314)">
                <path d="M0.056,-0.201C0.083,-0.229 0.107,-0.252 0.128,-0.268C0.16,-0.292 0.181,-0.305 0.191,-0.305C0.197,-0.305 0.201,-0.303 0.205,-0.299C0.209,-0.295 0.21,-0.291 0.21,-0.287C0.21,-0.281 0.205,-0.271 0.193,-0.257C0.176,-0.235 0.164,-0.216 0.157,-0.2C0.233,-0.277 0.285,-0.315 0.313,-0.315C0.319,-0.315 0.324,-0.313 0.328,-0.31C0.333,-0.306 0.335,-0.301 0.335,-0.295C0.335,-0.286 0.328,-0.274 0.314,-0.26C0.252,-0.196 0.222,-0.144 0.222,-0.104C0.222,-0.087 0.225,-0.075 0.23,-0.068L0.243,-0.052C0.246,-0.049 0.247,-0.045 0.247,-0.041C0.247,-0.035 0.245,-0.03 0.241,-0.026C0.236,-0.021 0.23,-0.018 0.224,-0.018C0.213,-0.018 0.203,-0.025 0.194,-0.039C0.183,-0.055 0.178,-0.074 0.178,-0.096C0.178,-0.126 0.186,-0.156 0.203,-0.186C0.209,-0.197 0.219,-0.211 0.232,-0.229C0.205,-0.208 0.177,-0.18 0.148,-0.143C0.128,-0.118 0.111,-0.091 0.095,-0.06C0.088,-0.045 0.079,-0.038 0.069,-0.038C0.058,-0.038 0.052,-0.044 0.052,-0.057C0.052,-0.07 0.061,-0.097 0.08,-0.139C0.09,-0.163 0.103,-0.188 0.118,-0.214C0.063,-0.171 0.021,-0.113 -0.007,-0.04C-0.014,-0.023 -0.023,-0.015 -0.035,-0.015C-0.04,-0.015 -0.044,-0.017 -0.047,-0.021C-0.051,-0.025 -0.053,-0.03 -0.053,-0.035C-0.053,-0.054 -0.042,-0.089 -0.021,-0.139C0.002,-0.192 0.027,-0.24 0.056,-0.282C0.075,-0.312 0.09,-0.327 0.101,-0.327C0.111,-0.327 0.116,-0.321 0.116,-0.311C0.116,-0.306 0.11,-0.295 0.098,-0.277C0.076,-0.243 0.063,-0.217 0.056,-0.201Z" style="fill:rgb(97,218,251);fill-rule:nonzero;"/>
            </g>
            <g transform="matrix(144,0,0,144,1108.83,617.314)">
                <path d="M0.1,-0.331C0.105,-0.331 0.11,-0.328 0.113,-0.324C0.116,-0.321 0.117,-0.317 0.117,-0.313C0.117,-0.308 0.112,-0.298 0.103,-0.284C0.069,-0.232 0.045,-0.189 0.031,-0.155C0.015,-0.12 0.002,-0.084 -0.01,-0.047C-0.015,-0.031 -0.023,-0.023 -0.034,-0.023C-0.041,-0.023 -0.046,-0.026 -0.05,-0.031C-0.053,-0.035 -0.055,-0.04 -0.055,-0.044C-0.055,-0.054 -0.045,-0.087 -0.024,-0.142C-0.008,-0.186 0.019,-0.234 0.055,-0.287C0.067,-0.304 0.076,-0.315 0.082,-0.321C0.087,-0.327 0.093,-0.331 0.1,-0.331ZM0.192,-0.512C0.207,-0.512 0.214,-0.504 0.214,-0.489C0.214,-0.476 0.207,-0.46 0.193,-0.444C0.179,-0.428 0.166,-0.42 0.153,-0.42C0.147,-0.42 0.142,-0.422 0.138,-0.427C0.134,-0.431 0.132,-0.436 0.132,-0.442C0.132,-0.458 0.141,-0.475 0.158,-0.492C0.171,-0.505 0.182,-0.512 0.192,-0.512Z" style="fill:rgb(97,218,251);fill-rule:nonzero;"/>
            </g>
            <g transform="matrix(144,0,0,144,1127.81,617.314)">
                <path d="M0.017,-0.072C0.032,-0.072 0.04,-0.062 0.04,-0.043C0.04,-0.013 0.023,0.025 -0.01,0.073C-0.023,0.093 -0.039,0.111 -0.057,0.127C-0.069,0.138 -0.078,0.143 -0.085,0.143C-0.092,0.143 -0.098,0.14 -0.102,0.134C-0.105,0.13 -0.106,0.125 -0.106,0.12C-0.106,0.113 -0.099,0.103 -0.085,0.09C-0.046,0.052 -0.022,0.008 -0.016,-0.043C-0.014,-0.053 -0.01,-0.06 -0.002,-0.065C0.004,-0.07 0.01,-0.072 0.017,-0.072Z" style="fill:rgb(97,218,251);fill-rule:nonzero;"/>
            </g>
        </g>
        <g transform="matrix(1,0,0,1,118.379,91.4999)">
            <g transform="matrix(96,0,0,96,720,583.714)">
                <path d="M0.15,-0.353C0.129,-0.32 0.11,-0.283 0.092,-0.242C0.066,-0.184 0.053,-0.141 0.053,-0.112C0.053,-0.104 0.055,-0.098 0.058,-0.094C0.062,-0.09 0.067,-0.087 0.074,-0.087C0.09,-0.087 0.11,-0.103 0.133,-0.133C0.147,-0.152 0.16,-0.171 0.172,-0.19C0.178,-0.201 0.185,-0.206 0.192,-0.206C0.196,-0.206 0.2,-0.205 0.203,-0.202C0.205,-0.199 0.207,-0.196 0.207,-0.193C0.207,-0.181 0.191,-0.154 0.159,-0.112C0.121,-0.062 0.087,-0.037 0.056,-0.037C0.039,-0.037 0.025,-0.045 0.014,-0.06C0.007,-0.07 0.004,-0.084 0.004,-0.102C0.004,-0.141 0.015,-0.187 0.038,-0.239C0.044,-0.252 0.059,-0.284 0.084,-0.333C0.075,-0.331 0.069,-0.33 0.064,-0.33C0.057,-0.33 0.051,-0.332 0.046,-0.335C0.039,-0.34 0.035,-0.345 0.035,-0.352C0.035,-0.36 0.04,-0.367 0.049,-0.372C0.052,-0.373 0.064,-0.375 0.085,-0.378C0.093,-0.379 0.105,-0.382 0.12,-0.387C0.131,-0.408 0.15,-0.436 0.175,-0.471C0.19,-0.49 0.2,-0.503 0.205,-0.509C0.213,-0.517 0.22,-0.521 0.226,-0.521C0.23,-0.521 0.234,-0.519 0.238,-0.514C0.242,-0.51 0.244,-0.506 0.244,-0.501C0.244,-0.493 0.235,-0.476 0.217,-0.451C0.205,-0.435 0.196,-0.422 0.19,-0.412C0.226,-0.421 0.252,-0.426 0.268,-0.426C0.285,-0.426 0.294,-0.419 0.294,-0.404C0.294,-0.396 0.291,-0.391 0.285,-0.387C0.282,-0.385 0.273,-0.384 0.26,-0.382C0.254,-0.383 0.23,-0.376 0.186,-0.364C0.174,-0.36 0.162,-0.356 0.15,-0.353Z" style="fill:rgb(97,218,251);fill-rule:nonzero;"/>
            </g>
            <g transform="matrix(96,0,0,96,743.438,583.714)">
                <path d="M0.274,-0.674C0.279,-0.674 0.283,-0.673 0.287,-0.67C0.292,-0.666 0.295,-0.66 0.295,-0.653C0.295,-0.639 0.276,-0.595 0.237,-0.521C0.223,-0.495 0.213,-0.479 0.206,-0.473C0.2,-0.469 0.195,-0.467 0.19,-0.467C0.179,-0.467 0.173,-0.474 0.173,-0.49C0.173,-0.499 0.179,-0.515 0.191,-0.538C0.219,-0.596 0.235,-0.628 0.237,-0.634C0.247,-0.661 0.26,-0.674 0.274,-0.674Z" style="fill:rgb(97,218,251);fill-rule:nonzero;"/>
            </g>
            <g transform="matrix(96,0,0,96,755.531,583.714)">
                <path d="M0.115,-0.119C0.104,-0.1 0.094,-0.084 0.083,-0.071C0.063,-0.045 0.043,-0.033 0.022,-0.033C0.005,-0.033 -0.009,-0.041 -0.019,-0.058C-0.025,-0.068 -0.028,-0.081 -0.028,-0.096C-0.028,-0.132 -0.016,-0.172 0.006,-0.215C0.032,-0.264 0.062,-0.301 0.098,-0.327C0.122,-0.344 0.144,-0.353 0.166,-0.353C0.18,-0.353 0.191,-0.348 0.2,-0.34C0.208,-0.332 0.212,-0.324 0.212,-0.314C0.212,-0.307 0.209,-0.297 0.204,-0.285C0.208,-0.278 0.211,-0.272 0.211,-0.267C0.211,-0.26 0.206,-0.249 0.197,-0.233C0.188,-0.217 0.178,-0.196 0.169,-0.169C0.159,-0.141 0.154,-0.119 0.154,-0.102C0.154,-0.088 0.158,-0.077 0.166,-0.068C0.168,-0.066 0.175,-0.062 0.186,-0.057C0.194,-0.053 0.198,-0.046 0.198,-0.037C0.198,-0.03 0.196,-0.025 0.191,-0.021C0.187,-0.017 0.181,-0.015 0.174,-0.015C0.157,-0.015 0.142,-0.023 0.129,-0.039C0.118,-0.051 0.113,-0.067 0.113,-0.086C0.113,-0.093 0.114,-0.104 0.115,-0.119ZM0.176,-0.279C0.172,-0.286 0.168,-0.292 0.164,-0.295C0.159,-0.299 0.154,-0.3 0.149,-0.3C0.124,-0.3 0.097,-0.279 0.068,-0.235C0.036,-0.188 0.021,-0.147 0.021,-0.114C0.021,-0.106 0.022,-0.099 0.025,-0.095C0.028,-0.091 0.033,-0.089 0.039,-0.089C0.055,-0.089 0.073,-0.105 0.094,-0.139C0.105,-0.157 0.12,-0.184 0.137,-0.219C0.149,-0.242 0.157,-0.258 0.162,-0.265C0.165,-0.269 0.169,-0.274 0.176,-0.279Z" style="fill:rgb(97,218,251);fill-rule:nonzero;"/>
            </g>
            <g transform="matrix(96,0,0,96,780.375,583.714)">
                <path d="M0.196,-0.362C0.216,-0.362 0.231,-0.359 0.241,-0.352C0.251,-0.344 0.256,-0.333 0.256,-0.319C0.256,-0.3 0.249,-0.281 0.235,-0.263C0.221,-0.246 0.201,-0.233 0.173,-0.222C0.158,-0.217 0.146,-0.214 0.136,-0.214C0.122,-0.214 0.115,-0.22 0.115,-0.232C0.115,-0.24 0.119,-0.246 0.127,-0.25C0.129,-0.251 0.14,-0.254 0.16,-0.259C0.172,-0.261 0.183,-0.267 0.193,-0.276C0.202,-0.283 0.207,-0.292 0.207,-0.3C0.207,-0.307 0.205,-0.312 0.201,-0.315C0.197,-0.319 0.191,-0.32 0.183,-0.32C0.164,-0.32 0.143,-0.313 0.121,-0.297C0.094,-0.28 0.081,-0.26 0.081,-0.236C0.081,-0.219 0.09,-0.198 0.107,-0.172C0.126,-0.145 0.136,-0.121 0.136,-0.102C0.136,-0.073 0.123,-0.051 0.098,-0.035C0.082,-0.025 0.064,-0.02 0.044,-0.02C0.013,-0.02 -0.011,-0.031 -0.027,-0.053C-0.038,-0.069 -0.044,-0.088 -0.044,-0.11C-0.044,-0.135 -0.037,-0.157 -0.024,-0.174C-0.016,-0.185 -0.007,-0.191 0.002,-0.191C0.01,-0.191 0.014,-0.188 0.014,-0.181C0.014,-0.179 0.013,-0.175 0.01,-0.169C0.002,-0.155 -0.001,-0.139 -0.001,-0.12C-0.001,-0.104 0.004,-0.091 0.016,-0.08C0.026,-0.07 0.037,-0.065 0.05,-0.065C0.063,-0.065 0.073,-0.069 0.08,-0.078C0.086,-0.085 0.089,-0.094 0.089,-0.105C0.089,-0.119 0.081,-0.136 0.065,-0.158C0.044,-0.188 0.033,-0.215 0.033,-0.24C0.033,-0.272 0.051,-0.301 0.086,-0.326C0.121,-0.35 0.157,-0.362 0.196,-0.362Z" style="fill:rgb(97,218,251);fill-rule:nonzero;"/>
            </g>
            <g transform="matrix(96,0,0,96,828.797,583.714)">
                <path d="M0.052,-0.269C0.102,-0.376 0.151,-0.463 0.198,-0.531C0.23,-0.576 0.257,-0.61 0.278,-0.63C0.293,-0.645 0.306,-0.652 0.316,-0.652C0.32,-0.652 0.323,-0.651 0.326,-0.648C0.331,-0.645 0.333,-0.641 0.333,-0.635C0.333,-0.628 0.327,-0.618 0.316,-0.604C0.244,-0.522 0.179,-0.424 0.121,-0.31C0.173,-0.329 0.209,-0.339 0.229,-0.339C0.244,-0.339 0.257,-0.336 0.267,-0.328C0.277,-0.32 0.282,-0.311 0.282,-0.301C0.282,-0.296 0.28,-0.291 0.276,-0.287C0.271,-0.281 0.265,-0.278 0.257,-0.278C0.252,-0.278 0.241,-0.282 0.225,-0.292C0.22,-0.294 0.214,-0.295 0.207,-0.295C0.174,-0.295 0.135,-0.28 0.09,-0.25C0.109,-0.241 0.123,-0.229 0.131,-0.214C0.142,-0.193 0.148,-0.167 0.148,-0.136C0.148,-0.056 0.124,0.028 0.077,0.116C0.056,0.154 0.036,0.183 0.017,0.202C-0.003,0.223 -0.024,0.234 -0.046,0.234C-0.062,0.234 -0.075,0.226 -0.085,0.21C-0.094,0.197 -0.098,0.18 -0.098,0.157C-0.098,0.109 -0.079,0.037 -0.043,-0.06C-0.038,-0.072 -0.025,-0.102 -0.004,-0.15C0.002,-0.162 0.007,-0.175 0.012,-0.189C0.01,-0.188 0.007,-0.188 0.005,-0.188C-0.004,-0.188 -0.008,-0.193 -0.008,-0.203C-0.008,-0.22 0.012,-0.242 0.052,-0.269ZM0.069,-0.205C0.051,-0.17 0.027,-0.114 -0.003,-0.038C-0.034,0.041 -0.05,0.102 -0.05,0.145C-0.05,0.153 -0.048,0.161 -0.043,0.167C-0.039,0.174 -0.034,0.177 -0.027,0.177C-0.007,0.177 0.019,0.143 0.052,0.076C0.089,0 0.108,-0.069 0.108,-0.132C0.108,-0.156 0.103,-0.175 0.094,-0.187C0.09,-0.192 0.082,-0.198 0.069,-0.205Z" style="fill:rgb(97,218,251);fill-rule:nonzero;"/>
            </g>
            <g transform="matrix(96,0,0,96,853.313,583.714)">
                <path d="M0.115,-0.119C0.104,-0.1 0.094,-0.084 0.083,-0.071C0.063,-0.045 0.043,-0.033 0.022,-0.033C0.005,-0.033 -0.009,-0.041 -0.019,-0.058C-0.025,-0.068 -0.028,-0.081 -0.028,-0.096C-0.028,-0.132 -0.016,-0.172 0.006,-0.215C0.032,-0.264 0.062,-0.301 0.098,-0.327C0.122,-0.344 0.144,-0.353 0.166,-0.353C0.18,-0.353 0.191,-0.348 0.2,-0.34C0.208,-0.332 0.212,-0.324 0.212,-0.314C0.212,-0.307 0.209,-0.297 0.204,-0.285C0.208,-0.278 0.211,-0.272 0.211,-0.267C0.211,-0.26 0.206,-0.249 0.197,-0.233C0.188,-0.217 0.178,-0.196 0.169,-0.169C0.159,-0.141 0.154,-0.119 0.154,-0.102C0.154,-0.088 0.158,-0.077 0.166,-0.068C0.168,-0.066 0.175,-0.062 0.186,-0.057C0.194,-0.053 0.198,-0.046 0.198,-0.037C0.198,-0.03 0.196,-0.025 0.191,-0.021C0.187,-0.017 0.181,-0.015 0.174,-0.015C0.157,-0.015 0.142,-0.023 0.129,-0.039C0.118,-0.051 0.113,-0.067 0.113,-0.086C0.113,-0.093 0.114,-0.104 0.115,-0.119ZM0.176,-0.279C0.172,-0.286 0.168,-0.292 0.164,-0.295C0.159,-0.299 0.154,-0.3 0.149,-0.3C0.124,-0.3 0.097,-0.279 0.068,-0.235C0.036,-0.188 0.021,-0.147 0.021,-0.114C0.021,-0.106 0.022,-0.099 0.025,-0.095C0.028,-0.091 0.033,-0.089 0.039,-0.089C0.055,-0.089 0.073,-0.105 0.094,-0.139C0.105,-0.157 0.12,-0.184 0.137,-0.219C0.149,-0.242 0.157,-0.258 0.162,-0.265C0.165,-0.269 0.169,-0.274 0.176,-0.279Z" style="fill:rgb(97,218,251);fill-rule:nonzero;"/>
            </g>
            <g transform="matrix(96,0,0,96,878.156,583.714)">
                <path d="M0.1,-0.331C0.105,-0.331 0.11,-0.328 0.113,-0.324C0.116,-0.321 0.117,-0.317 0.117,-0.313C0.117,-0.308 0.112,-0.298 0.103,-0.284C0.069,-0.232 0.045,-0.189 0.031,-0.155C0.015,-0.12 0.002,-0.084 -0.01,-0.047C-0.015,-0.031 -0.023,-0.023 -0.034,-0.023C-0.041,-0.023 -0.046,-0.026 -0.05,-0.031C-0.053,-0.035 -0.055,-0.04 -0.055,-0.044C-0.055,-0.054 -0.045,-0.087 -0.024,-0.142C-0.008,-0.186 0.019,-0.234 0.055,-0.287C0.067,-0.304 0.076,-0.315 0.082,-0.321C0.087,-0.327 0.093,-0.331 0.1,-0.331ZM0.192,-0.512C0.207,-0.512 0.214,-0.504 0.214,-0.489C0.214,-0.476 0.207,-0.46 0.193,-0.444C0.179,-0.428 0.166,-0.42 0.153,-0.42C0.147,-0.42 0.142,-0.422 0.138,-0.427C0.134,-0.431 0.132,-0.436 0.132,-0.442C0.132,-0.458 0.141,-0.475 0.158,-0.492C0.171,-0.505 0.182,-0.512 0.192,-0.512Z" style="fill:rgb(97,218,251);fill-rule:nonzero;"/>
            </g>
            <g transform="matrix(96,0,0,96,890.813,583.714)">
                <path d="M0.056,-0.201C0.083,-0.229 0.107,-0.252 0.128,-0.268C0.16,-0.292 0.181,-0.305 0.191,-0.305C0.197,-0.305 0.201,-0.303 0.205,-0.299C0.209,-0.295 0.21,-0.291 0.21,-0.287C0.21,-0.281 0.205,-0.271 0.193,-0.257C0.176,-0.235 0.164,-0.216 0.157,-0.2C0.233,-0.277 0.285,-0.315 0.313,-0.315C0.319,-0.315 0.324,-0.313 0.328,-0.31C0.333,-0.306 0.335,-0.301 0.335,-0.295C0.335,-0.286 0.328,-0.274 0.314,-0.26C0.252,-0.196 0.222,-0.144 0.222,-0.104C0.222,-0.087 0.225,-0.075 0.23,-0.068L0.243,-0.052C0.246,-0.049 0.247,-0.045 0.247,-0.041C0.247,-0.035 0.245,-0.03 0.241,-0.026C0.236,-0.021 0.23,-0.018 0.224,-0.018C0.213,-0.018 0.203,-0.025 0.194,-0.039C0.183,-0.055 0.178,-0.074 0.178,-0.096C0.178,-0.126 0.186,-0.156 0.203,-0.186C0.209,-0.197 0.219,-0.211 0.232,-0.229C0.205,-0.208 0.177,-0.18 0.148,-0.143C0.128,-0.118 0.111,-0.091 0.095,-0.06C0.088,-0.045 0.079,-0.038 0.069,-0.038C0.058,-0.038 0.052,-0.044 0.052,-0.057C0.052,-0.07 0.061,-0.097 0.08,-0.139C0.09,-0.163 0.103,-0.188 0.118,-0.214C0.063,-0.171 0.021,-0.113 -0.007,-0.04C-0.014,-0.023 -0.023,-0.015 -0.035,-0.015C-0.04,-0.015 -0.044,-0.017 -0.047,-0.021C-0.051,-0.025 -0.053,-0.03 -0.053,-0.035C-0.053,-0.054 -0.042,-0.089 -0.021,-0.139C0.002,-0.192 0.027,-0.24 0.056,-0.282C0.075,-0.312 0.09,-0.327 0.101,-0.327C0.111,-0.327 0.116,-0.321 0.116,-0.311C0.116,-0.306 0.11,-0.295 0.098,-0.277C0.076,-0.243 0.063,-0.217 0.056,-0.201Z" style="fill:rgb(97,218,251);fill-rule:nonzero;"/>
            </g>
            <g transform="matrix(96,0,0,96,924.891,583.714)">
                <path d="M0.382,-0.612C0.337,-0.612 0.285,-0.582 0.227,-0.522C0.207,-0.503 0.192,-0.493 0.183,-0.493C0.178,-0.493 0.174,-0.494 0.171,-0.498C0.167,-0.502 0.166,-0.506 0.166,-0.511C0.166,-0.532 0.185,-0.558 0.224,-0.589C0.277,-0.632 0.329,-0.653 0.38,-0.653C0.406,-0.653 0.429,-0.645 0.449,-0.629C0.47,-0.612 0.481,-0.59 0.481,-0.563C0.481,-0.532 0.465,-0.5 0.435,-0.467C0.411,-0.441 0.374,-0.41 0.324,-0.374C0.285,-0.345 0.26,-0.326 0.249,-0.314C0.224,-0.291 0.205,-0.268 0.192,-0.244C0.185,-0.228 0.178,-0.214 0.171,-0.2C0.163,-0.184 0.152,-0.176 0.138,-0.176C0.124,-0.176 0.116,-0.183 0.116,-0.196C0.116,-0.211 0.129,-0.239 0.155,-0.28C0.174,-0.31 0.203,-0.341 0.242,-0.372C0.265,-0.39 0.29,-0.409 0.316,-0.427C0.36,-0.457 0.388,-0.479 0.4,-0.491C0.426,-0.517 0.438,-0.542 0.438,-0.565C0.438,-0.581 0.434,-0.593 0.425,-0.6C0.415,-0.608 0.401,-0.612 0.382,-0.612ZM0.115,-0.074C0.122,-0.074 0.128,-0.07 0.133,-0.064C0.137,-0.06 0.138,-0.054 0.138,-0.048C0.138,-0.033 0.134,-0.016 0.125,0C0.117,0.018 0.105,0.027 0.091,0.027C0.076,0.027 0.068,0.019 0.068,0.002C0.068,-0.015 0.074,-0.032 0.084,-0.05C0.093,-0.066 0.104,-0.074 0.115,-0.074Z" style="fill:rgb(97,218,251);fill-rule:nonzero;"/>
            </g>
        </g>
        <g transform="matrix(0.965926,0.258819,-0.258819,0.965926,234.624,-222.147)">
            <path d="M1050,749.617C1050,744.309 1045.69,740 1040.38,740L881.617,740C876.309,740 872,744.309 872,749.617L872,810.383C872,815.691 876.309,820 881.617,820L1040.38,820C1045.69,820 1050,815.691 1050,810.383L1050,749.617Z" style="fill:none;stroke:rgb(97,218,251);stroke-width:1px;"/>
        </g>
        <g transform="matrix(1,0,0,1,0,-2.49952)">
            <g transform="matrix(48,0,0,48,930,798.599)">
                <path d="M0.304,-0.605C0.28,-0.601 0.251,-0.59 0.218,-0.571C0.211,-0.567 0.205,-0.565 0.201,-0.565C0.197,-0.565 0.192,-0.568 0.188,-0.572C0.183,-0.577 0.181,-0.583 0.181,-0.59C0.181,-0.598 0.185,-0.604 0.193,-0.61C0.213,-0.625 0.237,-0.637 0.267,-0.646C0.302,-0.659 0.335,-0.665 0.366,-0.665C0.406,-0.665 0.438,-0.651 0.462,-0.624C0.485,-0.6 0.496,-0.57 0.496,-0.535C0.496,-0.476 0.472,-0.405 0.425,-0.321C0.373,-0.232 0.311,-0.151 0.237,-0.08C0.174,-0.02 0.121,0.01 0.076,0.01C0.049,0.01 0.028,-0.002 0.012,-0.026C-0.001,-0.045 -0.007,-0.067 -0.007,-0.091C-0.007,-0.152 0.014,-0.223 0.057,-0.303C0.113,-0.411 0.196,-0.512 0.304,-0.605ZM0.33,-0.61C0.335,-0.604 0.338,-0.598 0.338,-0.593C0.338,-0.589 0.329,-0.577 0.312,-0.558C0.24,-0.481 0.187,-0.417 0.152,-0.366C0.117,-0.313 0.089,-0.26 0.07,-0.207C0.057,-0.169 0.05,-0.135 0.05,-0.105C0.05,-0.09 0.053,-0.078 0.059,-0.068C0.067,-0.056 0.077,-0.05 0.092,-0.05C0.122,-0.05 0.163,-0.076 0.213,-0.126C0.278,-0.191 0.33,-0.258 0.371,-0.327C0.417,-0.406 0.44,-0.473 0.44,-0.529C0.44,-0.555 0.431,-0.576 0.415,-0.593C0.402,-0.605 0.384,-0.612 0.361,-0.612L0.33,-0.61Z" style="fill:rgb(97,218,251);fill-rule:nonzero;"/>
            </g>
            <g transform="matrix(48,0,0,48,951.398,798.599)">
                <path d="M0.453,-0.426C0.424,-0.392 0.363,-0.312 0.27,-0.186C0.231,-0.134 0.195,-0.09 0.161,-0.054C0.123,-0.014 0.091,0.006 0.065,0.006C0.048,0.006 0.034,-0.003 0.022,-0.022C0.015,-0.036 0.011,-0.052 0.011,-0.07C0.011,-0.13 0.037,-0.211 0.089,-0.313C0.14,-0.413 0.206,-0.509 0.288,-0.604C0.322,-0.643 0.346,-0.662 0.359,-0.662C0.363,-0.662 0.367,-0.66 0.372,-0.657C0.377,-0.652 0.38,-0.646 0.38,-0.639C0.38,-0.629 0.373,-0.617 0.357,-0.601C0.353,-0.597 0.328,-0.568 0.281,-0.513C0.22,-0.442 0.167,-0.359 0.121,-0.265C0.102,-0.224 0.086,-0.185 0.075,-0.147C0.067,-0.121 0.063,-0.1 0.063,-0.085C0.063,-0.078 0.065,-0.073 0.068,-0.067C0.072,-0.061 0.077,-0.058 0.084,-0.058C0.097,-0.058 0.115,-0.072 0.139,-0.099C0.199,-0.167 0.296,-0.291 0.432,-0.468C0.466,-0.513 0.505,-0.56 0.548,-0.609C0.56,-0.622 0.569,-0.632 0.576,-0.638C0.583,-0.644 0.59,-0.647 0.6,-0.647C0.606,-0.647 0.611,-0.645 0.616,-0.64C0.62,-0.635 0.622,-0.631 0.622,-0.625C0.622,-0.617 0.615,-0.602 0.6,-0.58C0.526,-0.469 0.468,-0.363 0.425,-0.262C0.383,-0.163 0.361,-0.089 0.359,-0.041C0.359,-0.023 0.358,-0.013 0.356,-0.009C0.353,-0.003 0.349,0 0.342,0C0.332,0 0.323,-0.004 0.316,-0.013C0.311,-0.02 0.308,-0.028 0.308,-0.038C0.308,-0.059 0.314,-0.092 0.325,-0.135C0.339,-0.189 0.362,-0.249 0.394,-0.314C0.396,-0.318 0.415,-0.355 0.453,-0.426Z" style="fill:rgb(97,218,251);fill-rule:nonzero;"/>
            </g>
            <g transform="matrix(48,0,0,48,976.359,798.599)">
                <path d="M0.341,-0.661C0.346,-0.661 0.351,-0.658 0.356,-0.652C0.36,-0.647 0.362,-0.642 0.362,-0.636C0.362,-0.628 0.358,-0.617 0.349,-0.603C0.345,-0.596 0.329,-0.574 0.301,-0.535C0.172,-0.357 0.088,-0.196 0.051,-0.052C0.047,-0.029 0.038,-0.018 0.025,-0.018C0.018,-0.018 0.011,-0.021 0.006,-0.028C0.001,-0.034 -0.002,-0.041 -0.002,-0.049C-0.002,-0.065 0.006,-0.095 0.021,-0.139C0.057,-0.241 0.121,-0.362 0.214,-0.503C0.252,-0.561 0.282,-0.605 0.306,-0.634C0.321,-0.652 0.333,-0.661 0.341,-0.661Z" style="fill:rgb(97,218,251);fill-rule:nonzero;"/>
            </g>
        </g>
    </g>
</svg>
