<?xml version="1.0" encoding="UTF-8" standalone="no"?>
<!DOCTYPE svg PUBLIC "-//W3C//DTD SVG 1.1//EN" "http://www.w3.org/Graphics/SVG/1.1/DTD/svg11.dtd">
<svg width="100%" height="100%" viewBox="0 0 1080 1080" version="1.1" xmlns="http://www.w3.org/2000/svg" xmlns:xlink="http://www.w3.org/1999/xlink" xml:space="preserve" xmlns:serif="http://www.serif.com/" style="fill-rule:evenodd;clip-rule:evenodd;stroke-linejoin:round;stroke-miterlimit:2;">
    <g id="Layer-1" serif:id="Layer 1" transform="matrix(0.862634,0,0,0.862634,77.4637,-63.8522)">
        <g transform="matrix(0.997564,-0.0697565,0.0697565,0.997564,415.31,187.657)">
            <path d="M0,451.554C-1.714,451.554 -3.438,450.983 -4.866,449.809C-39.04,421.693 -65.75,386.861 -84.253,346.28C-103.635,303.773 -112.985,257.015 -112.042,207.305C-110.333,117.261 -95.447,140.884 -96.713,207.596C-97.612,254.996 -88.727,299.515 -70.303,339.92C-52.775,378.359 -27.482,411.349 4.875,437.969C8.144,440.659 8.614,445.49 5.924,448.759C4.409,450.601 2.213,451.554 0,451.554" style="fill:rgb(97,218,251);fill-rule:nonzero;"/>
        </g>
        <g transform="matrix(0.997564,-0.0697565,0.0697565,0.997564,711.244,310.295)">
            <path d="M0,136.877C-5.939,136.877 -10.001,135.04 -10.669,134.717L-3.991,120.916L-4.138,120.847C-3.952,120.926 0.538,122.79 6.413,120.041C12.761,117.071 21.894,108.302 29.35,83.388C35.729,62.069 34.673,38.062 26.781,25.006C24.269,20.851 21.215,17.886 17.527,16.045C14.468,14.519 12.708,11.233 13.362,7.877L13.45,7.429C14.371,2.707 19.507,0 23.843,2.085C30.335,5.208 35.795,10.282 39.902,17.076C52.389,37.735 49.935,68.078 44.037,87.784C36.616,112.584 25.909,128.214 12.219,134.242C7.699,136.232 3.519,136.877 0,136.877" style="fill:rgb(97,218,251);fill-rule:nonzero;"/>
        </g>
        <g transform="matrix(-0.829647,0.558288,0.558288,0.829647,760.695,277.274)">
            <path d="M58.122,-106.58C58.122,-106.58 58.591,-29.042 93.824,53.84C93.824,53.84 76.415,57.384 58.122,35.743C39.828,14.104 -31.005,-87.779 -4.955,-124.479C21.096,-161.179 58.122,-106.58 58.122,-106.58" style="fill:rgb(97,218,251);fill-rule:nonzero;"/>
        </g>
        <g transform="matrix(0.997564,-0.0697565,0.0697565,0.997564,318.32,333.162)">
            <path d="M0,141.475C-3.52,141.475 -7.698,140.83 -12.219,138.84C-25.91,132.812 -36.615,117.182 -44.038,92.382C-51.38,67.848 -51.625,33.119 -34.812,14.847C-28.205,7.664 -16.097,0 4.045,4.244C8.188,5.116 10.838,9.183 9.966,13.326C9.093,17.468 5.031,20.122 0.884,19.246C-9.773,17.002 -17.758,18.958 -23.53,25.226C-32.755,35.252 -37.716,60.029 -29.35,87.986C-21.894,112.9 -12.761,121.669 -6.413,124.639C-0.537,127.39 3.949,125.524 4.139,125.445L3.991,125.514L10.668,139.315C10.001,139.638 5.937,141.475 0,141.475" style="fill:rgb(97,218,251);fill-rule:nonzero;"/>
        </g>
        <g transform="matrix(0.997564,-0.0697565,0.0697565,0.997564,318.111,94.2677)">
            <path d="M-8.79,300.845C-8.79,300.845 -61.271,110.386 29.178,70.996C37.452,67.393 42.451,60.219 48.785,54.206C56.977,46.431 147.829,0 245.085,0C330.289,0 396.804,42.792 411.393,79.75C411.393,79.75 390.237,163.438 300.521,164.362C210.804,165.287 65.648,143.938 46.683,181.868C27.718,219.798 23.729,280.43 -8.79,300.845" style="fill:rgb(97,218,251);fill-rule:nonzero;"/>
        </g>
        <g transform="matrix(0.997564,-0.0697565,0.0697565,0.997564,520.308,403.146)">
            <path d="M0,269.464C-4.234,269.464 -7.666,266.032 -7.666,261.799C-7.666,257.565 -4.234,254.133 0,254.133C42.154,254.133 86.871,227.769 122.685,181.8C159.715,134.27 182.817,70.736 186.068,7.492C186.285,3.265 189.845,0 194.117,0.231C198.344,0.447 201.595,4.051 201.377,8.279C197.92,75.565 174.268,140.536 134.78,191.222C96.04,240.945 46.915,269.464 0,269.464" style="fill:rgb(97,218,251);fill-rule:nonzero;"/>
        </g>
        <g transform="matrix(0.868829,3.1225e-17,-0.11701,0.550489,84.6926,769.7)">
            <path d="M90.362,154.239C89.335,154.239 88.292,154.032 87.291,153.593C83.413,151.894 81.645,147.374 83.344,143.496L92.418,120.184C111.369,76.914 148.283,44.733 193.693,31.891C237.781,19.426 300.538,3.828 349.145,0.311C353.365,0 357.037,3.182 357.344,7.405C357.649,11.627 354.474,15.299 350.251,15.603C302.933,19.026 241.266,34.373 197.866,46.644C156.883,58.233 123.567,87.279 106.461,126.334L97.388,149.646C96.128,152.524 93.314,154.239 90.362,154.239" style="fill:rgb(97,218,251);fill-rule:nonzero;"/>
        </g>
        <g transform="matrix(0.830339,0.146411,0.019641,0.562444,981.581,822.019)">
            <path d="M-91.032,151.514C-93.984,151.514 -96.798,149.799 -98.058,146.921L-106.463,126.334C-123.566,87.279 -156.882,58.233 -197.866,46.644C-241.265,34.373 -302.931,19.026 -350.25,15.603C-354.474,15.299 -357.649,11.627 -357.344,7.405C-357.038,3.182 -353.345,0 -349.146,0.311C-300.535,3.828 -237.78,19.426 -193.695,31.891C-148.284,44.731 -111.37,76.914 -92.419,120.184L-84.014,140.771C-82.316,144.649 -84.083,149.169 -87.961,150.868C-88.961,151.307 -90.006,151.514 -91.032,151.514" style="fill:rgb(97,218,251);fill-rule:nonzero;"/>
        </g>
        <g transform="matrix(1,0,0,1,448.647,623.285)">
            <path d="M0,104.118C-0.335,104.118 -0.674,104.096 -1.016,104.051C-5.212,103.495 -8.165,99.641 -7.608,95.444C-2.452,56.487 -8.928,9.737 -8.994,9.27C-9.586,5.078 -6.668,1.2 -2.477,0.607C1.711,0 5.591,2.931 6.186,7.123C6.468,9.114 13.027,56.38 7.589,97.457C7.08,101.312 3.787,104.118 0,104.118" style="fill:rgb(97,218,251);fill-rule:nonzero;"/>
        </g>
        <g transform="matrix(1,0,0,1,632.404,623.291)">
            <path d="M0,103.974C-3.789,103.974 -7.083,101.165 -7.591,97.307C-12.994,56.263 -12.998,0.597 -12.717,-1.39C-12.125,-5.584 -8.258,-8.507 -4.054,-7.906C0.137,-7.313 3.054,-3.435 2.464,0.757C2.397,1.223 2.484,56.376 7.609,95.307C8.162,99.503 5.208,103.354 1.01,103.907C0.671,103.952 0.333,103.974 0,103.974" style="fill:rgb(97,218,251);fill-rule:nonzero;"/>
        </g>
        <g transform="matrix(0.997564,-0.0697565,0.0697565,0.997564,524.354,533.581)">
            <path d="M0,21.814C-14.592,21.814 -24.696,20.226 -25.47,20.101C-29.649,19.424 -32.488,15.487 -31.811,11.308C-31.133,7.13 -27.194,4.302 -23.024,4.966C-22.698,5.02 9.969,10.092 41.995,1.143C46.075,0 50.302,2.384 51.44,6.463C52.58,10.54 50.198,14.769 46.121,15.909C29.479,20.559 12.967,21.814 0,21.814" style="fill:rgb(97,218,251);fill-rule:nonzero;"/>
        </g>
        <g transform="matrix(0.997564,-0.0697565,0.0697565,0.997564,547.972,390.576)">
            <path d="M0,23.319C-0.825,23.319 -1.664,23.186 -2.488,22.902C-22.436,16.056 -45.334,22.037 -45.563,22.099C-49.647,23.187 -53.852,20.771 -54.952,16.688C-56.051,12.603 -53.642,8.403 -49.561,7.298C-48.447,6.998 -21.993,0 2.488,8.401C6.491,9.775 8.625,14.135 7.251,18.14C6.159,21.32 3.185,23.319 0,23.319" style="fill:rgb(97,218,251);fill-rule:nonzero;"/>
        </g>
        <g transform="matrix(0.997564,-0.0697565,0.0697565,0.997564,385.658,456.085)">
            <path d="M0,-47.349C-0.493,-35.503 -0.414,-21.777 3.86,-9.688C13.95,18.85 43.809,22.992 68.392,17.354C102.992,9.418 107.985,-24.651 107.882,-44.254C107.854,-49.767 104.775,-54.519 100.039,-56.364C92.115,-59.448 78.094,-63.462 56.292,-65.062C33.391,-66.738 17.299,-62.529 7.831,-58.701C3.414,-56.914 0.346,-52.463 0,-47.349M49.738,34.904C20.954,34.904 -1.687,20.612 -10.594,-4.577C-15.749,-19.157 -15.873,-34.748 -15.314,-48.078L-15.306,-48.237C-14.617,-59.235 -7.792,-68.921 2.083,-72.913C13.061,-77.354 31.577,-82.253 57.415,-80.352C81.114,-78.612 96.699,-74.116 105.602,-70.65C116.238,-66.51 123.152,-56.18 123.213,-44.335C123.429,-3.176 104.697,24.756 71.819,32.296C64.167,34.052 56.769,34.904 49.738,34.904" style="fill:rgb(97,218,251);fill-rule:nonzero;"/>
        </g>
        <g transform="matrix(0.997564,-0.0697565,0.0697565,0.997564,690.494,373.612)">
            <path d="M0,15.331L-17.667,15.331C-21.901,15.331 -25.333,11.899 -25.333,7.665C-25.333,3.431 -21.901,0 -17.667,0L0,0C4.233,0 7.665,3.431 7.665,7.665C7.665,11.899 4.233,15.331 0,15.331" style="fill:rgb(97,218,251);fill-rule:nonzero;"/>
        </g>
        <g transform="matrix(0.997564,-0.0697565,0.0697565,0.997564,373.55,395.775)">
            <path d="M0,15.331L-17.667,15.331C-21.9,15.331 -25.332,11.899 -25.332,7.665C-25.332,3.431 -21.9,0 -17.667,0L0,0C4.233,0 7.666,3.431 7.666,7.665C7.666,11.899 4.233,15.331 0,15.331" style="fill:rgb(97,218,251);fill-rule:nonzero;"/>
        </g>
        <g transform="matrix(0.997564,-0.0697565,0.0697565,0.997564,622.276,457.676)">
            <path d="M0,-83.536C-3.232,-83.536 -6.626,-83.416 -10.187,-83.156C-31.989,-81.555 -46.01,-77.541 -53.932,-74.457C-58.669,-72.612 -61.747,-67.86 -61.775,-62.348C-61.879,-42.744 -56.886,-8.674 -22.285,-0.739C2.297,4.899 32.157,0.756 42.245,-27.782C46.519,-39.867 46.6,-53.595 46.106,-65.444C45.759,-70.558 42.693,-75.008 38.276,-76.792C30.279,-80.028 17.558,-83.536 0,-83.536M-3.632,16.811C-10.664,16.811 -18.059,15.959 -25.714,14.203C-58.591,6.663 -77.322,-21.267 -77.107,-62.429C-77.046,-74.273 -70.132,-84.603 -59.494,-88.743C-50.595,-92.209 -35.009,-96.705 -11.31,-98.445C14.543,-100.347 33.047,-95.448 44.024,-91.005C53.898,-87.014 60.724,-77.328 61.412,-66.33L61.422,-66.171C61.979,-52.84 61.854,-37.247 56.699,-22.67C47.794,2.517 25.148,16.811 -3.632,16.811" style="fill:rgb(97,218,251);fill-rule:nonzero;"/>
        </g>
        <g transform="matrix(1,3.46945e-18,0,1,591.333,783.163)">
            <path d="M0,25.382L-21.511,50.289L-82.259,50.289L-102.39,25.382L-72.262,-24.696C-72.262,-24.696 -62.053,-21.493 -50.799,-21.493C-39.545,-21.493 -30.542,-24.907 -30.542,-24.907L0,25.382Z" style="fill:rgb(97,218,251);fill-rule:nonzero;"/>
        </g>
        <g transform="matrix(0.997564,-0.0697565,0.0697565,0.997564,528.14,569.673)">
            <path d="M0,17.053C-1.506,17.053 -2.981,16.316 -3.861,14.959C-5.245,12.829 -4.64,9.981 -2.509,8.597C10.716,0 22.765,6.215 23.271,6.485C25.513,7.675 26.367,10.459 25.175,12.704C23.99,14.937 21.224,15.792 18.991,14.626C18.595,14.427 11.035,10.768 2.5,16.311C1.728,16.814 0.858,17.053 0,17.053" style="fill:rgb(97,218,251);fill-rule:nonzero;"/>
        </g>
        <g transform="matrix(1,3.46945e-18,0,1,573.288,788.912)">
            <path d="M0,-24.757L36.431,35.776C49.668,32.207 85.775,20.096 109.105,-10.406L58.447,-58.284C48.957,-48.751 27.99,-30.766 0,-24.757M32.757,52.206C30.103,52.206 27.593,50.826 26.19,48.493L-19.065,-26.703C-20.436,-28.98 -20.528,-31.803 -19.312,-34.164C-18.097,-36.527 -15.745,-38.091 -13.097,-38.298C24.708,-41.264 51.892,-73.717 52.16,-74.045C53.513,-75.683 55.486,-76.691 57.604,-76.822C59.72,-76.963 61.806,-76.205 63.348,-74.747L124.496,-16.955C127.215,-14.386 127.683,-10.229 125.602,-7.12C93.767,40.436 36.588,51.622 34.169,52.076C33.697,52.164 33.224,52.206 32.757,52.206" style="fill:rgb(97,218,251);fill-rule:nonzero;"/>
        </g>
        <g transform="matrix(1,3.46945e-18,0,1,397.605,774.558)">
            <path d="M0,3.948C23.327,34.446 59.429,46.558 72.676,50.131L109.106,-10.403C81.117,-16.411 60.151,-34.397 50.659,-43.93L0,3.948ZM76.349,66.56C75.881,66.56 75.409,66.518 74.937,66.43C72.519,65.976 15.34,54.791 -16.495,7.234C-18.576,4.126 -18.109,-0.031 -15.39,-2.601L45.759,-60.393C47.305,-61.854 49.396,-62.612 51.511,-62.473C53.634,-62.338 55.604,-61.325 56.953,-59.682C57.216,-59.363 84.398,-26.909 122.202,-23.944C124.851,-23.737 127.203,-22.172 128.419,-19.81C129.634,-17.448 129.542,-14.625 128.172,-12.349L82.916,62.847C81.512,65.178 79.003,66.56 76.349,66.56" style="fill:rgb(97,218,251);fill-rule:nonzero;"/>
        </g>
        <g transform="matrix(1,0,0,1,538.901,749.539)">
            <path d="M0,24.821C-1.028,24.821 -2.056,24.614 -3.02,24.201L-22.712,15.762C-26.604,14.094 -28.406,9.59 -26.738,5.697C-25.07,1.805 -20.567,0 -16.672,1.671L0.153,8.88L19.132,1.564C23.087,0.039 27.521,2.009 29.041,5.959C30.564,9.91 28.597,14.346 24.647,15.869L2.758,24.307C1.87,24.65 0.935,24.821 0,24.821" style="fill:rgb(97,218,251);fill-rule:nonzero;"/>
        </g>
        <g transform="matrix(0.997564,-0.0697565,0.0697565,0.997564,526.305,488.816)">
            <path d="M0,19.877C-8.194,19.877 -14.422,15.247 -15.105,14.719C-18.456,12.129 -19.073,7.312 -16.483,3.961C-13.91,0.633 -9.138,0 -5.786,2.537C-5.012,3.102 -2.497,4.54 0,4.54C2.388,4.54 5.163,2.968 5.948,2.417C9.388,0.001 14.169,0.785 16.62,4.209C19.069,7.631 18.333,12.365 14.935,14.846C14.229,15.361 7.814,19.877 0,19.877" style="fill:rgb(97,218,251);fill-rule:nonzero;"/>
        </g>
        <g transform="matrix(0.997564,-0.0697565,0.0697565,0.997564,-38.4227,38.7161)">
            <circle cx="449" cy="406" r="17" style="fill:rgb(97,218,251);"/>
        </g>
        <g transform="matrix(0.997564,-0.0697565,0.0697565,0.997564,138.146,26.3692)">
            <circle cx="449" cy="406" r="17" style="fill:rgb(97,218,251);"/>
        </g>
        <g transform="matrix(0.984808,0.173648,-0.173648,0.984808,151.198,-73.6922)">
            <path d="M593.962,1278L540,1326L486.421,1276.58L510.454,820.7L569.78,820.7L593.962,1278Z" style="fill:rgb(97,218,251);fill-rule:nonzero;"/>
        </g>
        <g transform="matrix(1.15642,-0.0808645,0.0808645,1.15642,-129.199,113.638)">
            <path d="M565,237C581.333,238.5 664.667,232.667 665,230C665.333,227.333 594.211,221.076 577.545,222.243C572.183,222.618 559.648,236.508 565,237Z" style="fill:rgb(97,218,251);"/>
        </g>
        <g transform="matrix(-1.15642,0.0808645,0.0808645,1.15642,1130.2,37.3461)">
            <path d="M565,237C581.333,238.5 664.667,232.667 665,230C665.333,227.333 595.211,220.933 578.545,222.099C573.183,222.475 559.648,236.508 565,237Z" style="fill:rgb(97,218,251);"/>
        </g>
    </g>
</svg>
