<?xml version="1.0" encoding="UTF-8" standalone="no"?>
<!DOCTYPE svg PUBLIC "-//W3C//DTD SVG 1.1//EN" "http://www.w3.org/Graphics/SVG/1.1/DTD/svg11.dtd">
<svg width="100%" height="100%" viewBox="0 0 1920 1080" version="1.1" xmlns="http://www.w3.org/2000/svg" xmlns:xlink="http://www.w3.org/1999/xlink" xml:space="preserve" xmlns:serif="http://www.serif.com/" style="fill-rule:evenodd;clip-rule:evenodd;stroke-linecap:round;stroke-linejoin:round;stroke-miterlimit:1.5;">
    <g id="Layer1" transform="matrix(1,0,0,1,-1,98.1)">
        <path d="M1035,539.75C1035,537.128 1032.87,535 1030.25,535L945.75,535C943.128,535 941,537.128 941,539.75L941,549.25C941,551.872 943.128,554 945.75,554L1030.25,554C1032.87,554 1035,551.872 1035,549.25L1035,539.75Z" style="fill:rgb(97,218,251);stroke:rgb(97,218,251);stroke-width:1px;"/>
        <g transform="matrix(1,0,0,1,0,47.5)">
            <path d="M1035,539.75C1035,537.128 1032.87,535 1030.25,535L945.75,535C943.128,535 941,537.128 941,539.75L941,549.25C941,551.872 943.128,554 945.75,554L1030.25,554C1032.87,554 1035,551.872 1035,549.25L1035,539.75Z" style="fill:rgb(97,218,251);stroke:rgb(97,218,251);stroke-width:1px;"/>
        </g>
        <g transform="matrix(1,0,0,1,0,94.75)">
            <path d="M1035,539.75C1035,537.128 1032.87,535 1030.25,535L945.75,535C943.128,535 941,537.128 941,539.75L941,549.25C941,551.872 943.128,554 945.75,554L1030.25,554C1032.87,554 1035,551.872 1035,549.25L1035,539.75Z" style="fill:rgb(97,218,251);stroke:rgb(97,218,251);stroke-width:1px;"/>
        </g>
        <g transform="matrix(1,0,0,1,0.5,-2)">
            <g transform="matrix(30,0,0,30,1014,436)">
                <path d="M0.412,-0.666C0.433,-0.666 0.45,-0.658 0.462,-0.643C0.471,-0.63 0.476,-0.615 0.476,-0.598C0.476,-0.566 0.465,-0.53 0.444,-0.49C0.426,-0.455 0.403,-0.424 0.375,-0.396C0.357,-0.378 0.342,-0.369 0.332,-0.369C0.325,-0.369 0.319,-0.373 0.313,-0.379C0.309,-0.384 0.307,-0.39 0.307,-0.396C0.307,-0.407 0.317,-0.42 0.336,-0.435C0.364,-0.456 0.387,-0.479 0.403,-0.503C0.428,-0.539 0.44,-0.569 0.44,-0.594C0.44,-0.604 0.438,-0.612 0.433,-0.617C0.429,-0.622 0.422,-0.624 0.414,-0.624C0.396,-0.624 0.37,-0.611 0.337,-0.585C0.3,-0.556 0.26,-0.516 0.219,-0.465C0.166,-0.401 0.125,-0.338 0.098,-0.276C0.069,-0.211 0.055,-0.156 0.055,-0.111C0.055,-0.089 0.061,-0.07 0.074,-0.055C0.088,-0.038 0.105,-0.029 0.125,-0.029C0.16,-0.029 0.204,-0.057 0.258,-0.111C0.274,-0.128 0.293,-0.152 0.316,-0.184C0.331,-0.204 0.34,-0.218 0.345,-0.227C0.35,-0.236 0.355,-0.241 0.362,-0.241C0.369,-0.241 0.373,-0.237 0.373,-0.23C0.373,-0.216 0.354,-0.183 0.318,-0.132C0.288,-0.089 0.254,-0.054 0.218,-0.027C0.177,0.003 0.138,0.018 0.102,0.018C0.063,0.018 0.034,0.001 0.013,-0.033C0,-0.055 -0.007,-0.08 -0.007,-0.108C-0.007,-0.178 0.026,-0.267 0.093,-0.374C0.149,-0.465 0.209,-0.539 0.272,-0.594C0.326,-0.642 0.373,-0.666 0.412,-0.666Z" style="fill:rgb(97,218,251);fill-rule:nonzero;"/>
            </g>
            <g transform="matrix(30,0,0,30,1026.54,436)">
                <path d="M0.052,-0.2C0.042,-0.175 0.035,-0.154 0.03,-0.139C0.025,-0.123 0.022,-0.112 0.022,-0.106C0.022,-0.098 0.026,-0.094 0.034,-0.094C0.046,-0.094 0.061,-0.105 0.08,-0.127C0.088,-0.138 0.101,-0.157 0.119,-0.185C0.125,-0.196 0.133,-0.202 0.14,-0.202C0.149,-0.202 0.153,-0.198 0.153,-0.189C0.153,-0.175 0.137,-0.147 0.104,-0.104C0.071,-0.06 0.04,-0.038 0.011,-0.038C-0.001,-0.038 -0.011,-0.043 -0.019,-0.053C-0.025,-0.061 -0.027,-0.07 -0.027,-0.081C-0.027,-0.099 -0.022,-0.124 -0.011,-0.156C0,-0.188 0.017,-0.228 0.039,-0.274C0.095,-0.391 0.152,-0.488 0.21,-0.564C0.257,-0.626 0.295,-0.656 0.326,-0.656C0.335,-0.656 0.343,-0.653 0.35,-0.645C0.356,-0.638 0.359,-0.629 0.359,-0.619C0.359,-0.574 0.319,-0.498 0.237,-0.392C0.201,-0.344 0.157,-0.297 0.106,-0.25C0.093,-0.238 0.075,-0.221 0.052,-0.2ZM0.086,-0.278C0.154,-0.336 0.215,-0.409 0.268,-0.498C0.296,-0.543 0.31,-0.574 0.31,-0.589C0.31,-0.596 0.306,-0.6 0.3,-0.6C0.282,-0.6 0.25,-0.564 0.203,-0.493C0.164,-0.434 0.125,-0.362 0.086,-0.278Z" style="fill:rgb(97,218,251);fill-rule:nonzero;"/>
            </g>
            <g transform="matrix(30,0,0,30,1032.98,436)">
                <path d="M0.01,-0.132L0.01,-0.123C0.01,-0.116 0.012,-0.11 0.015,-0.104C0.023,-0.092 0.037,-0.086 0.055,-0.086C0.096,-0.086 0.143,-0.118 0.196,-0.18C0.206,-0.191 0.214,-0.196 0.22,-0.196C0.224,-0.196 0.227,-0.194 0.23,-0.191C0.232,-0.188 0.233,-0.186 0.233,-0.184C0.233,-0.171 0.217,-0.149 0.186,-0.119C0.162,-0.095 0.136,-0.076 0.108,-0.061C0.08,-0.046 0.055,-0.039 0.031,-0.039C0.006,-0.039 -0.013,-0.047 -0.027,-0.064C-0.036,-0.076 -0.041,-0.092 -0.041,-0.112C-0.041,-0.167 -0.015,-0.221 0.037,-0.273C0.079,-0.316 0.115,-0.338 0.146,-0.338C0.155,-0.338 0.163,-0.335 0.169,-0.33C0.178,-0.323 0.182,-0.314 0.182,-0.303C0.182,-0.286 0.174,-0.265 0.158,-0.24C0.125,-0.188 0.076,-0.152 0.01,-0.132ZM0.021,-0.17C0.043,-0.178 0.061,-0.187 0.074,-0.196C0.097,-0.214 0.115,-0.234 0.128,-0.256C0.133,-0.264 0.136,-0.271 0.136,-0.277C0.136,-0.283 0.133,-0.287 0.126,-0.287C0.118,-0.287 0.106,-0.28 0.09,-0.268C0.062,-0.245 0.039,-0.213 0.021,-0.17Z" style="fill:rgb(97,218,251);fill-rule:nonzero;"/>
            </g>
            <g transform="matrix(30,0,0,30,1041.22,436)">
                <path d="M0.115,-0.119C0.104,-0.1 0.094,-0.084 0.083,-0.071C0.063,-0.045 0.043,-0.033 0.022,-0.033C0.005,-0.033 -0.009,-0.041 -0.019,-0.058C-0.025,-0.068 -0.028,-0.081 -0.028,-0.096C-0.028,-0.132 -0.016,-0.172 0.006,-0.215C0.032,-0.264 0.062,-0.301 0.098,-0.327C0.122,-0.344 0.144,-0.353 0.166,-0.353C0.18,-0.353 0.191,-0.348 0.2,-0.34C0.208,-0.332 0.212,-0.324 0.212,-0.314C0.212,-0.307 0.209,-0.297 0.204,-0.285C0.208,-0.278 0.211,-0.272 0.211,-0.267C0.211,-0.26 0.206,-0.249 0.197,-0.233C0.188,-0.217 0.178,-0.196 0.169,-0.169C0.159,-0.141 0.154,-0.119 0.154,-0.102C0.154,-0.088 0.158,-0.077 0.166,-0.068C0.168,-0.066 0.175,-0.062 0.186,-0.057C0.194,-0.053 0.198,-0.046 0.198,-0.037C0.198,-0.03 0.196,-0.025 0.191,-0.021C0.187,-0.017 0.181,-0.015 0.174,-0.015C0.157,-0.015 0.142,-0.023 0.129,-0.039C0.118,-0.051 0.113,-0.067 0.113,-0.086C0.113,-0.093 0.114,-0.104 0.115,-0.119ZM0.176,-0.279C0.172,-0.286 0.168,-0.292 0.164,-0.295C0.159,-0.299 0.154,-0.3 0.149,-0.3C0.124,-0.3 0.097,-0.279 0.068,-0.235C0.036,-0.188 0.021,-0.147 0.021,-0.114C0.021,-0.106 0.022,-0.099 0.025,-0.095C0.028,-0.091 0.033,-0.089 0.039,-0.089C0.055,-0.089 0.073,-0.105 0.094,-0.139C0.105,-0.157 0.12,-0.184 0.137,-0.219C0.149,-0.242 0.157,-0.258 0.162,-0.265C0.165,-0.269 0.169,-0.274 0.176,-0.279Z" style="fill:rgb(97,218,251);fill-rule:nonzero;"/>
            </g>
            <g transform="matrix(30,0,0,30,1048.98,436)">
                <path d="M0.061,-0.199C0.092,-0.233 0.129,-0.266 0.171,-0.299C0.186,-0.311 0.202,-0.321 0.219,-0.332C0.227,-0.336 0.233,-0.339 0.235,-0.339C0.24,-0.339 0.245,-0.335 0.25,-0.328C0.252,-0.324 0.254,-0.321 0.254,-0.317C0.254,-0.312 0.248,-0.304 0.235,-0.293C0.202,-0.267 0.186,-0.247 0.186,-0.234C0.186,-0.226 0.19,-0.223 0.198,-0.223C0.212,-0.223 0.236,-0.234 0.271,-0.257C0.276,-0.261 0.281,-0.263 0.285,-0.263C0.288,-0.263 0.29,-0.262 0.293,-0.259C0.296,-0.256 0.297,-0.253 0.297,-0.25C0.297,-0.24 0.284,-0.225 0.256,-0.205C0.228,-0.184 0.201,-0.173 0.175,-0.173C0.164,-0.173 0.155,-0.176 0.146,-0.181C0.139,-0.186 0.135,-0.194 0.135,-0.206C0.135,-0.214 0.138,-0.223 0.145,-0.233C0.119,-0.215 0.089,-0.184 0.054,-0.14C0.034,-0.112 0.014,-0.079 -0.006,-0.039C-0.013,-0.024 -0.023,-0.016 -0.034,-0.016C-0.046,-0.016 -0.052,-0.022 -0.052,-0.033C-0.052,-0.044 -0.042,-0.074 -0.023,-0.122C0.005,-0.194 0.034,-0.249 0.064,-0.289C0.083,-0.313 0.099,-0.325 0.112,-0.325C0.116,-0.325 0.12,-0.324 0.124,-0.321C0.128,-0.318 0.13,-0.314 0.13,-0.309C0.13,-0.304 0.127,-0.297 0.12,-0.289C0.119,-0.287 0.11,-0.276 0.094,-0.256C0.08,-0.237 0.068,-0.218 0.061,-0.199Z" style="fill:rgb(97,218,251);fill-rule:nonzero;"/>
            </g>
            <g transform="matrix(30,0,0,30,1065.65,436)">
                <path d="M0.15,-0.353C0.129,-0.32 0.11,-0.283 0.092,-0.242C0.066,-0.184 0.053,-0.141 0.053,-0.112C0.053,-0.104 0.055,-0.098 0.058,-0.094C0.062,-0.09 0.067,-0.087 0.074,-0.087C0.09,-0.087 0.11,-0.103 0.133,-0.133C0.147,-0.152 0.16,-0.171 0.172,-0.19C0.178,-0.201 0.185,-0.206 0.192,-0.206C0.196,-0.206 0.2,-0.205 0.203,-0.202C0.205,-0.199 0.207,-0.196 0.207,-0.193C0.207,-0.181 0.191,-0.154 0.159,-0.112C0.121,-0.062 0.087,-0.037 0.056,-0.037C0.039,-0.037 0.025,-0.045 0.014,-0.06C0.007,-0.07 0.004,-0.084 0.004,-0.102C0.004,-0.141 0.015,-0.187 0.038,-0.239C0.044,-0.252 0.059,-0.284 0.084,-0.333C0.075,-0.331 0.069,-0.33 0.064,-0.33C0.057,-0.33 0.051,-0.332 0.046,-0.335C0.039,-0.34 0.035,-0.345 0.035,-0.352C0.035,-0.36 0.04,-0.367 0.049,-0.372C0.052,-0.373 0.064,-0.375 0.085,-0.378C0.093,-0.379 0.105,-0.382 0.12,-0.387C0.131,-0.408 0.15,-0.436 0.175,-0.471C0.19,-0.49 0.2,-0.503 0.205,-0.509C0.213,-0.517 0.22,-0.521 0.226,-0.521C0.23,-0.521 0.234,-0.519 0.238,-0.514C0.242,-0.51 0.244,-0.506 0.244,-0.501C0.244,-0.493 0.235,-0.476 0.217,-0.451C0.205,-0.435 0.196,-0.422 0.19,-0.412C0.226,-0.421 0.252,-0.426 0.268,-0.426C0.285,-0.426 0.294,-0.419 0.294,-0.404C0.294,-0.396 0.291,-0.391 0.285,-0.387C0.282,-0.385 0.273,-0.384 0.26,-0.382C0.254,-0.383 0.23,-0.376 0.186,-0.364C0.174,-0.36 0.162,-0.356 0.15,-0.353Z" style="fill:rgb(97,218,251);fill-rule:nonzero;"/>
            </g>
            <g transform="matrix(30,0,0,30,1072.97,436)">
                <path d="M0.115,-0.119C0.104,-0.1 0.094,-0.084 0.083,-0.071C0.063,-0.045 0.043,-0.033 0.022,-0.033C0.005,-0.033 -0.009,-0.041 -0.019,-0.058C-0.025,-0.068 -0.028,-0.081 -0.028,-0.096C-0.028,-0.132 -0.016,-0.172 0.006,-0.215C0.032,-0.264 0.062,-0.301 0.098,-0.327C0.122,-0.344 0.144,-0.353 0.166,-0.353C0.18,-0.353 0.191,-0.348 0.2,-0.34C0.208,-0.332 0.212,-0.324 0.212,-0.314C0.212,-0.307 0.209,-0.297 0.204,-0.285C0.208,-0.278 0.211,-0.272 0.211,-0.267C0.211,-0.26 0.206,-0.249 0.197,-0.233C0.188,-0.217 0.178,-0.196 0.169,-0.169C0.159,-0.141 0.154,-0.119 0.154,-0.102C0.154,-0.088 0.158,-0.077 0.166,-0.068C0.168,-0.066 0.175,-0.062 0.186,-0.057C0.194,-0.053 0.198,-0.046 0.198,-0.037C0.198,-0.03 0.196,-0.025 0.191,-0.021C0.187,-0.017 0.181,-0.015 0.174,-0.015C0.157,-0.015 0.142,-0.023 0.129,-0.039C0.118,-0.051 0.113,-0.067 0.113,-0.086C0.113,-0.093 0.114,-0.104 0.115,-0.119ZM0.176,-0.279C0.172,-0.286 0.168,-0.292 0.164,-0.295C0.159,-0.299 0.154,-0.3 0.149,-0.3C0.124,-0.3 0.097,-0.279 0.068,-0.235C0.036,-0.188 0.021,-0.147 0.021,-0.114C0.021,-0.106 0.022,-0.099 0.025,-0.095C0.028,-0.091 0.033,-0.089 0.039,-0.089C0.055,-0.089 0.073,-0.105 0.094,-0.139C0.105,-0.157 0.12,-0.184 0.137,-0.219C0.149,-0.242 0.157,-0.258 0.162,-0.265C0.165,-0.269 0.169,-0.274 0.176,-0.279Z" style="fill:rgb(97,218,251);fill-rule:nonzero;"/>
            </g>
            <g transform="matrix(30,0,0,30,1080.74,436)">
                <path d="M0.196,-0.362C0.216,-0.362 0.231,-0.359 0.241,-0.352C0.251,-0.344 0.256,-0.333 0.256,-0.319C0.256,-0.3 0.249,-0.281 0.235,-0.263C0.221,-0.246 0.201,-0.233 0.173,-0.222C0.158,-0.217 0.146,-0.214 0.136,-0.214C0.122,-0.214 0.115,-0.22 0.115,-0.232C0.115,-0.24 0.119,-0.246 0.127,-0.25C0.129,-0.251 0.14,-0.254 0.16,-0.259C0.172,-0.261 0.183,-0.267 0.193,-0.276C0.202,-0.283 0.207,-0.292 0.207,-0.3C0.207,-0.307 0.205,-0.312 0.201,-0.315C0.197,-0.319 0.191,-0.32 0.183,-0.32C0.164,-0.32 0.143,-0.313 0.121,-0.297C0.094,-0.28 0.081,-0.26 0.081,-0.236C0.081,-0.219 0.09,-0.198 0.107,-0.172C0.126,-0.145 0.136,-0.121 0.136,-0.102C0.136,-0.073 0.123,-0.051 0.098,-0.035C0.082,-0.025 0.064,-0.02 0.044,-0.02C0.013,-0.02 -0.011,-0.031 -0.027,-0.053C-0.038,-0.069 -0.044,-0.088 -0.044,-0.11C-0.044,-0.135 -0.037,-0.157 -0.024,-0.174C-0.016,-0.185 -0.007,-0.191 0.002,-0.191C0.01,-0.191 0.014,-0.188 0.014,-0.181C0.014,-0.179 0.013,-0.175 0.01,-0.169C0.002,-0.155 -0.001,-0.139 -0.001,-0.12C-0.001,-0.104 0.004,-0.091 0.016,-0.08C0.026,-0.07 0.037,-0.065 0.05,-0.065C0.063,-0.065 0.073,-0.069 0.08,-0.078C0.086,-0.085 0.089,-0.094 0.089,-0.105C0.089,-0.119 0.081,-0.136 0.065,-0.158C0.044,-0.188 0.033,-0.215 0.033,-0.24C0.033,-0.272 0.051,-0.301 0.086,-0.326C0.121,-0.35 0.157,-0.362 0.196,-0.362Z" style="fill:rgb(97,218,251);fill-rule:nonzero;"/>
            </g>
            <g transform="matrix(30,0,0,30,1088.37,436)">
                <path d="M0.172,-0.247C0.151,-0.195 0.14,-0.155 0.14,-0.127C0.14,-0.114 0.143,-0.103 0.148,-0.094C0.154,-0.083 0.163,-0.078 0.174,-0.078C0.196,-0.078 0.222,-0.092 0.25,-0.122C0.27,-0.141 0.286,-0.16 0.299,-0.18C0.307,-0.193 0.315,-0.199 0.323,-0.199C0.33,-0.199 0.334,-0.195 0.334,-0.188C0.334,-0.176 0.319,-0.15 0.289,-0.112C0.245,-0.055 0.202,-0.026 0.16,-0.026C0.135,-0.026 0.117,-0.039 0.107,-0.063C0.099,-0.081 0.095,-0.1 0.095,-0.12C0.095,-0.136 0.099,-0.161 0.107,-0.193C0.086,-0.176 0.054,-0.133 0.011,-0.064C-0.001,-0.046 -0.011,-0.037 -0.021,-0.037C-0.025,-0.037 -0.03,-0.039 -0.033,-0.043C-0.037,-0.048 -0.039,-0.052 -0.039,-0.057C-0.039,-0.07 -0.021,-0.113 0.013,-0.187C0.073,-0.316 0.137,-0.425 0.206,-0.513C0.243,-0.561 0.277,-0.597 0.306,-0.619C0.333,-0.639 0.354,-0.649 0.37,-0.649C0.377,-0.649 0.384,-0.646 0.389,-0.64C0.396,-0.633 0.4,-0.624 0.4,-0.614C0.4,-0.586 0.385,-0.551 0.356,-0.507C0.326,-0.463 0.275,-0.409 0.202,-0.346C0.161,-0.311 0.125,-0.283 0.092,-0.263C0.088,-0.254 0.076,-0.229 0.057,-0.188C0.097,-0.232 0.13,-0.263 0.153,-0.279C0.169,-0.29 0.189,-0.301 0.215,-0.312C0.233,-0.319 0.246,-0.323 0.253,-0.323C0.258,-0.323 0.261,-0.322 0.265,-0.318C0.268,-0.315 0.27,-0.312 0.27,-0.307C0.27,-0.296 0.263,-0.288 0.248,-0.284C0.223,-0.277 0.198,-0.264 0.172,-0.247ZM0.13,-0.331C0.183,-0.366 0.233,-0.411 0.279,-0.465C0.302,-0.492 0.321,-0.518 0.335,-0.543C0.345,-0.561 0.35,-0.574 0.35,-0.581C0.35,-0.589 0.346,-0.592 0.339,-0.592C0.321,-0.592 0.29,-0.564 0.245,-0.508C0.208,-0.462 0.17,-0.403 0.13,-0.331Z" style="fill:rgb(97,218,251);fill-rule:nonzero;"/>
            </g>
            <g transform="matrix(30,0,0,30,1099.03,436)">
                <path d="M0.196,-0.362C0.216,-0.362 0.231,-0.359 0.241,-0.352C0.251,-0.344 0.256,-0.333 0.256,-0.319C0.256,-0.3 0.249,-0.281 0.235,-0.263C0.221,-0.246 0.201,-0.233 0.173,-0.222C0.158,-0.217 0.146,-0.214 0.136,-0.214C0.122,-0.214 0.115,-0.22 0.115,-0.232C0.115,-0.24 0.119,-0.246 0.127,-0.25C0.129,-0.251 0.14,-0.254 0.16,-0.259C0.172,-0.261 0.183,-0.267 0.193,-0.276C0.202,-0.283 0.207,-0.292 0.207,-0.3C0.207,-0.307 0.205,-0.312 0.201,-0.315C0.197,-0.319 0.191,-0.32 0.183,-0.32C0.164,-0.32 0.143,-0.313 0.121,-0.297C0.094,-0.28 0.081,-0.26 0.081,-0.236C0.081,-0.219 0.09,-0.198 0.107,-0.172C0.126,-0.145 0.136,-0.121 0.136,-0.102C0.136,-0.073 0.123,-0.051 0.098,-0.035C0.082,-0.025 0.064,-0.02 0.044,-0.02C0.013,-0.02 -0.011,-0.031 -0.027,-0.053C-0.038,-0.069 -0.044,-0.088 -0.044,-0.11C-0.044,-0.135 -0.037,-0.157 -0.024,-0.174C-0.016,-0.185 -0.007,-0.191 0.002,-0.191C0.01,-0.191 0.014,-0.188 0.014,-0.181C0.014,-0.179 0.013,-0.175 0.01,-0.169C0.002,-0.155 -0.001,-0.139 -0.001,-0.12C-0.001,-0.104 0.004,-0.091 0.016,-0.08C0.026,-0.07 0.037,-0.065 0.05,-0.065C0.063,-0.065 0.073,-0.069 0.08,-0.078C0.086,-0.085 0.089,-0.094 0.089,-0.105C0.089,-0.119 0.081,-0.136 0.065,-0.158C0.044,-0.188 0.033,-0.215 0.033,-0.24C0.033,-0.272 0.051,-0.301 0.086,-0.326C0.121,-0.35 0.157,-0.362 0.196,-0.362Z" style="fill:rgb(97,218,251);fill-rule:nonzero;"/>
            </g>
        </g>
        <g transform="matrix(1,0,0,1,6,-2)">
            <g transform="matrix(30,0,0,30,810,436)">
                <path d="M0.317,-0.308C0.243,-0.293 0.181,-0.276 0.131,-0.256C0.101,-0.212 0.069,-0.159 0.033,-0.098L0.007,-0.052C0.002,-0.044 -0.005,-0.032 -0.014,-0.017C-0.025,0.001 -0.035,0.01 -0.047,0.01C-0.053,0.01 -0.058,0.007 -0.063,0.002C-0.067,-0.002 -0.069,-0.007 -0.069,-0.012C-0.069,-0.021 -0.057,-0.047 -0.032,-0.089C-0.019,-0.112 0.001,-0.145 0.028,-0.188C0.039,-0.204 0.047,-0.217 0.053,-0.228C0.034,-0.222 0.016,-0.216 0,-0.208C-0.008,-0.205 -0.015,-0.203 -0.02,-0.203C-0.027,-0.203 -0.032,-0.206 -0.035,-0.212C-0.038,-0.215 -0.039,-0.22 -0.039,-0.225C-0.039,-0.236 -0.035,-0.243 -0.027,-0.248C-0.015,-0.256 0.008,-0.265 0.041,-0.275C0.065,-0.283 0.085,-0.29 0.099,-0.296C0.106,-0.305 0.124,-0.33 0.153,-0.371C0.165,-0.389 0.2,-0.431 0.258,-0.498C0.3,-0.547 0.343,-0.592 0.387,-0.634C0.413,-0.659 0.433,-0.671 0.446,-0.671C0.455,-0.671 0.462,-0.668 0.468,-0.661C0.473,-0.655 0.476,-0.648 0.476,-0.641C0.476,-0.632 0.472,-0.616 0.462,-0.593C0.447,-0.553 0.432,-0.51 0.417,-0.464C0.405,-0.424 0.397,-0.393 0.393,-0.372C0.398,-0.372 0.402,-0.372 0.404,-0.372C0.414,-0.372 0.422,-0.373 0.428,-0.373C0.447,-0.373 0.456,-0.365 0.456,-0.351C0.456,-0.345 0.454,-0.339 0.45,-0.333C0.446,-0.327 0.441,-0.323 0.436,-0.322C0.434,-0.321 0.429,-0.321 0.42,-0.321C0.401,-0.321 0.388,-0.32 0.378,-0.317C0.371,-0.294 0.358,-0.235 0.341,-0.14C0.333,-0.077 0.328,-0.038 0.329,-0.024C0.329,0 0.322,0.011 0.308,0.011C0.297,0.011 0.288,0.006 0.282,-0.006C0.277,-0.014 0.275,-0.024 0.275,-0.038C0.275,-0.083 0.283,-0.143 0.299,-0.219C0.307,-0.258 0.313,-0.287 0.317,-0.308ZM0.331,-0.36C0.333,-0.37 0.341,-0.395 0.353,-0.436C0.356,-0.447 0.363,-0.468 0.375,-0.5C0.388,-0.533 0.397,-0.559 0.404,-0.579C0.383,-0.565 0.362,-0.547 0.34,-0.523C0.263,-0.441 0.209,-0.373 0.177,-0.321C0.189,-0.324 0.215,-0.331 0.255,-0.343C0.266,-0.346 0.292,-0.352 0.331,-0.36Z" style="fill:rgb(97,218,251);fill-rule:nonzero;"/>
            </g>
            <g transform="matrix(30,0,0,30,823.345,436)">
                <path d="M0.168,-0.323C0.201,-0.391 0.232,-0.451 0.261,-0.501C0.289,-0.55 0.308,-0.581 0.318,-0.593C0.329,-0.607 0.339,-0.614 0.349,-0.614C0.354,-0.614 0.359,-0.612 0.363,-0.608C0.367,-0.604 0.369,-0.599 0.369,-0.594C0.369,-0.587 0.364,-0.574 0.353,-0.557C0.305,-0.48 0.262,-0.403 0.223,-0.325C0.177,-0.233 0.154,-0.165 0.154,-0.119C0.154,-0.101 0.158,-0.086 0.165,-0.075C0.166,-0.073 0.172,-0.068 0.183,-0.06C0.185,-0.058 0.186,-0.055 0.186,-0.05C0.186,-0.043 0.183,-0.037 0.178,-0.032C0.173,-0.027 0.167,-0.024 0.161,-0.024C0.154,-0.024 0.145,-0.028 0.136,-0.038C0.123,-0.051 0.115,-0.066 0.113,-0.083C0.112,-0.09 0.111,-0.103 0.109,-0.123C0.075,-0.061 0.043,-0.03 0.012,-0.03C-0.006,-0.03 -0.021,-0.04 -0.031,-0.061C-0.038,-0.074 -0.042,-0.089 -0.042,-0.106C-0.042,-0.157 -0.023,-0.208 0.014,-0.259C0.05,-0.31 0.09,-0.335 0.132,-0.335C0.144,-0.335 0.156,-0.331 0.168,-0.323ZM0.152,-0.283C0.143,-0.289 0.135,-0.292 0.129,-0.292C0.102,-0.292 0.076,-0.275 0.051,-0.242C0.019,-0.198 0.003,-0.156 0.003,-0.115C0.003,-0.11 0.004,-0.106 0.006,-0.102C0.01,-0.093 0.016,-0.089 0.023,-0.089C0.035,-0.089 0.049,-0.1 0.065,-0.123C0.087,-0.152 0.107,-0.187 0.125,-0.227C0.132,-0.24 0.138,-0.254 0.145,-0.268L0.152,-0.283Z" style="fill:rgb(97,218,251);fill-rule:nonzero;"/>
            </g>
            <g transform="matrix(30,0,0,30,831.182,436)">
                <path d="M0.168,-0.323C0.201,-0.391 0.232,-0.451 0.261,-0.501C0.289,-0.55 0.308,-0.581 0.318,-0.593C0.329,-0.607 0.339,-0.614 0.349,-0.614C0.354,-0.614 0.359,-0.612 0.363,-0.608C0.367,-0.604 0.369,-0.599 0.369,-0.594C0.369,-0.587 0.364,-0.574 0.353,-0.557C0.305,-0.48 0.262,-0.403 0.223,-0.325C0.177,-0.233 0.154,-0.165 0.154,-0.119C0.154,-0.101 0.158,-0.086 0.165,-0.075C0.166,-0.073 0.172,-0.068 0.183,-0.06C0.185,-0.058 0.186,-0.055 0.186,-0.05C0.186,-0.043 0.183,-0.037 0.178,-0.032C0.173,-0.027 0.167,-0.024 0.161,-0.024C0.154,-0.024 0.145,-0.028 0.136,-0.038C0.123,-0.051 0.115,-0.066 0.113,-0.083C0.112,-0.09 0.111,-0.103 0.109,-0.123C0.075,-0.061 0.043,-0.03 0.012,-0.03C-0.006,-0.03 -0.021,-0.04 -0.031,-0.061C-0.038,-0.074 -0.042,-0.089 -0.042,-0.106C-0.042,-0.157 -0.023,-0.208 0.014,-0.259C0.05,-0.31 0.09,-0.335 0.132,-0.335C0.144,-0.335 0.156,-0.331 0.168,-0.323ZM0.152,-0.283C0.143,-0.289 0.135,-0.292 0.129,-0.292C0.102,-0.292 0.076,-0.275 0.051,-0.242C0.019,-0.198 0.003,-0.156 0.003,-0.115C0.003,-0.11 0.004,-0.106 0.006,-0.102C0.01,-0.093 0.016,-0.089 0.023,-0.089C0.035,-0.089 0.049,-0.1 0.065,-0.123C0.087,-0.152 0.107,-0.187 0.125,-0.227C0.132,-0.24 0.138,-0.254 0.145,-0.268L0.152,-0.283Z" style="fill:rgb(97,218,251);fill-rule:nonzero;"/>
            </g>
            <g transform="matrix(30,0,0,30,846.519,436)">
                <path d="M0.115,-0.119C0.104,-0.1 0.094,-0.084 0.083,-0.071C0.063,-0.045 0.043,-0.033 0.022,-0.033C0.005,-0.033 -0.009,-0.041 -0.019,-0.058C-0.025,-0.068 -0.028,-0.081 -0.028,-0.096C-0.028,-0.132 -0.016,-0.172 0.006,-0.215C0.032,-0.264 0.062,-0.301 0.098,-0.327C0.122,-0.344 0.144,-0.353 0.166,-0.353C0.18,-0.353 0.191,-0.348 0.2,-0.34C0.208,-0.332 0.212,-0.324 0.212,-0.314C0.212,-0.307 0.209,-0.297 0.204,-0.285C0.208,-0.278 0.211,-0.272 0.211,-0.267C0.211,-0.26 0.206,-0.249 0.197,-0.233C0.188,-0.217 0.178,-0.196 0.169,-0.169C0.159,-0.141 0.154,-0.119 0.154,-0.102C0.154,-0.088 0.158,-0.077 0.166,-0.068C0.168,-0.066 0.175,-0.062 0.186,-0.057C0.194,-0.053 0.198,-0.046 0.198,-0.037C0.198,-0.03 0.196,-0.025 0.191,-0.021C0.187,-0.017 0.181,-0.015 0.174,-0.015C0.157,-0.015 0.142,-0.023 0.129,-0.039C0.118,-0.051 0.113,-0.067 0.113,-0.086C0.113,-0.093 0.114,-0.104 0.115,-0.119ZM0.176,-0.279C0.172,-0.286 0.168,-0.292 0.164,-0.295C0.159,-0.299 0.154,-0.3 0.149,-0.3C0.124,-0.3 0.097,-0.279 0.068,-0.235C0.036,-0.188 0.021,-0.147 0.021,-0.114C0.021,-0.106 0.022,-0.099 0.025,-0.095C0.028,-0.091 0.033,-0.089 0.039,-0.089C0.055,-0.089 0.073,-0.105 0.094,-0.139C0.105,-0.157 0.12,-0.184 0.137,-0.219C0.149,-0.242 0.157,-0.258 0.162,-0.265C0.165,-0.269 0.169,-0.274 0.176,-0.279Z" style="fill:rgb(97,218,251);fill-rule:nonzero;"/>
            </g>
            <g transform="matrix(30,0,0,30,861.782,436)">
                <path d="M0.15,-0.353C0.129,-0.32 0.11,-0.283 0.092,-0.242C0.066,-0.184 0.053,-0.141 0.053,-0.112C0.053,-0.104 0.055,-0.098 0.058,-0.094C0.062,-0.09 0.067,-0.087 0.074,-0.087C0.09,-0.087 0.11,-0.103 0.133,-0.133C0.147,-0.152 0.16,-0.171 0.172,-0.19C0.178,-0.201 0.185,-0.206 0.192,-0.206C0.196,-0.206 0.2,-0.205 0.203,-0.202C0.205,-0.199 0.207,-0.196 0.207,-0.193C0.207,-0.181 0.191,-0.154 0.159,-0.112C0.121,-0.062 0.087,-0.037 0.056,-0.037C0.039,-0.037 0.025,-0.045 0.014,-0.06C0.007,-0.07 0.004,-0.084 0.004,-0.102C0.004,-0.141 0.015,-0.187 0.038,-0.239C0.044,-0.252 0.059,-0.284 0.084,-0.333C0.075,-0.331 0.069,-0.33 0.064,-0.33C0.057,-0.33 0.051,-0.332 0.046,-0.335C0.039,-0.34 0.035,-0.345 0.035,-0.352C0.035,-0.36 0.04,-0.367 0.049,-0.372C0.052,-0.373 0.064,-0.375 0.085,-0.378C0.093,-0.379 0.105,-0.382 0.12,-0.387C0.131,-0.408 0.15,-0.436 0.175,-0.471C0.19,-0.49 0.2,-0.503 0.205,-0.509C0.213,-0.517 0.22,-0.521 0.226,-0.521C0.23,-0.521 0.234,-0.519 0.238,-0.514C0.242,-0.51 0.244,-0.506 0.244,-0.501C0.244,-0.493 0.235,-0.476 0.217,-0.451C0.205,-0.435 0.196,-0.422 0.19,-0.412C0.226,-0.421 0.252,-0.426 0.268,-0.426C0.285,-0.426 0.294,-0.419 0.294,-0.404C0.294,-0.396 0.291,-0.391 0.285,-0.387C0.282,-0.385 0.273,-0.384 0.26,-0.382C0.254,-0.383 0.23,-0.376 0.186,-0.364C0.174,-0.36 0.162,-0.356 0.15,-0.353Z" style="fill:rgb(97,218,251);fill-rule:nonzero;"/>
            </g>
            <g transform="matrix(30,0,0,30,869.106,436)">
                <path d="M0.115,-0.119C0.104,-0.1 0.094,-0.084 0.083,-0.071C0.063,-0.045 0.043,-0.033 0.022,-0.033C0.005,-0.033 -0.009,-0.041 -0.019,-0.058C-0.025,-0.068 -0.028,-0.081 -0.028,-0.096C-0.028,-0.132 -0.016,-0.172 0.006,-0.215C0.032,-0.264 0.062,-0.301 0.098,-0.327C0.122,-0.344 0.144,-0.353 0.166,-0.353C0.18,-0.353 0.191,-0.348 0.2,-0.34C0.208,-0.332 0.212,-0.324 0.212,-0.314C0.212,-0.307 0.209,-0.297 0.204,-0.285C0.208,-0.278 0.211,-0.272 0.211,-0.267C0.211,-0.26 0.206,-0.249 0.197,-0.233C0.188,-0.217 0.178,-0.196 0.169,-0.169C0.159,-0.141 0.154,-0.119 0.154,-0.102C0.154,-0.088 0.158,-0.077 0.166,-0.068C0.168,-0.066 0.175,-0.062 0.186,-0.057C0.194,-0.053 0.198,-0.046 0.198,-0.037C0.198,-0.03 0.196,-0.025 0.191,-0.021C0.187,-0.017 0.181,-0.015 0.174,-0.015C0.157,-0.015 0.142,-0.023 0.129,-0.039C0.118,-0.051 0.113,-0.067 0.113,-0.086C0.113,-0.093 0.114,-0.104 0.115,-0.119ZM0.176,-0.279C0.172,-0.286 0.168,-0.292 0.164,-0.295C0.159,-0.299 0.154,-0.3 0.149,-0.3C0.124,-0.3 0.097,-0.279 0.068,-0.235C0.036,-0.188 0.021,-0.147 0.021,-0.114C0.021,-0.106 0.022,-0.099 0.025,-0.095C0.028,-0.091 0.033,-0.089 0.039,-0.089C0.055,-0.089 0.073,-0.105 0.094,-0.139C0.105,-0.157 0.12,-0.184 0.137,-0.219C0.149,-0.242 0.157,-0.258 0.162,-0.265C0.165,-0.269 0.169,-0.274 0.176,-0.279Z" style="fill:rgb(97,218,251);fill-rule:nonzero;"/>
            </g>
            <g transform="matrix(30,0,0,30,876.87,436)">
                <path d="M0.196,-0.362C0.216,-0.362 0.231,-0.359 0.241,-0.352C0.251,-0.344 0.256,-0.333 0.256,-0.319C0.256,-0.3 0.249,-0.281 0.235,-0.263C0.221,-0.246 0.201,-0.233 0.173,-0.222C0.158,-0.217 0.146,-0.214 0.136,-0.214C0.122,-0.214 0.115,-0.22 0.115,-0.232C0.115,-0.24 0.119,-0.246 0.127,-0.25C0.129,-0.251 0.14,-0.254 0.16,-0.259C0.172,-0.261 0.183,-0.267 0.193,-0.276C0.202,-0.283 0.207,-0.292 0.207,-0.3C0.207,-0.307 0.205,-0.312 0.201,-0.315C0.197,-0.319 0.191,-0.32 0.183,-0.32C0.164,-0.32 0.143,-0.313 0.121,-0.297C0.094,-0.28 0.081,-0.26 0.081,-0.236C0.081,-0.219 0.09,-0.198 0.107,-0.172C0.126,-0.145 0.136,-0.121 0.136,-0.102C0.136,-0.073 0.123,-0.051 0.098,-0.035C0.082,-0.025 0.064,-0.02 0.044,-0.02C0.013,-0.02 -0.011,-0.031 -0.027,-0.053C-0.038,-0.069 -0.044,-0.088 -0.044,-0.11C-0.044,-0.135 -0.037,-0.157 -0.024,-0.174C-0.016,-0.185 -0.007,-0.191 0.002,-0.191C0.01,-0.191 0.014,-0.188 0.014,-0.181C0.014,-0.179 0.013,-0.175 0.01,-0.169C0.002,-0.155 -0.001,-0.139 -0.001,-0.12C-0.001,-0.104 0.004,-0.091 0.016,-0.08C0.026,-0.07 0.037,-0.065 0.05,-0.065C0.063,-0.065 0.073,-0.069 0.08,-0.078C0.086,-0.085 0.089,-0.094 0.089,-0.105C0.089,-0.119 0.081,-0.136 0.065,-0.158C0.044,-0.188 0.033,-0.215 0.033,-0.24C0.033,-0.272 0.051,-0.301 0.086,-0.326C0.121,-0.35 0.157,-0.362 0.196,-0.362Z" style="fill:rgb(97,218,251);fill-rule:nonzero;"/>
            </g>
            <g transform="matrix(30,0,0,30,884.502,436)">
                <path d="M0.172,-0.247C0.151,-0.195 0.14,-0.155 0.14,-0.127C0.14,-0.114 0.143,-0.103 0.148,-0.094C0.154,-0.083 0.163,-0.078 0.174,-0.078C0.196,-0.078 0.222,-0.092 0.25,-0.122C0.27,-0.141 0.286,-0.16 0.299,-0.18C0.307,-0.193 0.315,-0.199 0.323,-0.199C0.33,-0.199 0.334,-0.195 0.334,-0.188C0.334,-0.176 0.319,-0.15 0.289,-0.112C0.245,-0.055 0.202,-0.026 0.16,-0.026C0.135,-0.026 0.117,-0.039 0.107,-0.063C0.099,-0.081 0.095,-0.1 0.095,-0.12C0.095,-0.136 0.099,-0.161 0.107,-0.193C0.086,-0.176 0.054,-0.133 0.011,-0.064C-0.001,-0.046 -0.011,-0.037 -0.021,-0.037C-0.025,-0.037 -0.03,-0.039 -0.033,-0.043C-0.037,-0.048 -0.039,-0.052 -0.039,-0.057C-0.039,-0.07 -0.021,-0.113 0.013,-0.187C0.073,-0.316 0.137,-0.425 0.206,-0.513C0.243,-0.561 0.277,-0.597 0.306,-0.619C0.333,-0.639 0.354,-0.649 0.37,-0.649C0.377,-0.649 0.384,-0.646 0.389,-0.64C0.396,-0.633 0.4,-0.624 0.4,-0.614C0.4,-0.586 0.385,-0.551 0.356,-0.507C0.326,-0.463 0.275,-0.409 0.202,-0.346C0.161,-0.311 0.125,-0.283 0.092,-0.263C0.088,-0.254 0.076,-0.229 0.057,-0.188C0.097,-0.232 0.13,-0.263 0.153,-0.279C0.169,-0.29 0.189,-0.301 0.215,-0.312C0.233,-0.319 0.246,-0.323 0.253,-0.323C0.258,-0.323 0.261,-0.322 0.265,-0.318C0.268,-0.315 0.27,-0.312 0.27,-0.307C0.27,-0.296 0.263,-0.288 0.248,-0.284C0.223,-0.277 0.198,-0.264 0.172,-0.247ZM0.13,-0.331C0.183,-0.366 0.233,-0.411 0.279,-0.465C0.302,-0.492 0.321,-0.518 0.335,-0.543C0.345,-0.561 0.35,-0.574 0.35,-0.581C0.35,-0.589 0.346,-0.592 0.339,-0.592C0.321,-0.592 0.29,-0.564 0.245,-0.508C0.208,-0.462 0.17,-0.403 0.13,-0.331Z" style="fill:rgb(97,218,251);fill-rule:nonzero;"/>
            </g>
        </g>
        <g transform="matrix(1,0,0,1,1.5,-3)">
            <g transform="matrix(24,0,0,24,661.5,338.8)">
                <path d="M0.317,-0.308C0.243,-0.293 0.181,-0.276 0.131,-0.256C0.101,-0.212 0.069,-0.159 0.033,-0.098L0.007,-0.052C0.002,-0.044 -0.005,-0.032 -0.014,-0.017C-0.025,0.001 -0.035,0.01 -0.047,0.01C-0.053,0.01 -0.058,0.007 -0.063,0.002C-0.067,-0.002 -0.069,-0.007 -0.069,-0.012C-0.069,-0.021 -0.057,-0.047 -0.032,-0.089C-0.019,-0.112 0.001,-0.145 0.028,-0.188C0.039,-0.204 0.047,-0.217 0.053,-0.228C0.034,-0.222 0.016,-0.216 0,-0.208C-0.008,-0.205 -0.015,-0.203 -0.02,-0.203C-0.027,-0.203 -0.032,-0.206 -0.035,-0.212C-0.038,-0.215 -0.039,-0.22 -0.039,-0.225C-0.039,-0.236 -0.035,-0.243 -0.027,-0.248C-0.015,-0.256 0.008,-0.265 0.041,-0.275C0.065,-0.283 0.085,-0.29 0.099,-0.296C0.106,-0.305 0.124,-0.33 0.153,-0.371C0.165,-0.389 0.2,-0.431 0.258,-0.498C0.3,-0.547 0.343,-0.592 0.387,-0.634C0.413,-0.659 0.433,-0.671 0.446,-0.671C0.455,-0.671 0.462,-0.668 0.468,-0.661C0.473,-0.655 0.476,-0.648 0.476,-0.641C0.476,-0.632 0.472,-0.616 0.462,-0.593C0.447,-0.553 0.432,-0.51 0.417,-0.464C0.405,-0.424 0.397,-0.393 0.393,-0.372C0.398,-0.372 0.402,-0.372 0.404,-0.372C0.414,-0.372 0.422,-0.373 0.428,-0.373C0.447,-0.373 0.456,-0.365 0.456,-0.351C0.456,-0.345 0.454,-0.339 0.45,-0.333C0.446,-0.327 0.441,-0.323 0.436,-0.322C0.434,-0.321 0.429,-0.321 0.42,-0.321C0.401,-0.321 0.388,-0.32 0.378,-0.317C0.371,-0.294 0.358,-0.235 0.341,-0.14C0.333,-0.077 0.328,-0.038 0.329,-0.024C0.329,0 0.322,0.011 0.308,0.011C0.297,0.011 0.288,0.006 0.282,-0.006C0.277,-0.014 0.275,-0.024 0.275,-0.038C0.275,-0.083 0.283,-0.143 0.299,-0.219C0.307,-0.258 0.313,-0.287 0.317,-0.308ZM0.331,-0.36C0.333,-0.37 0.341,-0.395 0.353,-0.436C0.356,-0.447 0.363,-0.468 0.375,-0.5C0.388,-0.533 0.397,-0.559 0.404,-0.579C0.383,-0.565 0.362,-0.547 0.34,-0.523C0.263,-0.441 0.209,-0.373 0.177,-0.321C0.189,-0.324 0.215,-0.331 0.255,-0.343C0.266,-0.346 0.292,-0.352 0.331,-0.36Z" style="fill:rgb(97,218,251);fill-rule:nonzero;"/>
            </g>
            <g transform="matrix(24,0,0,24,672.176,338.8)">
                <path d="M0.168,-0.323C0.201,-0.391 0.232,-0.451 0.261,-0.501C0.289,-0.55 0.308,-0.581 0.318,-0.593C0.329,-0.607 0.339,-0.614 0.349,-0.614C0.354,-0.614 0.359,-0.612 0.363,-0.608C0.367,-0.604 0.369,-0.599 0.369,-0.594C0.369,-0.587 0.364,-0.574 0.353,-0.557C0.305,-0.48 0.262,-0.403 0.223,-0.325C0.177,-0.233 0.154,-0.165 0.154,-0.119C0.154,-0.101 0.158,-0.086 0.165,-0.075C0.166,-0.073 0.172,-0.068 0.183,-0.06C0.185,-0.058 0.186,-0.055 0.186,-0.05C0.186,-0.043 0.183,-0.037 0.178,-0.032C0.173,-0.027 0.167,-0.024 0.161,-0.024C0.154,-0.024 0.145,-0.028 0.136,-0.038C0.123,-0.051 0.115,-0.066 0.113,-0.083C0.112,-0.09 0.111,-0.103 0.109,-0.123C0.075,-0.061 0.043,-0.03 0.012,-0.03C-0.006,-0.03 -0.021,-0.04 -0.031,-0.061C-0.038,-0.074 -0.042,-0.089 -0.042,-0.106C-0.042,-0.157 -0.023,-0.208 0.014,-0.259C0.05,-0.31 0.09,-0.335 0.132,-0.335C0.144,-0.335 0.156,-0.331 0.168,-0.323ZM0.152,-0.283C0.143,-0.289 0.135,-0.292 0.129,-0.292C0.102,-0.292 0.076,-0.275 0.051,-0.242C0.019,-0.198 0.003,-0.156 0.003,-0.115C0.003,-0.11 0.004,-0.106 0.006,-0.102C0.01,-0.093 0.016,-0.089 0.023,-0.089C0.035,-0.089 0.049,-0.1 0.065,-0.123C0.087,-0.152 0.107,-0.187 0.125,-0.227C0.132,-0.24 0.138,-0.254 0.145,-0.268L0.152,-0.283Z" style="fill:rgb(97,218,251);fill-rule:nonzero;"/>
            </g>
            <g transform="matrix(24,0,0,24,678.445,338.8)">
                <path d="M0.168,-0.323C0.201,-0.391 0.232,-0.451 0.261,-0.501C0.289,-0.55 0.308,-0.581 0.318,-0.593C0.329,-0.607 0.339,-0.614 0.349,-0.614C0.354,-0.614 0.359,-0.612 0.363,-0.608C0.367,-0.604 0.369,-0.599 0.369,-0.594C0.369,-0.587 0.364,-0.574 0.353,-0.557C0.305,-0.48 0.262,-0.403 0.223,-0.325C0.177,-0.233 0.154,-0.165 0.154,-0.119C0.154,-0.101 0.158,-0.086 0.165,-0.075C0.166,-0.073 0.172,-0.068 0.183,-0.06C0.185,-0.058 0.186,-0.055 0.186,-0.05C0.186,-0.043 0.183,-0.037 0.178,-0.032C0.173,-0.027 0.167,-0.024 0.161,-0.024C0.154,-0.024 0.145,-0.028 0.136,-0.038C0.123,-0.051 0.115,-0.066 0.113,-0.083C0.112,-0.09 0.111,-0.103 0.109,-0.123C0.075,-0.061 0.043,-0.03 0.012,-0.03C-0.006,-0.03 -0.021,-0.04 -0.031,-0.061C-0.038,-0.074 -0.042,-0.089 -0.042,-0.106C-0.042,-0.157 -0.023,-0.208 0.014,-0.259C0.05,-0.31 0.09,-0.335 0.132,-0.335C0.144,-0.335 0.156,-0.331 0.168,-0.323ZM0.152,-0.283C0.143,-0.289 0.135,-0.292 0.129,-0.292C0.102,-0.292 0.076,-0.275 0.051,-0.242C0.019,-0.198 0.003,-0.156 0.003,-0.115C0.003,-0.11 0.004,-0.106 0.006,-0.102C0.01,-0.093 0.016,-0.089 0.023,-0.089C0.035,-0.089 0.049,-0.1 0.065,-0.123C0.087,-0.152 0.107,-0.187 0.125,-0.227C0.132,-0.24 0.138,-0.254 0.145,-0.268L0.152,-0.283Z" style="fill:rgb(97,218,251);fill-rule:nonzero;"/>
            </g>
            <g transform="matrix(24,0,0,24,690.715,338.8)">
                <path d="M0.115,-0.119C0.104,-0.1 0.094,-0.084 0.083,-0.071C0.063,-0.045 0.043,-0.033 0.022,-0.033C0.005,-0.033 -0.009,-0.041 -0.019,-0.058C-0.025,-0.068 -0.028,-0.081 -0.028,-0.096C-0.028,-0.132 -0.016,-0.172 0.006,-0.215C0.032,-0.264 0.062,-0.301 0.098,-0.327C0.122,-0.344 0.144,-0.353 0.166,-0.353C0.18,-0.353 0.191,-0.348 0.2,-0.34C0.208,-0.332 0.212,-0.324 0.212,-0.314C0.212,-0.307 0.209,-0.297 0.204,-0.285C0.208,-0.278 0.211,-0.272 0.211,-0.267C0.211,-0.26 0.206,-0.249 0.197,-0.233C0.188,-0.217 0.178,-0.196 0.169,-0.169C0.159,-0.141 0.154,-0.119 0.154,-0.102C0.154,-0.088 0.158,-0.077 0.166,-0.068C0.168,-0.066 0.175,-0.062 0.186,-0.057C0.194,-0.053 0.198,-0.046 0.198,-0.037C0.198,-0.03 0.196,-0.025 0.191,-0.021C0.187,-0.017 0.181,-0.015 0.174,-0.015C0.157,-0.015 0.142,-0.023 0.129,-0.039C0.118,-0.051 0.113,-0.067 0.113,-0.086C0.113,-0.093 0.114,-0.104 0.115,-0.119ZM0.176,-0.279C0.172,-0.286 0.168,-0.292 0.164,-0.295C0.159,-0.299 0.154,-0.3 0.149,-0.3C0.124,-0.3 0.097,-0.279 0.068,-0.235C0.036,-0.188 0.021,-0.147 0.021,-0.114C0.021,-0.106 0.022,-0.099 0.025,-0.095C0.028,-0.091 0.033,-0.089 0.039,-0.089C0.055,-0.089 0.073,-0.105 0.094,-0.139C0.105,-0.157 0.12,-0.184 0.137,-0.219C0.149,-0.242 0.157,-0.258 0.162,-0.265C0.165,-0.269 0.169,-0.274 0.176,-0.279Z" style="fill:rgb(97,218,251);fill-rule:nonzero;"/>
            </g>
            <g transform="matrix(24,0,0,24,702.926,338.8)">
                <path d="M0.15,-0.353C0.129,-0.32 0.11,-0.283 0.092,-0.242C0.066,-0.184 0.053,-0.141 0.053,-0.112C0.053,-0.104 0.055,-0.098 0.058,-0.094C0.062,-0.09 0.067,-0.087 0.074,-0.087C0.09,-0.087 0.11,-0.103 0.133,-0.133C0.147,-0.152 0.16,-0.171 0.172,-0.19C0.178,-0.201 0.185,-0.206 0.192,-0.206C0.196,-0.206 0.2,-0.205 0.203,-0.202C0.205,-0.199 0.207,-0.196 0.207,-0.193C0.207,-0.181 0.191,-0.154 0.159,-0.112C0.121,-0.062 0.087,-0.037 0.056,-0.037C0.039,-0.037 0.025,-0.045 0.014,-0.06C0.007,-0.07 0.004,-0.084 0.004,-0.102C0.004,-0.141 0.015,-0.187 0.038,-0.239C0.044,-0.252 0.059,-0.284 0.084,-0.333C0.075,-0.331 0.069,-0.33 0.064,-0.33C0.057,-0.33 0.051,-0.332 0.046,-0.335C0.039,-0.34 0.035,-0.345 0.035,-0.352C0.035,-0.36 0.04,-0.367 0.049,-0.372C0.052,-0.373 0.064,-0.375 0.085,-0.378C0.093,-0.379 0.105,-0.382 0.12,-0.387C0.131,-0.408 0.15,-0.436 0.175,-0.471C0.19,-0.49 0.2,-0.503 0.205,-0.509C0.213,-0.517 0.22,-0.521 0.226,-0.521C0.23,-0.521 0.234,-0.519 0.238,-0.514C0.242,-0.51 0.244,-0.506 0.244,-0.501C0.244,-0.493 0.235,-0.476 0.217,-0.451C0.205,-0.435 0.196,-0.422 0.19,-0.412C0.226,-0.421 0.252,-0.426 0.268,-0.426C0.285,-0.426 0.294,-0.419 0.294,-0.404C0.294,-0.396 0.291,-0.391 0.285,-0.387C0.282,-0.385 0.273,-0.384 0.26,-0.382C0.254,-0.383 0.23,-0.376 0.186,-0.364C0.174,-0.36 0.162,-0.356 0.15,-0.353Z" style="fill:rgb(97,218,251);fill-rule:nonzero;"/>
            </g>
            <g transform="matrix(24,0,0,24,708.785,338.8)">
                <path d="M0.115,-0.119C0.104,-0.1 0.094,-0.084 0.083,-0.071C0.063,-0.045 0.043,-0.033 0.022,-0.033C0.005,-0.033 -0.009,-0.041 -0.019,-0.058C-0.025,-0.068 -0.028,-0.081 -0.028,-0.096C-0.028,-0.132 -0.016,-0.172 0.006,-0.215C0.032,-0.264 0.062,-0.301 0.098,-0.327C0.122,-0.344 0.144,-0.353 0.166,-0.353C0.18,-0.353 0.191,-0.348 0.2,-0.34C0.208,-0.332 0.212,-0.324 0.212,-0.314C0.212,-0.307 0.209,-0.297 0.204,-0.285C0.208,-0.278 0.211,-0.272 0.211,-0.267C0.211,-0.26 0.206,-0.249 0.197,-0.233C0.188,-0.217 0.178,-0.196 0.169,-0.169C0.159,-0.141 0.154,-0.119 0.154,-0.102C0.154,-0.088 0.158,-0.077 0.166,-0.068C0.168,-0.066 0.175,-0.062 0.186,-0.057C0.194,-0.053 0.198,-0.046 0.198,-0.037C0.198,-0.03 0.196,-0.025 0.191,-0.021C0.187,-0.017 0.181,-0.015 0.174,-0.015C0.157,-0.015 0.142,-0.023 0.129,-0.039C0.118,-0.051 0.113,-0.067 0.113,-0.086C0.113,-0.093 0.114,-0.104 0.115,-0.119ZM0.176,-0.279C0.172,-0.286 0.168,-0.292 0.164,-0.295C0.159,-0.299 0.154,-0.3 0.149,-0.3C0.124,-0.3 0.097,-0.279 0.068,-0.235C0.036,-0.188 0.021,-0.147 0.021,-0.114C0.021,-0.106 0.022,-0.099 0.025,-0.095C0.028,-0.091 0.033,-0.089 0.039,-0.089C0.055,-0.089 0.073,-0.105 0.094,-0.139C0.105,-0.157 0.12,-0.184 0.137,-0.219C0.149,-0.242 0.157,-0.258 0.162,-0.265C0.165,-0.269 0.169,-0.274 0.176,-0.279Z" style="fill:rgb(97,218,251);fill-rule:nonzero;"/>
            </g>
            <g transform="matrix(24,0,0,24,714.996,338.8)">
                <path d="M0.196,-0.362C0.216,-0.362 0.231,-0.359 0.241,-0.352C0.251,-0.344 0.256,-0.333 0.256,-0.319C0.256,-0.3 0.249,-0.281 0.235,-0.263C0.221,-0.246 0.201,-0.233 0.173,-0.222C0.158,-0.217 0.146,-0.214 0.136,-0.214C0.122,-0.214 0.115,-0.22 0.115,-0.232C0.115,-0.24 0.119,-0.246 0.127,-0.25C0.129,-0.251 0.14,-0.254 0.16,-0.259C0.172,-0.261 0.183,-0.267 0.193,-0.276C0.202,-0.283 0.207,-0.292 0.207,-0.3C0.207,-0.307 0.205,-0.312 0.201,-0.315C0.197,-0.319 0.191,-0.32 0.183,-0.32C0.164,-0.32 0.143,-0.313 0.121,-0.297C0.094,-0.28 0.081,-0.26 0.081,-0.236C0.081,-0.219 0.09,-0.198 0.107,-0.172C0.126,-0.145 0.136,-0.121 0.136,-0.102C0.136,-0.073 0.123,-0.051 0.098,-0.035C0.082,-0.025 0.064,-0.02 0.044,-0.02C0.013,-0.02 -0.011,-0.031 -0.027,-0.053C-0.038,-0.069 -0.044,-0.088 -0.044,-0.11C-0.044,-0.135 -0.037,-0.157 -0.024,-0.174C-0.016,-0.185 -0.007,-0.191 0.002,-0.191C0.01,-0.191 0.014,-0.188 0.014,-0.181C0.014,-0.179 0.013,-0.175 0.01,-0.169C0.002,-0.155 -0.001,-0.139 -0.001,-0.12C-0.001,-0.104 0.004,-0.091 0.016,-0.08C0.026,-0.07 0.037,-0.065 0.05,-0.065C0.063,-0.065 0.073,-0.069 0.08,-0.078C0.086,-0.085 0.089,-0.094 0.089,-0.105C0.089,-0.119 0.081,-0.136 0.065,-0.158C0.044,-0.188 0.033,-0.215 0.033,-0.24C0.033,-0.272 0.051,-0.301 0.086,-0.326C0.121,-0.35 0.157,-0.362 0.196,-0.362Z" style="fill:rgb(97,218,251);fill-rule:nonzero;"/>
            </g>
            <g transform="matrix(24,0,0,24,721.102,338.8)">
                <path d="M0.172,-0.247C0.151,-0.195 0.14,-0.155 0.14,-0.127C0.14,-0.114 0.143,-0.103 0.148,-0.094C0.154,-0.083 0.163,-0.078 0.174,-0.078C0.196,-0.078 0.222,-0.092 0.25,-0.122C0.27,-0.141 0.286,-0.16 0.299,-0.18C0.307,-0.193 0.315,-0.199 0.323,-0.199C0.33,-0.199 0.334,-0.195 0.334,-0.188C0.334,-0.176 0.319,-0.15 0.289,-0.112C0.245,-0.055 0.202,-0.026 0.16,-0.026C0.135,-0.026 0.117,-0.039 0.107,-0.063C0.099,-0.081 0.095,-0.1 0.095,-0.12C0.095,-0.136 0.099,-0.161 0.107,-0.193C0.086,-0.176 0.054,-0.133 0.011,-0.064C-0.001,-0.046 -0.011,-0.037 -0.021,-0.037C-0.025,-0.037 -0.03,-0.039 -0.033,-0.043C-0.037,-0.048 -0.039,-0.052 -0.039,-0.057C-0.039,-0.07 -0.021,-0.113 0.013,-0.187C0.073,-0.316 0.137,-0.425 0.206,-0.513C0.243,-0.561 0.277,-0.597 0.306,-0.619C0.333,-0.639 0.354,-0.649 0.37,-0.649C0.377,-0.649 0.384,-0.646 0.389,-0.64C0.396,-0.633 0.4,-0.624 0.4,-0.614C0.4,-0.586 0.385,-0.551 0.356,-0.507C0.326,-0.463 0.275,-0.409 0.202,-0.346C0.161,-0.311 0.125,-0.283 0.092,-0.263C0.088,-0.254 0.076,-0.229 0.057,-0.188C0.097,-0.232 0.13,-0.263 0.153,-0.279C0.169,-0.29 0.189,-0.301 0.215,-0.312C0.233,-0.319 0.246,-0.323 0.253,-0.323C0.258,-0.323 0.261,-0.322 0.265,-0.318C0.268,-0.315 0.27,-0.312 0.27,-0.307C0.27,-0.296 0.263,-0.288 0.248,-0.284C0.223,-0.277 0.198,-0.264 0.172,-0.247ZM0.13,-0.331C0.183,-0.366 0.233,-0.411 0.279,-0.465C0.302,-0.492 0.321,-0.518 0.335,-0.543C0.345,-0.561 0.35,-0.574 0.35,-0.581C0.35,-0.589 0.346,-0.592 0.339,-0.592C0.321,-0.592 0.29,-0.564 0.245,-0.508C0.208,-0.462 0.17,-0.403 0.13,-0.331Z" style="fill:rgb(97,218,251);fill-rule:nonzero;"/>
            </g>
            <g transform="matrix(24,0,0,24,729.633,338.8)">
                <path d="M0.018,-0.074C0.025,-0.074 0.031,-0.07 0.036,-0.064C0.039,-0.06 0.041,-0.054 0.041,-0.048C0.041,-0.033 0.036,-0.016 0.028,0C0.019,0.018 0.007,0.027 -0.007,0.027C-0.022,0.027 -0.029,0.019 -0.029,0.002C-0.029,-0.015 -0.024,-0.032 -0.014,-0.05C-0.004,-0.066 0.006,-0.074 0.018,-0.074Z" style="fill:rgb(97,218,251);fill-rule:nonzero;"/>
            </g>
            <g transform="matrix(24,0,0,24,734.59,338.8)">
                <path d="M0.018,-0.074C0.025,-0.074 0.031,-0.07 0.036,-0.064C0.039,-0.06 0.041,-0.054 0.041,-0.048C0.041,-0.033 0.036,-0.016 0.028,0C0.019,0.018 0.007,0.027 -0.007,0.027C-0.022,0.027 -0.029,0.019 -0.029,0.002C-0.029,-0.015 -0.024,-0.032 -0.014,-0.05C-0.004,-0.066 0.006,-0.074 0.018,-0.074Z" style="fill:rgb(97,218,251);fill-rule:nonzero;"/>
            </g>
            <g transform="matrix(24,0,0,24,739.547,338.8)">
                <path d="M0.018,-0.074C0.025,-0.074 0.031,-0.07 0.036,-0.064C0.039,-0.06 0.041,-0.054 0.041,-0.048C0.041,-0.033 0.036,-0.016 0.028,0C0.019,0.018 0.007,0.027 -0.007,0.027C-0.022,0.027 -0.029,0.019 -0.029,0.002C-0.029,-0.015 -0.024,-0.032 -0.014,-0.05C-0.004,-0.066 0.006,-0.074 0.018,-0.074Z" style="fill:rgb(97,218,251);fill-rule:nonzero;"/>
            </g>
        </g>
        <g transform="matrix(1,0,0,1,15,-14.2)">
            <g transform="matrix(96,0,0,96,760,254.2)">
                <path d="M0.359,-0.594C0.294,-0.584 0.234,-0.571 0.178,-0.555C0.167,-0.551 0.157,-0.549 0.151,-0.549C0.143,-0.549 0.137,-0.552 0.132,-0.559C0.129,-0.563 0.127,-0.568 0.127,-0.573C0.127,-0.587 0.137,-0.597 0.157,-0.604C0.211,-0.62 0.275,-0.635 0.348,-0.648C0.44,-0.665 0.528,-0.673 0.613,-0.673C0.641,-0.673 0.661,-0.672 0.67,-0.668C0.68,-0.665 0.684,-0.659 0.684,-0.649C0.684,-0.634 0.673,-0.625 0.65,-0.623C0.631,-0.621 0.601,-0.619 0.562,-0.618C0.484,-0.616 0.43,-0.611 0.401,-0.604C0.409,-0.6 0.413,-0.595 0.413,-0.588C0.413,-0.581 0.408,-0.57 0.397,-0.555C0.336,-0.464 0.277,-0.361 0.22,-0.247C0.177,-0.159 0.146,-0.082 0.126,-0.014C0.121,0.006 0.114,0.017 0.103,0.017C0.092,0.017 0.084,0.011 0.077,0.001C0.073,-0.006 0.07,-0.013 0.07,-0.021C0.07,-0.05 0.099,-0.123 0.156,-0.239C0.192,-0.314 0.226,-0.377 0.257,-0.428C0.269,-0.449 0.299,-0.497 0.346,-0.573L0.359,-0.594Z" style="fill:rgb(97,218,251);fill-rule:nonzero;"/>
            </g>
            <g transform="matrix(96,0,0,96,803.313,254.2)">
                <path d="M0.115,-0.119C0.104,-0.1 0.094,-0.084 0.083,-0.071C0.063,-0.045 0.043,-0.033 0.022,-0.033C0.005,-0.033 -0.009,-0.041 -0.019,-0.058C-0.025,-0.068 -0.028,-0.081 -0.028,-0.096C-0.028,-0.132 -0.016,-0.172 0.006,-0.215C0.032,-0.264 0.062,-0.301 0.098,-0.327C0.122,-0.344 0.144,-0.353 0.166,-0.353C0.18,-0.353 0.191,-0.348 0.2,-0.34C0.208,-0.332 0.212,-0.324 0.212,-0.314C0.212,-0.307 0.209,-0.297 0.204,-0.285C0.208,-0.278 0.211,-0.272 0.211,-0.267C0.211,-0.26 0.206,-0.249 0.197,-0.233C0.188,-0.217 0.178,-0.196 0.169,-0.169C0.159,-0.141 0.154,-0.119 0.154,-0.102C0.154,-0.088 0.158,-0.077 0.166,-0.068C0.168,-0.066 0.175,-0.062 0.186,-0.057C0.194,-0.053 0.198,-0.046 0.198,-0.037C0.198,-0.03 0.196,-0.025 0.191,-0.021C0.187,-0.017 0.181,-0.015 0.174,-0.015C0.157,-0.015 0.142,-0.023 0.129,-0.039C0.118,-0.051 0.113,-0.067 0.113,-0.086C0.113,-0.093 0.114,-0.104 0.115,-0.119ZM0.176,-0.279C0.172,-0.286 0.168,-0.292 0.164,-0.295C0.159,-0.299 0.154,-0.3 0.149,-0.3C0.124,-0.3 0.097,-0.279 0.068,-0.235C0.036,-0.188 0.021,-0.147 0.021,-0.114C0.021,-0.106 0.022,-0.099 0.025,-0.095C0.028,-0.091 0.033,-0.089 0.039,-0.089C0.055,-0.089 0.073,-0.105 0.094,-0.139C0.105,-0.157 0.12,-0.184 0.137,-0.219C0.149,-0.242 0.157,-0.258 0.162,-0.265C0.165,-0.269 0.169,-0.274 0.176,-0.279Z" style="fill:rgb(97,218,251);fill-rule:nonzero;"/>
            </g>
            <g transform="matrix(96,0,0,96,828.156,254.2)">
                <path d="M0.196,-0.362C0.216,-0.362 0.231,-0.359 0.241,-0.352C0.251,-0.344 0.256,-0.333 0.256,-0.319C0.256,-0.3 0.249,-0.281 0.235,-0.263C0.221,-0.246 0.201,-0.233 0.173,-0.222C0.158,-0.217 0.146,-0.214 0.136,-0.214C0.122,-0.214 0.115,-0.22 0.115,-0.232C0.115,-0.24 0.119,-0.246 0.127,-0.25C0.129,-0.251 0.14,-0.254 0.16,-0.259C0.172,-0.261 0.183,-0.267 0.193,-0.276C0.202,-0.283 0.207,-0.292 0.207,-0.3C0.207,-0.307 0.205,-0.312 0.201,-0.315C0.197,-0.319 0.191,-0.32 0.183,-0.32C0.164,-0.32 0.143,-0.313 0.121,-0.297C0.094,-0.28 0.081,-0.26 0.081,-0.236C0.081,-0.219 0.09,-0.198 0.107,-0.172C0.126,-0.145 0.136,-0.121 0.136,-0.102C0.136,-0.073 0.123,-0.051 0.098,-0.035C0.082,-0.025 0.064,-0.02 0.044,-0.02C0.013,-0.02 -0.011,-0.031 -0.027,-0.053C-0.038,-0.069 -0.044,-0.088 -0.044,-0.11C-0.044,-0.135 -0.037,-0.157 -0.024,-0.174C-0.016,-0.185 -0.007,-0.191 0.002,-0.191C0.01,-0.191 0.014,-0.188 0.014,-0.181C0.014,-0.179 0.013,-0.175 0.01,-0.169C0.002,-0.155 -0.001,-0.139 -0.001,-0.12C-0.001,-0.104 0.004,-0.091 0.016,-0.08C0.026,-0.07 0.037,-0.065 0.05,-0.065C0.063,-0.065 0.073,-0.069 0.08,-0.078C0.086,-0.085 0.089,-0.094 0.089,-0.105C0.089,-0.119 0.081,-0.136 0.065,-0.158C0.044,-0.188 0.033,-0.215 0.033,-0.24C0.033,-0.272 0.051,-0.301 0.086,-0.326C0.121,-0.35 0.157,-0.362 0.196,-0.362Z" style="fill:rgb(97,218,251);fill-rule:nonzero;"/>
            </g>
            <g transform="matrix(96,0,0,96,852.578,254.2)">
                <path d="M0.172,-0.247C0.151,-0.195 0.14,-0.155 0.14,-0.127C0.14,-0.114 0.143,-0.103 0.148,-0.094C0.154,-0.083 0.163,-0.078 0.174,-0.078C0.196,-0.078 0.222,-0.092 0.25,-0.122C0.27,-0.141 0.286,-0.16 0.299,-0.18C0.307,-0.193 0.315,-0.199 0.323,-0.199C0.33,-0.199 0.334,-0.195 0.334,-0.188C0.334,-0.176 0.319,-0.15 0.289,-0.112C0.245,-0.055 0.202,-0.026 0.16,-0.026C0.135,-0.026 0.117,-0.039 0.107,-0.063C0.099,-0.081 0.095,-0.1 0.095,-0.12C0.095,-0.136 0.099,-0.161 0.107,-0.193C0.086,-0.176 0.054,-0.133 0.011,-0.064C-0.001,-0.046 -0.011,-0.037 -0.021,-0.037C-0.025,-0.037 -0.03,-0.039 -0.033,-0.043C-0.037,-0.048 -0.039,-0.052 -0.039,-0.057C-0.039,-0.07 -0.021,-0.113 0.013,-0.187C0.073,-0.316 0.137,-0.425 0.206,-0.513C0.243,-0.561 0.277,-0.597 0.306,-0.619C0.333,-0.639 0.354,-0.649 0.37,-0.649C0.377,-0.649 0.384,-0.646 0.389,-0.64C0.396,-0.633 0.4,-0.624 0.4,-0.614C0.4,-0.586 0.385,-0.551 0.356,-0.507C0.326,-0.463 0.275,-0.409 0.202,-0.346C0.161,-0.311 0.125,-0.283 0.092,-0.263C0.088,-0.254 0.076,-0.229 0.057,-0.188C0.097,-0.232 0.13,-0.263 0.153,-0.279C0.169,-0.29 0.189,-0.301 0.215,-0.312C0.233,-0.319 0.246,-0.323 0.253,-0.323C0.258,-0.323 0.261,-0.322 0.265,-0.318C0.268,-0.315 0.27,-0.312 0.27,-0.307C0.27,-0.296 0.263,-0.288 0.248,-0.284C0.223,-0.277 0.198,-0.264 0.172,-0.247ZM0.13,-0.331C0.183,-0.366 0.233,-0.411 0.279,-0.465C0.302,-0.492 0.321,-0.518 0.335,-0.543C0.345,-0.561 0.35,-0.574 0.35,-0.581C0.35,-0.589 0.346,-0.592 0.339,-0.592C0.321,-0.592 0.29,-0.564 0.245,-0.508C0.208,-0.462 0.17,-0.403 0.13,-0.331Z" style="fill:rgb(97,218,251);fill-rule:nonzero;"/>
            </g>
            <g transform="matrix(96,0,0,96,910.703,254.2)">
                <path d="M0.24,-0.19C0.25,-0.206 0.274,-0.243 0.312,-0.301C0.344,-0.351 0.396,-0.422 0.466,-0.516C0.507,-0.57 0.544,-0.616 0.578,-0.653C0.597,-0.675 0.615,-0.686 0.63,-0.686C0.639,-0.686 0.646,-0.683 0.652,-0.677C0.658,-0.672 0.66,-0.666 0.66,-0.658C0.66,-0.647 0.653,-0.63 0.64,-0.606C0.638,-0.601 0.624,-0.577 0.6,-0.535C0.557,-0.459 0.528,-0.405 0.513,-0.372C0.471,-0.283 0.44,-0.207 0.42,-0.144C0.409,-0.107 0.403,-0.079 0.403,-0.062C0.403,-0.058 0.404,-0.054 0.404,-0.049C0.406,-0.037 0.407,-0.029 0.407,-0.027C0.407,-0.017 0.403,-0.009 0.396,0C0.39,0.007 0.383,0.011 0.375,0.011C0.366,0.011 0.358,0.005 0.353,-0.005C0.348,-0.014 0.345,-0.025 0.345,-0.04C0.345,-0.132 0.422,-0.313 0.576,-0.583C0.495,-0.497 0.406,-0.374 0.309,-0.213C0.287,-0.179 0.269,-0.155 0.255,-0.143C0.242,-0.131 0.229,-0.125 0.216,-0.125C0.204,-0.125 0.195,-0.13 0.189,-0.141C0.185,-0.148 0.183,-0.156 0.183,-0.166C0.183,-0.247 0.231,-0.375 0.328,-0.55C0.295,-0.516 0.264,-0.477 0.233,-0.433C0.178,-0.351 0.129,-0.268 0.086,-0.182C0.065,-0.14 0.041,-0.085 0.011,-0.016C-0.003,0.019 -0.02,0.037 -0.04,0.037C-0.044,0.037 -0.049,0.035 -0.052,0.03C-0.054,0.027 -0.056,0.024 -0.056,0.02C-0.056,0.013 -0.05,-0.004 -0.038,-0.031C-0.012,-0.092 0.008,-0.136 0.021,-0.163C0.091,-0.299 0.174,-0.427 0.27,-0.547C0.31,-0.597 0.338,-0.63 0.353,-0.645C0.369,-0.66 0.382,-0.668 0.393,-0.668C0.399,-0.668 0.405,-0.665 0.412,-0.659C0.419,-0.652 0.423,-0.645 0.423,-0.636C0.423,-0.626 0.416,-0.61 0.402,-0.587C0.363,-0.524 0.327,-0.452 0.294,-0.373C0.266,-0.301 0.248,-0.24 0.24,-0.19Z" style="fill:rgb(97,218,251);fill-rule:nonzero;"/>
            </g>
            <g transform="matrix(96,0,0,96,965.219,254.2)">
                <path d="M0.115,-0.119C0.104,-0.1 0.094,-0.084 0.083,-0.071C0.063,-0.045 0.043,-0.033 0.022,-0.033C0.005,-0.033 -0.009,-0.041 -0.019,-0.058C-0.025,-0.068 -0.028,-0.081 -0.028,-0.096C-0.028,-0.132 -0.016,-0.172 0.006,-0.215C0.032,-0.264 0.062,-0.301 0.098,-0.327C0.122,-0.344 0.144,-0.353 0.166,-0.353C0.18,-0.353 0.191,-0.348 0.2,-0.34C0.208,-0.332 0.212,-0.324 0.212,-0.314C0.212,-0.307 0.209,-0.297 0.204,-0.285C0.208,-0.278 0.211,-0.272 0.211,-0.267C0.211,-0.26 0.206,-0.249 0.197,-0.233C0.188,-0.217 0.178,-0.196 0.169,-0.169C0.159,-0.141 0.154,-0.119 0.154,-0.102C0.154,-0.088 0.158,-0.077 0.166,-0.068C0.168,-0.066 0.175,-0.062 0.186,-0.057C0.194,-0.053 0.198,-0.046 0.198,-0.037C0.198,-0.03 0.196,-0.025 0.191,-0.021C0.187,-0.017 0.181,-0.015 0.174,-0.015C0.157,-0.015 0.142,-0.023 0.129,-0.039C0.118,-0.051 0.113,-0.067 0.113,-0.086C0.113,-0.093 0.114,-0.104 0.115,-0.119ZM0.176,-0.279C0.172,-0.286 0.168,-0.292 0.164,-0.295C0.159,-0.299 0.154,-0.3 0.149,-0.3C0.124,-0.3 0.097,-0.279 0.068,-0.235C0.036,-0.188 0.021,-0.147 0.021,-0.114C0.021,-0.106 0.022,-0.099 0.025,-0.095C0.028,-0.091 0.033,-0.089 0.039,-0.089C0.055,-0.089 0.073,-0.105 0.094,-0.139C0.105,-0.157 0.12,-0.184 0.137,-0.219C0.149,-0.242 0.157,-0.258 0.162,-0.265C0.165,-0.269 0.169,-0.274 0.176,-0.279Z" style="fill:rgb(97,218,251);fill-rule:nonzero;"/>
            </g>
            <g transform="matrix(96,0,0,96,990.063,254.2)">
                <path d="M0.062,-0.206C0.066,-0.209 0.07,-0.213 0.074,-0.217C0.142,-0.284 0.188,-0.317 0.211,-0.317C0.224,-0.317 0.23,-0.31 0.23,-0.296C0.23,-0.286 0.224,-0.275 0.213,-0.261C0.151,-0.189 0.12,-0.125 0.12,-0.069C0.12,-0.051 0.125,-0.034 0.134,-0.018C0.139,-0.011 0.141,-0.005 0.141,0C0.141,0.003 0.139,0.007 0.135,0.011C0.131,0.015 0.126,0.018 0.12,0.018C0.107,0.018 0.096,0.009 0.086,-0.008C0.078,-0.024 0.073,-0.043 0.073,-0.066C0.073,-0.11 0.09,-0.159 0.123,-0.212C0.079,-0.184 0.038,-0.133 0,-0.062C-0.01,-0.044 -0.021,-0.036 -0.032,-0.036C-0.037,-0.036 -0.042,-0.038 -0.045,-0.042C-0.05,-0.046 -0.052,-0.052 -0.052,-0.059C-0.052,-0.077 -0.032,-0.123 0.008,-0.197C0.029,-0.238 0.046,-0.267 0.059,-0.285C0.071,-0.303 0.082,-0.312 0.09,-0.312C0.095,-0.312 0.099,-0.31 0.103,-0.306C0.107,-0.302 0.109,-0.296 0.109,-0.291C0.109,-0.283 0.105,-0.273 0.095,-0.26C0.082,-0.24 0.07,-0.222 0.062,-0.206Z" style="fill:rgb(97,218,251);fill-rule:nonzero;"/>
            </g>
            <g transform="matrix(96,0,0,96,1014.77,254.2)">
                <path d="M0.115,-0.119C0.104,-0.1 0.094,-0.084 0.083,-0.071C0.063,-0.045 0.043,-0.033 0.022,-0.033C0.005,-0.033 -0.009,-0.041 -0.019,-0.058C-0.025,-0.068 -0.028,-0.081 -0.028,-0.096C-0.028,-0.132 -0.016,-0.172 0.006,-0.215C0.032,-0.264 0.062,-0.301 0.098,-0.327C0.122,-0.344 0.144,-0.353 0.166,-0.353C0.18,-0.353 0.191,-0.348 0.2,-0.34C0.208,-0.332 0.212,-0.324 0.212,-0.314C0.212,-0.307 0.209,-0.297 0.204,-0.285C0.208,-0.278 0.211,-0.272 0.211,-0.267C0.211,-0.26 0.206,-0.249 0.197,-0.233C0.188,-0.217 0.178,-0.196 0.169,-0.169C0.159,-0.141 0.154,-0.119 0.154,-0.102C0.154,-0.088 0.158,-0.077 0.166,-0.068C0.168,-0.066 0.175,-0.062 0.186,-0.057C0.194,-0.053 0.198,-0.046 0.198,-0.037C0.198,-0.03 0.196,-0.025 0.191,-0.021C0.187,-0.017 0.181,-0.015 0.174,-0.015C0.157,-0.015 0.142,-0.023 0.129,-0.039C0.118,-0.051 0.113,-0.067 0.113,-0.086C0.113,-0.093 0.114,-0.104 0.115,-0.119ZM0.176,-0.279C0.172,-0.286 0.168,-0.292 0.164,-0.295C0.159,-0.299 0.154,-0.3 0.149,-0.3C0.124,-0.3 0.097,-0.279 0.068,-0.235C0.036,-0.188 0.021,-0.147 0.021,-0.114C0.021,-0.106 0.022,-0.099 0.025,-0.095C0.028,-0.091 0.033,-0.089 0.039,-0.089C0.055,-0.089 0.073,-0.105 0.094,-0.139C0.105,-0.157 0.12,-0.184 0.137,-0.219C0.149,-0.242 0.157,-0.258 0.162,-0.265C0.165,-0.269 0.169,-0.274 0.176,-0.279Z" style="fill:rgb(97,218,251);fill-rule:nonzero;"/>
            </g>
            <g transform="matrix(96,0,0,96,1039.61,254.2)">
                <path d="M0.118,-0.08C0.153,-0.105 0.178,-0.129 0.195,-0.149C0.22,-0.18 0.238,-0.204 0.249,-0.223C0.254,-0.232 0.259,-0.236 0.265,-0.236C0.272,-0.236 0.276,-0.232 0.276,-0.225C0.276,-0.216 0.27,-0.201 0.258,-0.181C0.219,-0.118 0.162,-0.064 0.085,-0.017C0.049,0.058 0.023,0.109 0.006,0.135C-0.039,0.206 -0.081,0.241 -0.121,0.241C-0.142,0.241 -0.157,0.233 -0.166,0.216C-0.171,0.207 -0.174,0.196 -0.174,0.184C-0.174,0.133 -0.141,0.084 -0.075,0.037C-0.065,0.029 -0.023,0.005 0.051,-0.036C0.066,-0.066 0.077,-0.09 0.084,-0.107C0.05,-0.072 0.022,-0.054 0,-0.054C-0.014,-0.054 -0.025,-0.061 -0.033,-0.075C-0.038,-0.085 -0.041,-0.094 -0.041,-0.104C-0.041,-0.128 -0.031,-0.158 -0.012,-0.195C0.016,-0.248 0.049,-0.29 0.087,-0.321C0.119,-0.347 0.148,-0.359 0.172,-0.359C0.185,-0.359 0.196,-0.355 0.205,-0.345C0.211,-0.339 0.214,-0.33 0.214,-0.318C0.214,-0.303 0.209,-0.284 0.199,-0.262C0.207,-0.255 0.21,-0.25 0.21,-0.246C0.21,-0.244 0.209,-0.241 0.206,-0.236C0.197,-0.224 0.183,-0.202 0.163,-0.168C0.146,-0.139 0.131,-0.11 0.118,-0.08ZM0.114,-0.193C0.11,-0.198 0.107,-0.201 0.107,-0.203C0.107,-0.206 0.11,-0.21 0.115,-0.214C0.131,-0.23 0.144,-0.246 0.154,-0.263C0.162,-0.277 0.167,-0.287 0.167,-0.294C0.167,-0.303 0.162,-0.308 0.154,-0.308C0.14,-0.308 0.12,-0.294 0.094,-0.268C0.063,-0.236 0.039,-0.201 0.022,-0.162C0.014,-0.142 0.009,-0.127 0.009,-0.117C0.009,-0.111 0.011,-0.106 0.013,-0.104C0.016,-0.101 0.02,-0.099 0.024,-0.099C0.036,-0.099 0.052,-0.111 0.072,-0.134C0.085,-0.149 0.096,-0.164 0.105,-0.178C0.112,-0.188 0.115,-0.193 0.114,-0.193ZM0.022,0.021C-0.021,0.039 -0.059,0.066 -0.092,0.104C-0.107,0.121 -0.118,0.139 -0.125,0.158C-0.126,0.164 -0.127,0.169 -0.127,0.173C-0.127,0.177 -0.126,0.181 -0.125,0.184C-0.121,0.19 -0.116,0.193 -0.109,0.193C-0.089,0.193 -0.066,0.171 -0.039,0.128C-0.015,0.09 0.005,0.055 0.022,0.021Z" style="fill:rgb(97,218,251);fill-rule:nonzero;"/>
            </g>
            <g transform="matrix(96,0,0,96,1068.91,254.2)">
                <path d="M0.01,-0.132L0.01,-0.123C0.01,-0.116 0.012,-0.11 0.015,-0.104C0.023,-0.092 0.037,-0.086 0.055,-0.086C0.096,-0.086 0.143,-0.118 0.196,-0.18C0.206,-0.191 0.214,-0.196 0.22,-0.196C0.224,-0.196 0.227,-0.194 0.23,-0.191C0.232,-0.188 0.233,-0.186 0.233,-0.184C0.233,-0.171 0.217,-0.149 0.186,-0.119C0.162,-0.095 0.136,-0.076 0.108,-0.061C0.08,-0.046 0.055,-0.039 0.031,-0.039C0.006,-0.039 -0.013,-0.047 -0.027,-0.064C-0.036,-0.076 -0.041,-0.092 -0.041,-0.112C-0.041,-0.167 -0.015,-0.221 0.037,-0.273C0.079,-0.316 0.115,-0.338 0.146,-0.338C0.155,-0.338 0.163,-0.335 0.169,-0.33C0.178,-0.323 0.182,-0.314 0.182,-0.303C0.182,-0.286 0.174,-0.265 0.158,-0.24C0.125,-0.188 0.076,-0.152 0.01,-0.132ZM0.021,-0.17C0.043,-0.178 0.061,-0.187 0.074,-0.196C0.097,-0.214 0.115,-0.234 0.128,-0.256C0.133,-0.264 0.136,-0.271 0.136,-0.277C0.136,-0.283 0.133,-0.287 0.126,-0.287C0.118,-0.287 0.106,-0.28 0.09,-0.268C0.062,-0.245 0.039,-0.213 0.021,-0.17Z" style="fill:rgb(97,218,251);fill-rule:nonzero;"/>
            </g>
            <g transform="matrix(96,0,0,96,1095.25,254.2)">
                <path d="M0.061,-0.199C0.092,-0.233 0.129,-0.266 0.171,-0.299C0.186,-0.311 0.202,-0.321 0.219,-0.332C0.227,-0.336 0.233,-0.339 0.235,-0.339C0.24,-0.339 0.245,-0.335 0.25,-0.328C0.252,-0.324 0.254,-0.321 0.254,-0.317C0.254,-0.312 0.248,-0.304 0.235,-0.293C0.202,-0.267 0.186,-0.247 0.186,-0.234C0.186,-0.226 0.19,-0.223 0.198,-0.223C0.212,-0.223 0.236,-0.234 0.271,-0.257C0.276,-0.261 0.281,-0.263 0.285,-0.263C0.288,-0.263 0.29,-0.262 0.293,-0.259C0.296,-0.256 0.297,-0.253 0.297,-0.25C0.297,-0.24 0.284,-0.225 0.256,-0.205C0.228,-0.184 0.201,-0.173 0.175,-0.173C0.164,-0.173 0.155,-0.176 0.146,-0.181C0.139,-0.186 0.135,-0.194 0.135,-0.206C0.135,-0.214 0.138,-0.223 0.145,-0.233C0.119,-0.215 0.089,-0.184 0.054,-0.14C0.034,-0.112 0.014,-0.079 -0.006,-0.039C-0.013,-0.024 -0.023,-0.016 -0.034,-0.016C-0.046,-0.016 -0.052,-0.022 -0.052,-0.033C-0.052,-0.044 -0.042,-0.074 -0.023,-0.122C0.005,-0.194 0.034,-0.249 0.064,-0.289C0.083,-0.313 0.099,-0.325 0.112,-0.325C0.116,-0.325 0.12,-0.324 0.124,-0.321C0.128,-0.318 0.13,-0.314 0.13,-0.309C0.13,-0.304 0.127,-0.297 0.12,-0.289C0.119,-0.287 0.11,-0.276 0.094,-0.256C0.08,-0.237 0.068,-0.218 0.061,-0.199Z" style="fill:rgb(97,218,251);fill-rule:nonzero;"/>
            </g>
        </g>
        <g transform="matrix(1,0,0,1,-0.5,0)">
            <path d="M660.5,318L660.5,340" style="fill:none;stroke:rgb(97,218,251);stroke-width:1px;"/>
        </g>
        <path d="M642,358.5L1280,358.543" style="fill:none;stroke:rgb(97,218,251);stroke-width:1px;"/>
        <g transform="matrix(1.00617,0,0,1.01695,-5.80247,-7.67797)">
            <path d="M940,398.953C940,396.219 937.757,394 934.994,394L783.006,394C780.243,394 778,396.219 778,398.953L778,448.047C778,450.781 780.243,453 783.006,453L934.994,453C937.757,453 940,450.781 940,448.047L940,398.953Z" style="fill:none;stroke:rgb(97,218,251);stroke-width:0.99px;"/>
        </g>
        <g transform="matrix(1.00617,0,0,1.01695,194.698,-7.67797)">
            <path d="M940,398.953C940,396.219 937.757,394 934.994,394L783.006,394C780.243,394 778,396.219 778,398.953L778,448.047C778,450.781 780.243,453 783.006,453L934.994,453C937.757,453 940,450.781 940,448.047L940,398.953Z" style="fill:none;stroke:rgb(97,218,251);stroke-width:0.99px;"/>
        </g>
        <path d="M920.581,526.352C921.382,525.589 922.635,525.571 923.457,526.311C925.287,527.958 928.421,530.779 930.342,532.507C930.773,532.896 931.026,533.445 931.042,534.025C931.057,534.606 930.833,535.167 930.422,535.578C925.197,540.803 908.501,557.499 903.457,562.543C902.646,563.354 901.337,563.372 900.504,562.583C897.011,559.274 888.337,551.056 884.674,547.586C884.244,547.179 884.004,546.609 884.014,546.016C884.023,545.423 884.281,544.861 884.724,544.468C886.462,542.922 889.108,540.571 890.684,539.17C891.447,538.492 892.584,538.455 893.39,539.081C895.065,540.384 897.864,542.561 899.561,543.881C900.388,544.524 901.561,544.465 902.32,543.743C906.063,540.178 916.719,530.029 920.581,526.352Z" style="fill:rgb(97,218,251);stroke:rgb(97,218,251);stroke-width:1px;"/>
        <g transform="matrix(1,0,0,1,-1.01351,47.7323)">
            <path d="M920.581,526.352C921.382,525.589 922.635,525.571 923.457,526.311C925.287,527.958 928.421,530.779 930.342,532.507C930.773,532.896 931.026,533.445 931.042,534.025C931.057,534.606 930.833,535.167 930.422,535.578C925.197,540.803 908.501,557.499 903.457,562.543C902.646,563.354 901.337,563.372 900.504,562.583C897.011,559.274 888.337,551.056 884.674,547.586C884.244,547.179 884.004,546.609 884.014,546.016C884.023,545.423 884.281,544.861 884.724,544.468C886.462,542.922 889.108,540.571 890.684,539.17C891.447,538.492 892.584,538.455 893.39,539.081C895.065,540.384 897.864,542.561 899.561,543.881C900.388,544.524 901.561,544.465 902.32,543.743C906.063,540.178 916.719,530.029 920.581,526.352Z" style="fill:rgb(97,218,251);stroke:rgb(97,218,251);stroke-width:1px;"/>
        </g>
        <g transform="matrix(1.03704,0,0,1,-33.9444,0)">
            <ellipse cx="903" cy="639.25" rx="13.5" ry="13.75" style="fill:rgb(97,218,251);stroke:rgb(97,218,251);stroke-width:0.98px;"/>
        </g>
        <g transform="matrix(1,0,0,1,-10.5,-11)">
            <g transform="matrix(64,0,0,64,836,721.8)">
                <path d="M0.317,-0.308C0.243,-0.293 0.181,-0.276 0.131,-0.256C0.101,-0.212 0.069,-0.159 0.033,-0.098L0.007,-0.052C0.002,-0.044 -0.005,-0.032 -0.014,-0.017C-0.025,0.001 -0.035,0.01 -0.047,0.01C-0.053,0.01 -0.058,0.007 -0.063,0.002C-0.067,-0.002 -0.069,-0.007 -0.069,-0.012C-0.069,-0.021 -0.057,-0.047 -0.032,-0.089C-0.019,-0.112 0.001,-0.145 0.028,-0.188C0.039,-0.204 0.047,-0.217 0.053,-0.228C0.034,-0.222 0.016,-0.216 0,-0.208C-0.008,-0.205 -0.015,-0.203 -0.02,-0.203C-0.027,-0.203 -0.032,-0.206 -0.035,-0.212C-0.038,-0.215 -0.039,-0.22 -0.039,-0.225C-0.039,-0.236 -0.035,-0.243 -0.027,-0.248C-0.015,-0.256 0.008,-0.265 0.041,-0.275C0.065,-0.283 0.085,-0.29 0.099,-0.296C0.106,-0.305 0.124,-0.33 0.153,-0.371C0.165,-0.389 0.2,-0.431 0.258,-0.498C0.3,-0.547 0.343,-0.592 0.387,-0.634C0.413,-0.659 0.433,-0.671 0.446,-0.671C0.455,-0.671 0.462,-0.668 0.468,-0.661C0.473,-0.655 0.476,-0.648 0.476,-0.641C0.476,-0.632 0.472,-0.616 0.462,-0.593C0.447,-0.553 0.432,-0.51 0.417,-0.464C0.405,-0.424 0.397,-0.393 0.393,-0.372C0.398,-0.372 0.402,-0.372 0.404,-0.372C0.414,-0.372 0.422,-0.373 0.428,-0.373C0.447,-0.373 0.456,-0.365 0.456,-0.351C0.456,-0.345 0.454,-0.339 0.45,-0.333C0.446,-0.327 0.441,-0.323 0.436,-0.322C0.434,-0.321 0.429,-0.321 0.42,-0.321C0.401,-0.321 0.388,-0.32 0.378,-0.317C0.371,-0.294 0.358,-0.235 0.341,-0.14C0.333,-0.077 0.328,-0.038 0.329,-0.024C0.329,0 0.322,0.011 0.308,0.011C0.297,0.011 0.288,0.006 0.282,-0.006C0.277,-0.014 0.275,-0.024 0.275,-0.038C0.275,-0.083 0.283,-0.143 0.299,-0.219C0.307,-0.258 0.313,-0.287 0.317,-0.308ZM0.331,-0.36C0.333,-0.37 0.341,-0.395 0.353,-0.436C0.356,-0.447 0.363,-0.468 0.375,-0.5C0.388,-0.533 0.397,-0.559 0.404,-0.579C0.383,-0.565 0.362,-0.547 0.34,-0.523C0.263,-0.441 0.209,-0.373 0.177,-0.321C0.189,-0.324 0.215,-0.331 0.255,-0.343C0.266,-0.346 0.292,-0.352 0.331,-0.36Z" style="fill:rgb(97,218,251);fill-rule:nonzero;"/>
            </g>
            <g transform="matrix(64,0,0,64,864.469,721.8)">
                <path d="M0.168,-0.323C0.201,-0.391 0.232,-0.451 0.261,-0.501C0.289,-0.55 0.308,-0.581 0.318,-0.593C0.329,-0.607 0.339,-0.614 0.349,-0.614C0.354,-0.614 0.359,-0.612 0.363,-0.608C0.367,-0.604 0.369,-0.599 0.369,-0.594C0.369,-0.587 0.364,-0.574 0.353,-0.557C0.305,-0.48 0.262,-0.403 0.223,-0.325C0.177,-0.233 0.154,-0.165 0.154,-0.119C0.154,-0.101 0.158,-0.086 0.165,-0.075C0.166,-0.073 0.172,-0.068 0.183,-0.06C0.185,-0.058 0.186,-0.055 0.186,-0.05C0.186,-0.043 0.183,-0.037 0.178,-0.032C0.173,-0.027 0.167,-0.024 0.161,-0.024C0.154,-0.024 0.145,-0.028 0.136,-0.038C0.123,-0.051 0.115,-0.066 0.113,-0.083C0.112,-0.09 0.111,-0.103 0.109,-0.123C0.075,-0.061 0.043,-0.03 0.012,-0.03C-0.006,-0.03 -0.021,-0.04 -0.031,-0.061C-0.038,-0.074 -0.042,-0.089 -0.042,-0.106C-0.042,-0.157 -0.023,-0.208 0.014,-0.259C0.05,-0.31 0.09,-0.335 0.132,-0.335C0.144,-0.335 0.156,-0.331 0.168,-0.323ZM0.152,-0.283C0.143,-0.289 0.135,-0.292 0.129,-0.292C0.102,-0.292 0.076,-0.275 0.051,-0.242C0.019,-0.198 0.003,-0.156 0.003,-0.115C0.003,-0.11 0.004,-0.106 0.006,-0.102C0.01,-0.093 0.016,-0.089 0.023,-0.089C0.035,-0.089 0.049,-0.1 0.065,-0.123C0.087,-0.152 0.107,-0.187 0.125,-0.227C0.132,-0.24 0.138,-0.254 0.145,-0.268L0.152,-0.283Z" style="fill:rgb(97,218,251);fill-rule:nonzero;"/>
            </g>
            <g transform="matrix(64,0,0,64,881.188,721.8)">
                <path d="M0.168,-0.323C0.201,-0.391 0.232,-0.451 0.261,-0.501C0.289,-0.55 0.308,-0.581 0.318,-0.593C0.329,-0.607 0.339,-0.614 0.349,-0.614C0.354,-0.614 0.359,-0.612 0.363,-0.608C0.367,-0.604 0.369,-0.599 0.369,-0.594C0.369,-0.587 0.364,-0.574 0.353,-0.557C0.305,-0.48 0.262,-0.403 0.223,-0.325C0.177,-0.233 0.154,-0.165 0.154,-0.119C0.154,-0.101 0.158,-0.086 0.165,-0.075C0.166,-0.073 0.172,-0.068 0.183,-0.06C0.185,-0.058 0.186,-0.055 0.186,-0.05C0.186,-0.043 0.183,-0.037 0.178,-0.032C0.173,-0.027 0.167,-0.024 0.161,-0.024C0.154,-0.024 0.145,-0.028 0.136,-0.038C0.123,-0.051 0.115,-0.066 0.113,-0.083C0.112,-0.09 0.111,-0.103 0.109,-0.123C0.075,-0.061 0.043,-0.03 0.012,-0.03C-0.006,-0.03 -0.021,-0.04 -0.031,-0.061C-0.038,-0.074 -0.042,-0.089 -0.042,-0.106C-0.042,-0.157 -0.023,-0.208 0.014,-0.259C0.05,-0.31 0.09,-0.335 0.132,-0.335C0.144,-0.335 0.156,-0.331 0.168,-0.323ZM0.152,-0.283C0.143,-0.289 0.135,-0.292 0.129,-0.292C0.102,-0.292 0.076,-0.275 0.051,-0.242C0.019,-0.198 0.003,-0.156 0.003,-0.115C0.003,-0.11 0.004,-0.106 0.006,-0.102C0.01,-0.093 0.016,-0.089 0.023,-0.089C0.035,-0.089 0.049,-0.1 0.065,-0.123C0.087,-0.152 0.107,-0.187 0.125,-0.227C0.132,-0.24 0.138,-0.254 0.145,-0.268L0.152,-0.283Z" style="fill:rgb(97,218,251);fill-rule:nonzero;"/>
            </g>
            <g transform="matrix(64,0,0,64,913.906,721.8)">
                <path d="M0.15,-0.353C0.129,-0.32 0.11,-0.283 0.092,-0.242C0.066,-0.184 0.053,-0.141 0.053,-0.112C0.053,-0.104 0.055,-0.098 0.058,-0.094C0.062,-0.09 0.067,-0.087 0.074,-0.087C0.09,-0.087 0.11,-0.103 0.133,-0.133C0.147,-0.152 0.16,-0.171 0.172,-0.19C0.178,-0.201 0.185,-0.206 0.192,-0.206C0.196,-0.206 0.2,-0.205 0.203,-0.202C0.205,-0.199 0.207,-0.196 0.207,-0.193C0.207,-0.181 0.191,-0.154 0.159,-0.112C0.121,-0.062 0.087,-0.037 0.056,-0.037C0.039,-0.037 0.025,-0.045 0.014,-0.06C0.007,-0.07 0.004,-0.084 0.004,-0.102C0.004,-0.141 0.015,-0.187 0.038,-0.239C0.044,-0.252 0.059,-0.284 0.084,-0.333C0.075,-0.331 0.069,-0.33 0.064,-0.33C0.057,-0.33 0.051,-0.332 0.046,-0.335C0.039,-0.34 0.035,-0.345 0.035,-0.352C0.035,-0.36 0.04,-0.367 0.049,-0.372C0.052,-0.373 0.064,-0.375 0.085,-0.378C0.093,-0.379 0.105,-0.382 0.12,-0.387C0.131,-0.408 0.15,-0.436 0.175,-0.471C0.19,-0.49 0.2,-0.503 0.205,-0.509C0.213,-0.517 0.22,-0.521 0.226,-0.521C0.23,-0.521 0.234,-0.519 0.238,-0.514C0.242,-0.51 0.244,-0.506 0.244,-0.501C0.244,-0.493 0.235,-0.476 0.217,-0.451C0.205,-0.435 0.196,-0.422 0.19,-0.412C0.226,-0.421 0.252,-0.426 0.268,-0.426C0.285,-0.426 0.294,-0.419 0.294,-0.404C0.294,-0.396 0.291,-0.391 0.285,-0.387C0.282,-0.385 0.273,-0.384 0.26,-0.382C0.254,-0.383 0.23,-0.376 0.186,-0.364C0.174,-0.36 0.162,-0.356 0.15,-0.353Z" style="fill:rgb(97,218,251);fill-rule:nonzero;"/>
            </g>
            <g transform="matrix(64,0,0,64,929.531,721.8)">
                <path d="M0.115,-0.119C0.104,-0.1 0.094,-0.084 0.083,-0.071C0.063,-0.045 0.043,-0.033 0.022,-0.033C0.005,-0.033 -0.009,-0.041 -0.019,-0.058C-0.025,-0.068 -0.028,-0.081 -0.028,-0.096C-0.028,-0.132 -0.016,-0.172 0.006,-0.215C0.032,-0.264 0.062,-0.301 0.098,-0.327C0.122,-0.344 0.144,-0.353 0.166,-0.353C0.18,-0.353 0.191,-0.348 0.2,-0.34C0.208,-0.332 0.212,-0.324 0.212,-0.314C0.212,-0.307 0.209,-0.297 0.204,-0.285C0.208,-0.278 0.211,-0.272 0.211,-0.267C0.211,-0.26 0.206,-0.249 0.197,-0.233C0.188,-0.217 0.178,-0.196 0.169,-0.169C0.159,-0.141 0.154,-0.119 0.154,-0.102C0.154,-0.088 0.158,-0.077 0.166,-0.068C0.168,-0.066 0.175,-0.062 0.186,-0.057C0.194,-0.053 0.198,-0.046 0.198,-0.037C0.198,-0.03 0.196,-0.025 0.191,-0.021C0.187,-0.017 0.181,-0.015 0.174,-0.015C0.157,-0.015 0.142,-0.023 0.129,-0.039C0.118,-0.051 0.113,-0.067 0.113,-0.086C0.113,-0.093 0.114,-0.104 0.115,-0.119ZM0.176,-0.279C0.172,-0.286 0.168,-0.292 0.164,-0.295C0.159,-0.299 0.154,-0.3 0.149,-0.3C0.124,-0.3 0.097,-0.279 0.068,-0.235C0.036,-0.188 0.021,-0.147 0.021,-0.114C0.021,-0.106 0.022,-0.099 0.025,-0.095C0.028,-0.091 0.033,-0.089 0.039,-0.089C0.055,-0.089 0.073,-0.105 0.094,-0.139C0.105,-0.157 0.12,-0.184 0.137,-0.219C0.149,-0.242 0.157,-0.258 0.162,-0.265C0.165,-0.269 0.169,-0.274 0.176,-0.279Z" style="fill:rgb(97,218,251);fill-rule:nonzero;"/>
            </g>
            <g transform="matrix(64,0,0,64,946.094,721.8)">
                <path d="M0.196,-0.362C0.216,-0.362 0.231,-0.359 0.241,-0.352C0.251,-0.344 0.256,-0.333 0.256,-0.319C0.256,-0.3 0.249,-0.281 0.235,-0.263C0.221,-0.246 0.201,-0.233 0.173,-0.222C0.158,-0.217 0.146,-0.214 0.136,-0.214C0.122,-0.214 0.115,-0.22 0.115,-0.232C0.115,-0.24 0.119,-0.246 0.127,-0.25C0.129,-0.251 0.14,-0.254 0.16,-0.259C0.172,-0.261 0.183,-0.267 0.193,-0.276C0.202,-0.283 0.207,-0.292 0.207,-0.3C0.207,-0.307 0.205,-0.312 0.201,-0.315C0.197,-0.319 0.191,-0.32 0.183,-0.32C0.164,-0.32 0.143,-0.313 0.121,-0.297C0.094,-0.28 0.081,-0.26 0.081,-0.236C0.081,-0.219 0.09,-0.198 0.107,-0.172C0.126,-0.145 0.136,-0.121 0.136,-0.102C0.136,-0.073 0.123,-0.051 0.098,-0.035C0.082,-0.025 0.064,-0.02 0.044,-0.02C0.013,-0.02 -0.011,-0.031 -0.027,-0.053C-0.038,-0.069 -0.044,-0.088 -0.044,-0.11C-0.044,-0.135 -0.037,-0.157 -0.024,-0.174C-0.016,-0.185 -0.007,-0.191 0.002,-0.191C0.01,-0.191 0.014,-0.188 0.014,-0.181C0.014,-0.179 0.013,-0.175 0.01,-0.169C0.002,-0.155 -0.001,-0.139 -0.001,-0.12C-0.001,-0.104 0.004,-0.091 0.016,-0.08C0.026,-0.07 0.037,-0.065 0.05,-0.065C0.063,-0.065 0.073,-0.069 0.08,-0.078C0.086,-0.085 0.089,-0.094 0.089,-0.105C0.089,-0.119 0.081,-0.136 0.065,-0.158C0.044,-0.188 0.033,-0.215 0.033,-0.24C0.033,-0.272 0.051,-0.301 0.086,-0.326C0.121,-0.35 0.157,-0.362 0.196,-0.362Z" style="fill:rgb(97,218,251);fill-rule:nonzero;"/>
            </g>
            <g transform="matrix(64,0,0,64,962.375,721.8)">
                <path d="M0.172,-0.247C0.151,-0.195 0.14,-0.155 0.14,-0.127C0.14,-0.114 0.143,-0.103 0.148,-0.094C0.154,-0.083 0.163,-0.078 0.174,-0.078C0.196,-0.078 0.222,-0.092 0.25,-0.122C0.27,-0.141 0.286,-0.16 0.299,-0.18C0.307,-0.193 0.315,-0.199 0.323,-0.199C0.33,-0.199 0.334,-0.195 0.334,-0.188C0.334,-0.176 0.319,-0.15 0.289,-0.112C0.245,-0.055 0.202,-0.026 0.16,-0.026C0.135,-0.026 0.117,-0.039 0.107,-0.063C0.099,-0.081 0.095,-0.1 0.095,-0.12C0.095,-0.136 0.099,-0.161 0.107,-0.193C0.086,-0.176 0.054,-0.133 0.011,-0.064C-0.001,-0.046 -0.011,-0.037 -0.021,-0.037C-0.025,-0.037 -0.03,-0.039 -0.033,-0.043C-0.037,-0.048 -0.039,-0.052 -0.039,-0.057C-0.039,-0.07 -0.021,-0.113 0.013,-0.187C0.073,-0.316 0.137,-0.425 0.206,-0.513C0.243,-0.561 0.277,-0.597 0.306,-0.619C0.333,-0.639 0.354,-0.649 0.37,-0.649C0.377,-0.649 0.384,-0.646 0.389,-0.64C0.396,-0.633 0.4,-0.624 0.4,-0.614C0.4,-0.586 0.385,-0.551 0.356,-0.507C0.326,-0.463 0.275,-0.409 0.202,-0.346C0.161,-0.311 0.125,-0.283 0.092,-0.263C0.088,-0.254 0.076,-0.229 0.057,-0.188C0.097,-0.232 0.13,-0.263 0.153,-0.279C0.169,-0.29 0.189,-0.301 0.215,-0.312C0.233,-0.319 0.246,-0.323 0.253,-0.323C0.258,-0.323 0.261,-0.322 0.265,-0.318C0.268,-0.315 0.27,-0.312 0.27,-0.307C0.27,-0.296 0.263,-0.288 0.248,-0.284C0.223,-0.277 0.198,-0.264 0.172,-0.247ZM0.13,-0.331C0.183,-0.366 0.233,-0.411 0.279,-0.465C0.302,-0.492 0.321,-0.518 0.335,-0.543C0.345,-0.561 0.35,-0.574 0.35,-0.581C0.35,-0.589 0.346,-0.592 0.339,-0.592C0.321,-0.592 0.29,-0.564 0.245,-0.508C0.208,-0.462 0.17,-0.403 0.13,-0.331Z" style="fill:rgb(97,218,251);fill-rule:nonzero;"/>
            </g>
            <g transform="matrix(64,0,0,64,985.125,721.8)">
                <path d="M0.196,-0.362C0.216,-0.362 0.231,-0.359 0.241,-0.352C0.251,-0.344 0.256,-0.333 0.256,-0.319C0.256,-0.3 0.249,-0.281 0.235,-0.263C0.221,-0.246 0.201,-0.233 0.173,-0.222C0.158,-0.217 0.146,-0.214 0.136,-0.214C0.122,-0.214 0.115,-0.22 0.115,-0.232C0.115,-0.24 0.119,-0.246 0.127,-0.25C0.129,-0.251 0.14,-0.254 0.16,-0.259C0.172,-0.261 0.183,-0.267 0.193,-0.276C0.202,-0.283 0.207,-0.292 0.207,-0.3C0.207,-0.307 0.205,-0.312 0.201,-0.315C0.197,-0.319 0.191,-0.32 0.183,-0.32C0.164,-0.32 0.143,-0.313 0.121,-0.297C0.094,-0.28 0.081,-0.26 0.081,-0.236C0.081,-0.219 0.09,-0.198 0.107,-0.172C0.126,-0.145 0.136,-0.121 0.136,-0.102C0.136,-0.073 0.123,-0.051 0.098,-0.035C0.082,-0.025 0.064,-0.02 0.044,-0.02C0.013,-0.02 -0.011,-0.031 -0.027,-0.053C-0.038,-0.069 -0.044,-0.088 -0.044,-0.11C-0.044,-0.135 -0.037,-0.157 -0.024,-0.174C-0.016,-0.185 -0.007,-0.191 0.002,-0.191C0.01,-0.191 0.014,-0.188 0.014,-0.181C0.014,-0.179 0.013,-0.175 0.01,-0.169C0.002,-0.155 -0.001,-0.139 -0.001,-0.12C-0.001,-0.104 0.004,-0.091 0.016,-0.08C0.026,-0.07 0.037,-0.065 0.05,-0.065C0.063,-0.065 0.073,-0.069 0.08,-0.078C0.086,-0.085 0.089,-0.094 0.089,-0.105C0.089,-0.119 0.081,-0.136 0.065,-0.158C0.044,-0.188 0.033,-0.215 0.033,-0.24C0.033,-0.272 0.051,-0.301 0.086,-0.326C0.121,-0.35 0.157,-0.362 0.196,-0.362Z" style="fill:rgb(97,218,251);fill-rule:nonzero;"/>
            </g>
            <g transform="matrix(64,0,0,64,1017.41,721.8)">
                <path d="M0.115,-0.119C0.104,-0.1 0.094,-0.084 0.083,-0.071C0.063,-0.045 0.043,-0.033 0.022,-0.033C0.005,-0.033 -0.009,-0.041 -0.019,-0.058C-0.025,-0.068 -0.028,-0.081 -0.028,-0.096C-0.028,-0.132 -0.016,-0.172 0.006,-0.215C0.032,-0.264 0.062,-0.301 0.098,-0.327C0.122,-0.344 0.144,-0.353 0.166,-0.353C0.18,-0.353 0.191,-0.348 0.2,-0.34C0.208,-0.332 0.212,-0.324 0.212,-0.314C0.212,-0.307 0.209,-0.297 0.204,-0.285C0.208,-0.278 0.211,-0.272 0.211,-0.267C0.211,-0.26 0.206,-0.249 0.197,-0.233C0.188,-0.217 0.178,-0.196 0.169,-0.169C0.159,-0.141 0.154,-0.119 0.154,-0.102C0.154,-0.088 0.158,-0.077 0.166,-0.068C0.168,-0.066 0.175,-0.062 0.186,-0.057C0.194,-0.053 0.198,-0.046 0.198,-0.037C0.198,-0.03 0.196,-0.025 0.191,-0.021C0.187,-0.017 0.181,-0.015 0.174,-0.015C0.157,-0.015 0.142,-0.023 0.129,-0.039C0.118,-0.051 0.113,-0.067 0.113,-0.086C0.113,-0.093 0.114,-0.104 0.115,-0.119ZM0.176,-0.279C0.172,-0.286 0.168,-0.292 0.164,-0.295C0.159,-0.299 0.154,-0.3 0.149,-0.3C0.124,-0.3 0.097,-0.279 0.068,-0.235C0.036,-0.188 0.021,-0.147 0.021,-0.114C0.021,-0.106 0.022,-0.099 0.025,-0.095C0.028,-0.091 0.033,-0.089 0.039,-0.089C0.055,-0.089 0.073,-0.105 0.094,-0.139C0.105,-0.157 0.12,-0.184 0.137,-0.219C0.149,-0.242 0.157,-0.258 0.162,-0.265C0.165,-0.269 0.169,-0.274 0.176,-0.279Z" style="fill:rgb(97,218,251);fill-rule:nonzero;"/>
            </g>
            <g transform="matrix(64,0,0,64,1033.97,721.8)">
                <path d="M0.112,-0.294C0.139,-0.318 0.164,-0.33 0.187,-0.33C0.2,-0.33 0.211,-0.324 0.22,-0.313C0.228,-0.302 0.232,-0.291 0.232,-0.277C0.232,-0.252 0.224,-0.221 0.208,-0.185C0.189,-0.145 0.162,-0.108 0.127,-0.073C0.098,-0.045 0.07,-0.03 0.044,-0.03C0.034,-0.03 0.025,-0.032 0.017,-0.036C0.009,-0.039 0.002,-0.045 -0.004,-0.052C-0.007,-0.047 -0.008,-0.044 -0.009,-0.043C-0.014,-0.031 -0.018,-0.024 -0.02,-0.021C-0.022,-0.018 -0.026,-0.017 -0.03,-0.017C-0.036,-0.017 -0.042,-0.021 -0.047,-0.027C-0.05,-0.032 -0.052,-0.037 -0.052,-0.042C-0.052,-0.051 -0.034,-0.097 0.004,-0.18C0.056,-0.296 0.117,-0.411 0.186,-0.526C0.214,-0.573 0.231,-0.6 0.237,-0.608C0.244,-0.618 0.25,-0.623 0.256,-0.623C0.264,-0.623 0.27,-0.619 0.275,-0.612C0.279,-0.608 0.281,-0.602 0.281,-0.596C0.281,-0.589 0.278,-0.581 0.271,-0.57C0.27,-0.568 0.26,-0.551 0.241,-0.52C0.182,-0.429 0.139,-0.354 0.112,-0.294ZM0.015,-0.098C0.02,-0.091 0.024,-0.086 0.03,-0.083C0.035,-0.08 0.04,-0.078 0.045,-0.078C0.074,-0.078 0.104,-0.103 0.135,-0.152C0.15,-0.174 0.161,-0.196 0.17,-0.218C0.177,-0.237 0.181,-0.252 0.181,-0.261C0.181,-0.268 0.18,-0.273 0.177,-0.276C0.174,-0.279 0.169,-0.28 0.163,-0.28C0.148,-0.28 0.13,-0.27 0.109,-0.25C0.088,-0.229 0.067,-0.2 0.046,-0.162C0.037,-0.144 0.028,-0.127 0.021,-0.111C0.017,-0.102 0.015,-0.098 0.015,-0.098Z" style="fill:rgb(97,218,251);fill-rule:nonzero;"/>
            </g>
            <g transform="matrix(64,0,0,64,1051.78,721.8)">
                <path d="M0.16,-0.353C0.187,-0.353 0.2,-0.337 0.2,-0.304C0.2,-0.261 0.18,-0.206 0.14,-0.14C0.097,-0.068 0.054,-0.032 0.014,-0.032C-0.005,-0.032 -0.019,-0.041 -0.028,-0.058C-0.032,-0.067 -0.035,-0.077 -0.035,-0.09C-0.035,-0.132 -0.02,-0.177 0.008,-0.226C0.035,-0.271 0.066,-0.306 0.103,-0.331C0.124,-0.346 0.143,-0.353 0.16,-0.353ZM0.109,-0.168C0.101,-0.175 0.097,-0.18 0.097,-0.184C0.097,-0.186 0.102,-0.193 0.113,-0.205C0.142,-0.238 0.157,-0.264 0.157,-0.285C0.157,-0.287 0.156,-0.29 0.154,-0.292C0.152,-0.297 0.148,-0.3 0.142,-0.3C0.132,-0.3 0.116,-0.29 0.096,-0.27C0.07,-0.243 0.05,-0.217 0.037,-0.189C0.021,-0.157 0.013,-0.131 0.013,-0.11C0.013,-0.105 0.014,-0.1 0.017,-0.096C0.021,-0.09 0.027,-0.087 0.033,-0.087C0.049,-0.087 0.066,-0.099 0.083,-0.122C0.091,-0.132 0.098,-0.142 0.103,-0.152C0.107,-0.163 0.11,-0.168 0.109,-0.168Z" style="fill:rgb(97,218,251);fill-rule:nonzero;"/>
            </g>
            <g transform="matrix(64,0,0,64,1066.63,721.8)">
                <path d="M0.152,-0.171C0.132,-0.137 0.115,-0.112 0.101,-0.095C0.066,-0.054 0.037,-0.034 0.014,-0.034C0,-0.034 -0.011,-0.041 -0.019,-0.057C-0.024,-0.067 -0.026,-0.077 -0.026,-0.088C-0.026,-0.11 -0.017,-0.141 0.001,-0.182C0.018,-0.217 0.032,-0.245 0.043,-0.266C0.052,-0.28 0.057,-0.29 0.059,-0.294C0.063,-0.303 0.066,-0.31 0.069,-0.314C0.073,-0.321 0.079,-0.325 0.086,-0.325C0.09,-0.325 0.094,-0.323 0.097,-0.32C0.1,-0.316 0.102,-0.311 0.102,-0.306C0.102,-0.292 0.088,-0.259 0.062,-0.208C0.036,-0.158 0.022,-0.125 0.022,-0.108C0.022,-0.098 0.027,-0.093 0.035,-0.093C0.049,-0.093 0.069,-0.111 0.094,-0.147C0.106,-0.164 0.118,-0.184 0.13,-0.209C0.13,-0.218 0.129,-0.224 0.129,-0.228C0.129,-0.252 0.134,-0.274 0.143,-0.292C0.155,-0.315 0.171,-0.326 0.19,-0.326C0.202,-0.326 0.208,-0.319 0.208,-0.306C0.208,-0.284 0.196,-0.252 0.173,-0.209C0.18,-0.208 0.185,-0.208 0.189,-0.208C0.2,-0.208 0.214,-0.214 0.231,-0.228C0.245,-0.239 0.254,-0.245 0.258,-0.245C0.261,-0.245 0.265,-0.243 0.269,-0.238C0.272,-0.235 0.273,-0.231 0.273,-0.228C0.273,-0.216 0.265,-0.203 0.249,-0.188C0.23,-0.171 0.209,-0.163 0.185,-0.163C0.175,-0.163 0.164,-0.166 0.152,-0.171Z" style="fill:rgb(97,218,251);fill-rule:nonzero;"/>
            </g>
            <g transform="matrix(64,0,0,64,1084.34,721.8)">
                <path d="M0.01,-0.132L0.01,-0.123C0.01,-0.116 0.012,-0.11 0.015,-0.104C0.023,-0.092 0.037,-0.086 0.055,-0.086C0.096,-0.086 0.143,-0.118 0.196,-0.18C0.206,-0.191 0.214,-0.196 0.22,-0.196C0.224,-0.196 0.227,-0.194 0.23,-0.191C0.232,-0.188 0.233,-0.186 0.233,-0.184C0.233,-0.171 0.217,-0.149 0.186,-0.119C0.162,-0.095 0.136,-0.076 0.108,-0.061C0.08,-0.046 0.055,-0.039 0.031,-0.039C0.006,-0.039 -0.013,-0.047 -0.027,-0.064C-0.036,-0.076 -0.041,-0.092 -0.041,-0.112C-0.041,-0.167 -0.015,-0.221 0.037,-0.273C0.079,-0.316 0.115,-0.338 0.146,-0.338C0.155,-0.338 0.163,-0.335 0.169,-0.33C0.178,-0.323 0.182,-0.314 0.182,-0.303C0.182,-0.286 0.174,-0.265 0.158,-0.24C0.125,-0.188 0.076,-0.152 0.01,-0.132ZM0.021,-0.17C0.043,-0.178 0.061,-0.187 0.074,-0.196C0.097,-0.214 0.115,-0.234 0.128,-0.256C0.133,-0.264 0.136,-0.271 0.136,-0.277C0.136,-0.283 0.133,-0.287 0.126,-0.287C0.118,-0.287 0.106,-0.28 0.09,-0.268C0.062,-0.245 0.039,-0.213 0.021,-0.17Z" style="fill:rgb(97,218,251);fill-rule:nonzero;"/>
            </g>
        </g>
    </g>
</svg>
